<?xml version="1.0" encoding="UTF-8" standalone="no"?>
<svg
   xmlns:dc="http://purl.org/dc/elements/1.1/"
   xmlns:cc="http://creativecommons.org/ns#"
   xmlns:rdf="http://www.w3.org/1999/02/22-rdf-syntax-ns#"
   xmlns:svg="http://www.w3.org/2000/svg"
   xmlns="http://www.w3.org/2000/svg"
   xmlns:sodipodi="http://sodipodi.sourceforge.net/DTD/sodipodi-0.dtd"
   xmlns:inkscape="http://www.inkscape.org/namespaces/inkscape"
   version="1.1"
   id="a8c05071-0416-439a-93e9-6bde219307c4"
   x="0px"
   y="0px"
   viewBox="0 0 137 246.9"
   style="enable-background:new 0 0 137 246.9;"
   xml:space="preserve"
   sodipodi:docname="environment-topology-clustered-new.svg"
   inkscape:version="1.0.2 (1.0.2+r75+1)"><metadata
   id="metadata289"><rdf:RDF><cc:Work
       rdf:about=""><dc:format>image/svg+xml</dc:format><dc:type
         rdf:resource="http://purl.org/dc/dcmitype/StillImage" /><dc:title></dc:title></cc:Work></rdf:RDF></metadata><defs
   id="defs287" /><sodipodi:namedview
   pagecolor="#ffffff"
   bordercolor="#666666"
   borderopacity="1"
   objecttolerance="10"
   gridtolerance="10"
   guidetolerance="10"
   inkscape:pageopacity="0"
   inkscape:pageshadow="2"
   inkscape:window-width="1853"
   inkscape:window-height="1022"
   id="namedview285"
   showgrid="false"
   inkscape:zoom="3.5682463"
   inkscape:cx="3.6597898"
   inkscape:cy="182.97006"
   inkscape:window-x="1987"
   inkscape:window-y="30"
   inkscape:window-maximized="1"
   inkscape:current-layer="a8c05071-0416-439a-93e9-6bde219307c4" />
<style
   type="text/css"
   id="style2">
	.st0{fill:#71B429;}
	.st1{fill:#FFFFFF;}
	.st2{fill:#05ACFF;}
	.st3{fill-rule:evenodd;clip-rule:evenodd;fill:#D33833;}
	.st4{fill:#EF3D3A;}
	.st5{fill:#231F20;}
	.st6{fill-rule:evenodd;clip-rule:evenodd;fill:#F0D6B7;}
	.st7{fill-rule:evenodd;clip-rule:evenodd;fill:#335061;}
	.st8{fill-rule:evenodd;clip-rule:evenodd;fill:#6D6B6D;}
	.st9{fill-rule:evenodd;clip-rule:evenodd;fill:#DCD9D8;}
	.st10{fill-rule:evenodd;clip-rule:evenodd;fill:#F7E4CD;}
	.st11{fill:#F7E4CD;}
	.st12{fill-rule:evenodd;clip-rule:evenodd;fill:#49728B;}
	.st13{fill-rule:evenodd;clip-rule:evenodd;fill:#FFFFFF;}
	.st14{fill:none;stroke:#D33833;stroke-width:0.51;stroke-miterlimit:8;}
	.st15{fill-rule:evenodd;clip-rule:evenodd;fill:#EF3D3A;}
	.st16{fill-rule:evenodd;clip-rule:evenodd;fill:#231F20;}
	.st17{fill-rule:evenodd;clip-rule:evenodd;fill:#81B0C4;}
	.st18{fill-rule:evenodd;clip-rule:evenodd;fill:#1D1919;}
	.st19{fill:#91A3C1;}
	.st20{fill:#5E6981;}
	.st21{fill:#258AD6;}
	.st22{fill:#EF2529;}
</style>
<rect
   x="67.9"
   y="15.9"
   class="st0"
   width="1.2"
   height="21.3"
   id="rect4" />
<polygon
   class="st0"
   points="68.5,40.8 65.9,35.5 71.1,35.5 "
   id="polygon6" />
<path
   class="st1"
   d="M44.2,50.8h48.7c1.7,0,3,1.3,3,3v48.7c0,1.7-1.3,3-3,3H44.2c-1.7,0-3-1.3-3-3V53.8  C41.2,52.2,42.5,50.8,44.2,50.8z"
   id="path8" />
<path
   class="st2"
   d="M96.4,53.8v48.7c0,2-1.6,3.6-3.6,3.6l0,0H44.2c-2,0-3.6-1.6-3.6-3.6l0,0V53.8c0-2,1.6-3.6,3.6-3.6h48.7  C94.8,50.2,96.4,51.8,96.4,53.8L96.4,53.8z M92.8,104.9c1.3,0,2.4-1.1,2.4-2.4l0,0V53.8c0-1.3-1.1-2.4-2.4-2.4l0,0H44.2  c-1.3,0-2.4,1.1-2.4,2.4l0,0v48.7c0,1.3,1.1,2.4,2.4,2.4l0,0L92.8,104.9z"
   id="path10" />
<path
   class="st2"
   d="M92.8,106.6H44.2c-2.3,0-4.1-1.8-4.1-4.1c0,0,0,0,0,0V53.8c0-2.3,1.8-4.1,4.1-4.1h0h48.7c2.3,0,4.1,1.8,4.1,4.1  v0v48.7C96.9,104.7,95.1,106.6,92.8,106.6C92.8,106.6,92.8,106.6,92.8,106.6z M44.2,50.7c-1.7,0-3.1,1.4-3.1,3.1v48.7  c0,1.7,1.4,3.1,3.1,3.1h0h48.7c1.7,0,3.1-1.4,3.1-3.1l0,0V53.8c0-1.7-1.4-3.1-3.1-3.1l0,0L44.2,50.7z M92.8,105.4H44.2  c-1.6,0-2.9-1.3-2.9-2.9l0,0V53.8c0-1.6,1.3-2.9,2.9-2.9l0,0h48.7c1.6,0,2.9,1.3,2.9,2.9l0,0v48.7C95.7,104.1,94.4,105.4,92.8,105.4  L92.8,105.4z M44.2,51.9c-1.1,0-1.9,0.9-1.9,1.9v48.7c0,1.1,0.9,1.9,1.9,1.9l0,0h48.7c1.1,0,1.9-0.8,1.9-1.9c0,0,0,0,0,0V53.8  c0-1.1-0.9-1.9-1.9-1.9l0,0H44.2z"
   id="path12" />






<path
   class="st3"
   d="M83,78.8c-0.2,8-6.8,14.4-14.9,14.2c-8-0.2-14.4-6.8-14.2-14.9c0.2-7.9,6.6-14.2,14.5-14.2  C76.6,64,83.1,70.7,83,78.8"
   id="path26" />
<path
   class="st4"
   d="M54.5,82.5c0,0-1-15.5,13.2-15.9l-1-1.7L59,67.5L56.8,70l-1.9,3.7L53.8,78l0.3,2.9"
   id="path28" />
<path
   class="st5"
   d="M58.5,68.7c-5.5,5.7-5.5,14.7,0,20.4c5.3,5.5,14.1,5.6,19.6,0.3c0.1-0.1,0.2-0.2,0.3-0.3  c5.5-5.7,5.5-14.7,0-20.4c-5.3-5.5-14.1-5.6-19.6-0.3C58.7,68.5,58.6,68.6,58.5,68.7z M57.9,89.7C52,83.6,52,74,57.9,68  c5.7-5.8,15-6,20.8-0.4c0.1,0.1,0.2,0.2,0.4,0.4c5.9,6,5.9,15.6,0,21.6c-5.7,5.8-15,6-20.8,0.4C58.1,89.9,58,89.8,57.9,89.7"
   id="path30" />
<path
   class="st6"
   d="M74.6,78.9l-2.2,0.3l-3,0.3h-1.9h-1.9l-1.4-0.4l-1.3-1.4l-1-2.8l-0.2-0.6l-1.3-0.4l-0.8-1.3L59,70.8l0.6-1.6  l1.4-0.5l1.2,0.6l0.5,1.2l0.7-0.1l0.2-0.3l-0.2-1.3l-0.1-1.6l0.3-2.2v-1.3l1-1.6l1.8-1.3l3.1-1.3L73,60l3,2.2l1.4,2.2l0.9,1.6l0.2,4  l-0.7,3.4l-1.2,3L75.4,78"
   id="path32" />
<path
   class="st7"
   d="M72.7,88.4l-7.9,0.3v1.3l0.7,4.6l-0.3,0.4l-5.5-1.9l-0.4-0.7l-0.5-6.3l-1.3-3.8l-0.3-0.9l4.4-3l1.4-0.6l1.2,1.5  l1,0.9l1.2,0.4l0.6,0.2l0.7,2.9l0.5,0.6l1.3-0.4l-0.9,1.7l4.8,2.3L72.7,88.4"
   id="path34" />
<path
   class="st8"
   d="M59.6,69.1l1.4-0.5l1.2,0.6l0.5,1.2l0.7-0.1l0.2-0.7l-0.3-1.3l0.3-3.1l-0.3-1.7l1-1.2l2.2-1.7L65.8,60l-3,1.5  l-1.3,1L60.8,64l-1.1,1.5l-0.3,1.8L59.6,69.1"
   id="path36" />
<path
   class="st9"
   d="M61.9,63.9c0,0,0.8-2,4.1-3c3.3-1,0.2-0.7,0.2-0.7l-3.6,1.4L61.2,63l-0.6,1.1L61.9,63.9 M60.2,68.8  c0,0-1.2-3.9,3.3-4.5l-0.2-0.7l-3,0.7l-0.9,2.9l0.2,1.9L60.2,68.8"
   id="path38" />
<path
   class="st10"
   d="M62,73.9l0.7-0.7c0,0.2,0.2,0.4,0.4,0.4c0.1,0.4,0.2,3.9,2.6,5.8c0.2,0.2-1.8-0.3-1.8-0.3l-1.8-2.8 M72.2,72.9  c0,0,0.1-1.7,0.6-1.6c0.3,0.1,0.4,0.3,0.4,0.6C73.2,71.9,72.1,72.6,72.2,72.9"
   id="path40" />
<path
   class="st11"
   d="M76.8,66.7c0,0-0.9,0.2-1,1s1,0.2,1.2,0.1 M70.1,66.8c0,0-1.2,0.2-1.2,0.9s1.4,0.7,1.8,0.4"
   id="path42" />
<path
   class="st10"
   d="M62.5,70.4c0,0-2.1-1.3-2.3-0.1s-0.7,2.1,0.3,3.4l-0.7-0.2l-0.7-1.7l-0.2-1.7l1.3-1.3l1.4,0.1l0.8,0.7  L62.5,70.4 M63.5,66.9c0,0,0.9-4.9,5.7-5.8c3.9-0.8,6,0.2,6.8,1c0,0-3.5-4.2-6.8-2.9s-5.8,3.6-5.7,5.1L63.5,66.9 M76.4,62.7  c0,0-1.6,0-1.7,1.4c0,0.2,0,0.3,0.1,0.4c0,0,1.3-1.4,2-0.7 M69.3,64.6c0,0-0.3-2.2-2.2-0.9c-1.2,0.8-1.1,2-0.9,2.2s0.2,0.7,0.3,0.4  s0.1-1.3,0.7-1.6S68.9,64.1,69.3,64.6"
   id="path44" />
<path
   class="st12"
   d="M64.1,79.6l-5.2,2.3c0,0,2.2,8.6,1,11.2l-0.8-0.3l-0.1-3.3l-1.4-6.2l-0.6-1.7l5.4-3.7L64.1,79.6 M64.6,84.3  l0.7,0.9v3.3h-0.9L64.4,86c0-0.3,0.1-1.3,0.1-1.3 M64.7,89.1l-2.5,0.1l0.7,0.5l1.8,0.3"
   id="path46" />
<path
   class="st7"
   d="M73.2,88.5l2.1-0.1l0.5,5.1l-2.1,0.3L73.2,88.5"
   id="path48" />
<path
   class="st7"
   d="M73.8,88.5l3.1-0.2l1.3-3.3c0-0.2,1.1-4.7,1.1-4.7l-2.5-2.6l-0.5-0.4l-1.3,1.3v5.1L73.8,88.5"
   id="path50" />
<path
   class="st12"
   d="M75.2,88.1l-1.9,0.4l0.3,1.6c0.7,0.3,1.9-0.6,1.9-0.6 M75.2,78.4l3.9,2.9l0.1-1.3l-2.9-2.7L75.2,78.4"
   id="path52" />
<path
   class="st13"
   d="M66.6,99.4l-1.2-4.7l-0.6-3.4l-0.1-2.5l5.2-0.3h3.2l-0.3,5.8l0.5,4.5l-0.1,0.8l-4.2,0.3L66.6,99.4"
   id="path54" />
<path
   class="st9"
   d="M72.5,88.4c-0.2,3.3,0,6.6,0.5,9.8c-1.2,0.7-2.6,1.2-4,1.3l4.7-0.2l0.6-0.3l-0.7-9.1l-0.2-1.9"
   id="path56" />
<path
   class="st13"
   d="M75.8,93.1l2.2-0.6l4.1-0.2l0.6-1.9l-1.1-3.3L80.3,87l-1.8,0.6l-1.7,0.8L76,88.2l-0.7,0.3"
   id="path58" />
<path
   class="st9"
   d="M75.8,92c0.5-0.3,1.1-0.5,1.7-0.6l-0.6-3l0.7-0.3l0.5,3.2l3.4,0.2c0.4-0.8,0.6-1.7,0.5-2.6l0.6,1.8l0.1,1  L81.7,93l-1,0.2l-1.7-0.1l-0.6-0.7l-1.9,0.3L76,92.9"
   id="path60" />
<path
   class="st1"
   d="M73.6,88.1L72.4,85l-1.3-1.8c0,0,0.3-0.8,0.7-0.8h1.3l1.2,0.4l-0.1,2L73.6,88.1"
   id="path62" />
<path
   class="st9"
   d="M73.9,87c-0.6-1.1-1.1-2.3-1.6-3.4c0,0,0.3-0.7,0.7-0.5s1.2,0.6,1.2,0.6v-1l-1.9-0.4l-1.3,0.2l2.2,5.1h0.4"
   id="path64" />
<path
   class="st1"
   d="M67.1,79.7l-1.5-0.2l-1.4-0.4v0.5l0.7,0.8l2.2,1"
   id="path66" />
<path
   class="st9"
   d="M64.6,79.9c0.7,0.3,1.5,0.5,2.3,0.6l0.1,0.7l-1.6-0.3l-0.9-0.7L64.6,79.9"
   id="path68" />
<path
   class="st3"
   d="M75.8,82.6c-0.9,0-1.7-0.1-2.5-0.3c0.1-0.3,0-0.6,0-0.8c0.3-0.1,0.6-0.2,0.9-0.2c-0.3-0.1-0.7-0.2-1-0.1  c0-0.2-0.1-0.3-0.2-0.5c0.5-0.2,1.8-1.4,2.5-1c0.3,0.2,0.5,1.3,0.5,1.8C76,81.8,76,82.2,75.8,82.6"
   id="path70" />
<path
   class="st14"
   d="M75.8,82.6c-0.9,0-1.7-0.1-2.5-0.3c0.1-0.3,0-0.6,0-0.8c0.3-0.1,0.6-0.2,0.9-0.2c-0.3-0.1-0.7-0.2-1-0.1  c0-0.2-0.1-0.3-0.2-0.5c0.5-0.2,1.8-1.4,2.5-1c0.3,0.2,0.5,1.3,0.5,1.8C76.1,81.8,76,82.2,75.8,82.6z"
   id="path72" />
<path
   class="st3"
   d="M71.4,81v0.2c-0.3,0.2-0.8,0.2-1.1,0.3c0.4,0,0.8,0.1,1.2,0.3v0.5c-0.5,0.5-1.1,0.9-1.7,1.3  c-0.5,0.3-1.1,0.5-1.7,0.5c-0.2,0-0.2-0.3-0.3-0.5c-0.3-0.6-0.4-1.2-0.5-1.8c0-0.9-0.1-2.3,0.8-2.1c0.8,0.2,1.5,0.4,2.2,0.8  C70.6,80.8,71,80.9,71.4,81"
   id="path74" />
<path
   class="st14"
   d="M71.4,81v0.2c-0.3,0.2-0.8,0.2-1.1,0.3c0.4,0,0.8,0.1,1.2,0.3v0.5c-0.5,0.5-1.1,0.9-1.7,1.3  c-0.5,0.3-1.1,0.5-1.7,0.5c-0.2,0-0.2-0.3-0.3-0.5c-0.3-0.6-0.4-1.2-0.5-1.8c0-0.9-0.1-2.3,0.8-2.1c0.8,0.2,1.5,0.4,2.2,0.8  C70.6,80.8,71,80.9,71.4,81L71.4,81z"
   id="path76" />
<path
   class="st3"
   d="M71.9,82c-0.1-0.3-0.1-0.7-0.1-1C73,80.2,73.2,82.4,71.9,82"
   id="path78" />
<path
   class="st14"
   d="M71.9,82c-0.1-0.3-0.1-0.7-0.1-1C73,80.2,73.2,82.5,71.9,82z"
   id="path80" />
<path
   class="st15"
   d="M73.7,82.4c0,0-0.4-0.6-0.1-0.7s0.6,0,0.7-0.3s0-0.4,0.1-0.8s0.3-0.4,0.6-0.4s1-0.2,1.2,0.1l-0.3-1l-0.7-0.2  L73,80.3l-0.1,0.6v1.2 M67.9,84.2l-0.2-2.6c-0.1-1.3,0.3-1.1,1.4-1.1c0.4,0,0.8,0.2,1.1,0.3c0.3,0.6-0.5,0.5,0.3,0.9s2-0.2,1.7-1.1  c-0.2-0.2-0.8-0.1-1.1-0.2l-1.3-0.7c-0.6-0.3-1.8-0.7-2.4-0.3c-1.5,1,0.1,3.5,0.6,4.6"
   id="path82" />
<path
   class="st16"
   d="M69.3,64.6c-1.5-0.3-2.3,0.6-2.7,1.7c-0.4-0.1-0.3-0.7-0.1-0.9c0.4-0.9,1.3-1.5,2.2-1.6  C69.1,63.8,69.6,64.2,69.3,64.6 M76.7,66.3L76.7,66.3c0.4,0.7,0.7,1.4,1.1,2.1c-0.3,0.7-2.2,1.3-2.2,0.1c0.4-0.2,1.1,0,1.5-0.3  C76.8,67.6,76.7,67,76.7,66.3 M70.1,66.3c0.2,0.6,0.5,1.2,0.9,1.7c0.2,0.2,0.6,0.4,0.4,1c-0.1,0.2-0.3,0.4-0.6,0.5  c-0.7,0.2-2.4,0-1.8-0.9c0.6,0,1.4,0.4,1.8,0C70.5,68.1,69.9,67,70.1,66.3 M76.4,72.4c-1.2,0.9-2.6,1.4-4.1,1.3  c-0.4-0.4-0.5-1.1-0.2-1.6c0.2,0.3,0.1,0.9,0.6,1c1,0.2,2.2-0.6,2.9-0.9c0.4-0.8,0-1-0.4-1.5c-0.8-1-1.9-2.2-1.9-3.7  c0.3-0.2,0.4,0.4,0.4,0.5c0.6,1.2,1.4,2.2,2.3,3.2c0.2,0.2,0.5,0.4,0.6,0.6C76.8,71.6,76.4,72.1,76.4,72.4 M62.2,71.6  c-0.3-0.2-0.4-1-0.8-1.1c-0.6,0-0.5,1.1-0.5,1.8c-0.4-0.6-0.5-1.3-0.2-2c-0.3-0.2-0.5,0.2-0.7,0.3C60.3,68.9,62.5,69.8,62.2,71.6   M77.2,73c-0.4,1.1-1.5,1.9-2.7,2c0-0.3,0-0.7,0-1C75.4,73.9,76.3,73.5,77.2,73 M70,73.7c1.3,0.5,2.6,0.6,4,0.5  c0.1,0.3,0.1,0.7,0.1,1C72.4,75.3,70.5,74.9,70,73.7 M69.9,74.7c0.7,1.6,2.9,1.4,4.8,1.4c-0.1,0.2-0.3,0.4-0.5,0.6  c-1,0.4-2.1,0.4-3.1,0c-0.5-0.3-0.9-0.8-1.2-1.3C69.8,75.2,69.1,74.7,69.9,74.7"
   id="path84" />
<path
   class="st17"
   d="M76.3,83.7l-2.4,3.8c0.4-1.4,0.6-2.9,0.6-4.4C75.2,82.8,76,83,76.3,83.7"
   id="path86" />
<path
   class="st16"
   d="M80.5,88.4c-0.9,0.2-1.5,1-2.3,1C78.7,88.7,79.6,88.3,80.5,88.4 M80.8,89.7c-0.7,0.1-1.5,0.1-2.2,0.1  C78.9,89.3,80.2,89.5,80.8,89.7 M81.1,90.9c-0.8,0-1.8,0-2.5-0.1C79,90.4,80.6,90.7,81.1,90.9"
   id="path88" />
<path
   class="st9"
   d="M74.9,94.1c0.2,1,0.4,2,0.5,3.1c-0.4,0.2-0.8,0.3-1.3,0.3l-0.1-3.2C74.2,94.2,74.6,94,74.9,94.1"
   id="path90" />
<path
   class="st6"
   d="M73.6,79.5c-0.4,0.3-0.7,0.6-1.1,0.9c-0.7,0.1-1.4-0.1-1.9-0.5c0,0,0.1,0,0.1-0.1  C71.5,80.2,72.6,79.6,73.6,79.5"
   id="path92" />
<path
   class="st17"
   d="M68.9,85.7c0.2-1.1,1.2-1.7,2.1-2.2c0.8,1.3,1.5,2.6,2,4.1C71.6,87,70.2,86.4,68.9,85.7"
   id="path94" />
<path
   class="st16"
   d="M73.9,94.2c0,0.9,0.1,2.3,0.1,3.2c0.4,0,0.9-0.1,1.3-0.3c-0.1-1-0.2-2.1-0.4-3.1C74.6,94,74.2,94.2,73.9,94.2  L73.9,94.2z M64.9,89.2c0.3,3.3,1,6.5,2,9.6c2.3,0.7,4.7,0.7,7,0.1c-0.4-1.8-0.2-3.9-0.4-5.8l-0.3-4.3  C70.4,88.5,67.6,88.6,64.9,89.2L64.9,89.2z M73.7,88.9c0,1.5,0.1,3,0.2,4.5l1.5-0.3c-0.1-1.5-0.2-2.9-0.5-4.4  C74.5,88.7,74.1,88.8,73.7,88.9z M76.6,88.7c-0.3,0-0.6,0-0.9,0l0.5,3.9c0.3,0,0.7-0.1,1-0.2C77.4,91,77.1,89.8,76.6,88.7z   M81.1,92.7c0.9-0.4,1.5-1.4,1.2-2.4c-0.1-0.9-0.4-1.7-0.8-2.6c-0.2-0.3-0.8-0.8-1.3-0.5c-0.8,0.5-2.2,0.7-2.8,1.3  c0.3,1.2,0.4,2.4,0.5,3.6c1,0.1,2.2-0.3,3.1,0.1c-0.6,0.1-1.2,0.3-1.8,0.5C79.7,92.9,80.4,92.9,81.1,92.7L81.1,92.7z M73.1,87.5  c-0.5-1.4-1.2-2.8-2.1-4c-0.9,0.6-1.8,1.2-2.1,2.2C70.2,86.4,71.6,87,73.1,87.5L73.1,87.5z M74.6,83.1c0,1.5-0.2,3-0.6,4.4  c0.9-1.2,1.7-2.5,2.4-3.8C76.1,83,75.3,82.8,74.6,83.1L74.6,83.1z M72.9,82.5c-0.3,0-0.6,0.4-1.1,0.2L71.5,83c1,1.2,1.4,2.9,2.2,4.3  c0.3-1.4,0.4-2.8,0.4-4.3C73.6,83,73.3,82.5,72.9,82.5L72.9,82.5z M71.8,81c0,0.3,0,0.7,0.1,1C73.3,82.5,73,80.2,71.8,81z   M70.3,80.5c-0.7-0.4-1.4-0.6-2.2-0.8c-0.9-0.2-0.8,1.3-0.8,2.1c0.1,0.6,0.3,1.3,0.5,1.8c0.1,0.2,0.1,0.4,0.3,0.5  c0.6-0.1,1.1-0.2,1.7-0.5c0.6-0.4,1.1-0.8,1.7-1.3v-0.5c-0.4-0.2-0.8-0.3-1.2-0.3c0.4-0.1,0.7-0.2,1.1-0.3V81  C71,80.9,70.6,80.8,70.3,80.5L70.3,80.5z M64.8,79.5c-0.5,0.5,1.3,1.2,1.9,1.2c0-0.3,0.2-0.6,0.1-0.8C66.1,79.9,65.4,79.7,64.8,79.5  z M70.7,79.7C70.7,79.7,70.6,79.7,70.7,79.7c0.5,0.5,1.2,0.7,1.8,0.6l1.1-0.8C72.7,79.6,71.6,80.2,70.7,79.7L70.7,79.7z M76.1,81.4  c0-0.5-0.2-1.7-0.5-1.8c-0.7-0.4-1.9,0.8-2.5,1c0.1,0.2,0.1,0.3,0.2,0.5c0.3-0.1,0.7,0,1,0.1c-0.3,0-0.6,0.1-0.9,0.2  c-0.1,0.2,0,0.5,0,0.8c0.8,0.2,1.7,0.3,2.5,0.3C76.1,82.2,76.2,81.8,76.1,81.4L76.1,81.4z M64,80c-0.2-0.1-1.2-1.4-1.3-1.4  c-1.8,0.8-3.6,1.9-5.1,3.2c1.4,3.4,2.2,7,2.2,10.7c1.7,0.8,3.2,1.9,5.4,2l-0.7-5.3c-0.6-0.2-1.4,0-1.9-0.1c0-0.7,0.8-0.3,0.9-0.7  s-0.5-0.3-0.3-0.9c0.4,0.2,0.6,0.5,1.1,0.6c0.4-0.9,0-2.5,0-3.2c0-0.1,0.1-0.8,0.4-0.7s0,1.7,0,2.4s-0.1,1.3,0.2,1.7  c2.3-0.3,4.5-0.5,6.8-0.6c-0.6-0.2-1.2-0.5-1.8-0.8c-0.4-0.2-1.5-0.6-1.6-1c-0.2-0.6,0.4-0.9,0.6-1.3c-1.1,0.6-1.3-0.6-1.6-1.4  c-0.2-0.6-0.3-1.2-0.4-1.8C65.8,81.1,64.9,80.6,64,80z M75.1,78.8c1.5-0.7,1.8,2.8,1.2,3.9c0.1,0.3,0.4,0.5,0.6,0.8L74.2,88  c0.7-0.4,1.6-0.1,2.3-0.4c0.3-0.1,0.5-0.8,0.7-1.3c0.6-1.5,1.1-3,1.5-4.5c0.1-0.4,0.2-0.8,0.2-1.2c-0.1-0.5-0.7-0.8-1.1-1.2  l-1.7-1.6C75.9,78.2,75.3,78.5,75.1,78.8L75.1,78.8z M60.4,65.2c-0.7,0.8-0.6,2.3-0.5,3.4c0.9-0.6,2.2-0.3,2.8,0.6  c0.2,0.3,0.3,0.6,0.3,0.9c0.6,0,0.2-0.8,0.1-1.3c-0.4-1.6,0.6-3.4,0-4.9C62.1,64,61.1,64.4,60.4,65.2L60.4,65.2z M65.7,60.5  c-1.7,0.5-3.8,1.7-4.5,3.2c0.5-0.1,0.9-0.3,1.4-0.4c0.2,0,0.5,0,0.7,0c0.5-0.1,0.8-1.1,1.2-1.5s0.7-0.5,1-0.8  c0.2-0.1,0.4-0.1,0.4-0.3C65.8,60.5,65.8,60.5,65.7,60.5L65.7,60.5z M74.3,61c-1.7-1-4.6-1.7-6.4-0.8c-1.5,0.7-3.5,2-4.2,3.5  c0.6,1.5-0.2,2.8-0.2,4.4c0,0.8,0.4,1.5,0.4,2.4c-0.2,0.4-0.9,0.4-1.3,0.4c-0.2-0.8-0.4-1.6-1.2-1.7c-1-0.1-1.9,0.7-2,1.7  c0,0,0,0.1,0,0.1c-0.1,1.1,0.9,3.1,2.2,2.9c0.5-0.1,0.6-0.6,1.2-0.6c0.3,0.6-0.5,0.8-0.5,1.2c0,0.3,0.1,0.5,0.1,0.8  c0.3,1.1,0.7,2.1,1.3,3.1c0.7,1,2,1.1,3.4,1.2c0.3-0.6,1.2-0.5,1.8-0.4c-0.8-0.4-1.5-0.9-2-1.6c-0.7-0.6-1.2-1.5-1.3-2.4  c1.2,1.7,2.2,3.2,4.5,3.9c1.7,0.6,3.7-0.3,5-1.2c0.5-0.4,0.9-1,1.2-1.5c1.5-2.3,2.2-5.1,2-7.8c0-1.1-0.1-2.1-0.4-3.1  c-0.4-0.8-1.8-1.6-2.6-0.8c-0.2-0.8,0.7-1.3,1.7-1C76.1,62.5,75.3,61.7,74.3,61L74.3,61z M77.5,87.5c1.3-0.7,3.8-1.8,4.7,0  c0.3,0.8,0.6,1.6,0.8,2.5c0.2,1-0.3,3-1.2,3.3c-1,0.3-2,0.3-3,0.1c-0.2-0.1-0.3-0.3-0.4-0.5c-0.7-0.1-1.4,0.1-2.1,0.3  c0.1,0.6-0.3,0.7-0.7,0.8c-0.3,1,0.5,2.4,0.3,3.3c-0.1,0.7-1,0.8-1.6,0.9c0,0.3,0,0.7,0.1,1c-0.2,0.5-0.8,0.9-1.4,0.9  c-2.3,0.3-4.6,0.2-6.8-0.3c-0.5-1.3-0.9-2.8-1.4-4.3c-1.8,0.2-3.3-0.8-4.7-1.4c-0.5-0.2-1.2-0.3-1.3-0.7c-0.1-0.6-0.2-1.2-0.2-1.8  c-0.1-1.7-0.3-3.5-0.6-5.2c-0.2-0.8-0.6-1.5-0.8-2.2c-0.3-0.7-0.5-1.5-0.7-2.3c-0.2-1,0.8-1.1,1.5-1.6c1-0.7,1.7-1.1,2.8-1.7  c0.5-0.2,0.9-0.5,1.4-0.9c0.2-0.4-0.4-1-0.5-1.4c-0.2-0.5-0.4-1-0.4-1.5c-0.8-0.1-1.5-0.6-2-1.2c-0.8-1.2-1-2.8-0.6-4.2  c0.1-0.2,0.2-0.3,0.3-0.5c0-0.4,0-0.7-0.1-1.1c-0.1-1.8,0.3-3.3,1.5-3.9c0.5-1.9,2.2-2.6,3.9-3.6c0.6-0.3,1.3-0.6,2-0.8  c2.5-0.9,6.4-0.8,8.5,0.8c1.1,0.9,2.1,1.9,2.8,3.1c1.3,2.7,1.3,7.2,0.3,10.5c-0.1,0.6-0.3,1.1-0.6,1.6c-0.2,0.4-0.7,1.1-0.7,1.4  s1.3,1.2,1.5,1.5c0.5,0.4,1.3,1,1.4,1.6c0,0.7-0.2,1.4-0.4,2L77.5,87.5"
   id="path96" />
<path
   class="st10"
   d="M68.5,74.2c0.1-0.1,0.5-0.2,1,0c0,0-0.7,0.1-0.6,1.2h-0.3C68.7,75.4,68.4,74.4,68.5,74.2"
   id="path98" />
<path
   class="st18"
   d="M73.4,83.7c0,0.2-0.2,0.3-0.4,0.2c-0.1,0-0.2-0.1-0.2-0.2c0-0.2,0.1-0.3,0.2-0.4s0.3,0.1,0.4,0.2  C73.4,83.6,73.4,83.6,73.4,83.7 M73.7,85.1c0,0.2-0.1,0.3-0.3,0.3c0,0,0,0,0,0c-0.2,0-0.3-0.1-0.3-0.3c0-0.2,0.1-0.3,0.3-0.3  c0,0,0,0,0,0C73.5,84.8,73.7,84.9,73.7,85.1C73.7,85.1,73.7,85.1,73.7,85.1"
   id="path100" />
<rect
   x="67.9"
   y="127"
   class="st2"
   width="1.2"
   height="21.3"
   id="rect102" />
<rect
   x="27.9"
   y="147.8"
   class="st2"
   width="40.5"
   height="1.1"
   id="rect104" />
<path
   d="M14.9,246.8h-0.8l-1.4-4.8c-0.1-0.2-0.1-0.5-0.2-0.8c-0.1-0.2-0.1-0.4-0.1-0.6c-0.1,0.5-0.2,0.9-0.3,1.4l-1.4,4.8H9.8  l-1.9-7.1h0.9l1.1,4.4c0.2,0.6,0.3,1.2,0.4,1.7c0.1-0.6,0.2-1.2,0.4-1.8l1.3-4.3h0.9l1.4,4.4c0.2,0.6,0.3,1.1,0.4,1.7  c0.1-0.6,0.2-1.1,0.4-1.7l1.1-4.4h0.9L14.9,246.8z"
   id="path106" />
<path
   d="M22.5,244.1c0,0.7-0.2,1.4-0.7,2c-0.5,0.5-1.1,0.8-1.8,0.7c-0.4,0-0.9-0.1-1.3-0.3c-0.4-0.2-0.7-0.6-0.9-1  c-0.2-0.5-0.3-1-0.3-1.5c0-0.7,0.2-1.4,0.7-2c0.5-0.5,1.1-0.8,1.8-0.7c0.7,0,1.3,0.2,1.8,0.8C22.3,242.6,22.5,243.4,22.5,244.1z   M18.4,244.1c0,0.6,0.1,1.1,0.4,1.6c0.6,0.7,1.6,0.7,2.3,0.1c0,0,0.1-0.1,0.1-0.1c0.3-0.5,0.4-1,0.4-1.6c0-0.5-0.1-1.1-0.4-1.6  c-0.3-0.4-0.7-0.6-1.2-0.6c-0.5,0-0.9,0.2-1.2,0.5C18.5,243,18.3,243.5,18.4,244.1z"
   id="path108" />
<path
   d="M26.3,241.3c0.2,0,0.4,0,0.6,0.1l-0.1,0.8c-0.2,0-0.4-0.1-0.6-0.1c-0.4,0-0.8,0.2-1.1,0.5c-0.3,0.4-0.5,0.8-0.5,1.3v2.9  h-0.8v-5.4h0.7l0.1,1l0,0c0.2-0.3,0.4-0.6,0.7-0.8C25.6,241.4,26,241.3,26.3,241.3z"
   id="path110" />
<path
   d="M28.8,244c0.2-0.3,0.4-0.5,0.6-0.8l1.7-1.8h1l-2.2,2.3l2.3,3.1h-1l-1.9-2.5l-0.6,0.5v2H28v-7.6h0.8v4  C28.8,243.3,28.8,243.6,28.8,244L28.8,244z"
   id="path112" />
<path
   d="M35.5,246.9c-0.7,0-1.4-0.2-1.9-0.7c-0.5-0.6-0.7-1.3-0.7-2c0-0.7,0.2-1.5,0.6-2.1c0.4-0.5,1.1-0.8,1.7-0.8  c0.6,0,1.2,0.2,1.6,0.7c0.4,0.5,0.6,1.1,0.6,1.8v0.5h-3.7c0,0.5,0.1,1,0.5,1.4c0.3,0.3,0.8,0.5,1.3,0.5c0.6,0,1.2-0.1,1.7-0.4v0.7  c-0.3,0.1-0.5,0.2-0.8,0.3C36.1,246.9,35.8,246.9,35.5,246.9z M35.2,242c-0.4,0-0.7,0.1-1,0.4c-0.3,0.3-0.4,0.7-0.5,1.2h2.8  c0-0.4-0.1-0.8-0.3-1.2C36,242.1,35.6,242,35.2,242z"
   id="path114" />
<path
   d="M41.3,241.3c0.2,0,0.4,0,0.6,0.1l-0.1,0.8c-0.2,0-0.4-0.1-0.6-0.1c-0.4,0-0.8,0.2-1.1,0.5c-0.3,0.4-0.5,0.8-0.5,1.3v2.9  h-0.8v-5.4h0.7l0.1,1l0,0c0.2-0.3,0.4-0.6,0.7-0.8C40.6,241.4,40.9,241.3,41.3,241.3z"
   id="path116" />
<path
   d="M48.1,246.8h-0.8v-5.1c0-0.4,0-0.8,0-1.2c-0.1,0.1-0.1,0.1-0.2,0.2c-0.1,0.1-0.5,0.4-1.2,1l-0.4-0.6l1.9-1.5h0.7L48.1,246.8  z"
   id="path118" />
<path
   class="st1"
   d="M3.6,178.6h48.7c1.7,0,3,1.3,3,3v48.7c0,1.7-1.3,3-3,3H3.6c-1.7,0-3-1.3-3-3v-48.7  C0.6,179.9,1.9,178.6,3.6,178.6z"
   id="path120" />
<path
   class="st19"
   d="M52.2,233.8H3.6c-2,0-3.6-1.6-3.6-3.6v-48.7c0-2,1.6-3.6,3.6-3.6h48.7c2,0,3.6,1.6,3.6,3.6v48.7  C55.8,232.2,54.2,233.8,52.2,233.8z M3.6,179.1c-1.3,0-2.4,1.1-2.4,2.4v48.7c0,1.3,1.1,2.4,2.4,2.4h48.7c1.3,0,2.4-1.1,2.4-2.4  v-48.7c0-1.3-1.1-2.4-2.4-2.4L3.6,179.1z"
   id="path122" />
<path
   class="st19"
   d="M133.4,233.8H130v-1.1h3.4V233.8z M127.1,233.8h-3.4v-1.1h3.4V233.8z M120.8,233.8h-3.4v-1.1h3.4V233.8z   M114.6,233.8h-3.4v-1.1h3.4V233.8z M108.3,233.8h-3.4v-1.1h3.4V233.8z M102,233.8h-3.4v-1.1h3.4L102,233.8z M95.7,233.8h-3.4v-1.1  h3.4L95.7,233.8z M89.4,233.8H86v-1.1h3.4L89.4,233.8z M82.9,233.3c-1.1-0.6-1.8-1.8-1.8-3.1v-0.3h1.2v0.3c0,0.9,0.5,1.7,1.2,2.1  L82.9,233.3z M136.3,232.3l-0.9-0.7c0.3-0.4,0.4-0.9,0.4-1.4v-1.6h1.2v1.6C137,231,136.7,231.7,136.3,232.3L136.3,232.3z   M82.3,227.1h-1.2v-3.4h1.2L82.3,227.1z M137,225.7h-1.1v-3.4h1.1V225.7z M82.3,220.7h-1.2v-3.4h1.2L82.3,220.7z M137,219.5h-1.1  V216h1.1V219.5z M82.3,214.5h-1.2V211h1.2L82.3,214.5z M137,213.2h-1.1v-3.4h1.1V213.2z M82.3,208.2h-1.2v-3.4h1.2L82.3,208.2z   M137,206.9h-1.1v-3.4h1.1V206.9z M82.3,201.9h-1.2v-3.4h1.2L82.3,201.9z M137,200.6h-1.1v-3.4h1.1V200.6z M82.3,195.6h-1.2v-3.4  h1.2L82.3,195.6z M137,194.4h-1.1v-3.4h1.1V194.4z M82.3,189.4h-1.2V186h1.2L82.3,189.4z M137,188.1h-1.1v-3.4h1.1V188.1z   M82.3,183.1h-1.2v-1.6c0-0.7,0.2-1.5,0.7-2.1l0.9,0.7c-0.3,0.4-0.4,0.9-0.4,1.4L82.3,183.1z M137,181.8h-1.1v-0.3  c0-0.9-0.5-1.7-1.2-2.1l0.6-1c1.1,0.6,1.8,1.8,1.8,3.1L137,181.8z M132.1,179.1h-3.4V178h3.4V179.1z M125.8,179.1h-3.4V178h3.4  V179.1z M119.6,179.1h-3.5V178h3.4L119.6,179.1z M113.3,179.1h-3.4V178h3.4V179.1z M107,179.1h-3.4V178h3.4V179.1z M100.7,179.1  h-3.5V178h3.4L100.7,179.1z M94.5,179.1H91V178h3.4L94.5,179.1z M88.2,179.1h-3.5v-1.1h3.4L88.2,179.1z"
   id="path124" />
<rect
   x="27.8"
   y="149"
   class="st2"
   width="1.1"
   height="21.3"
   id="rect126" />
<polygon
   class="st2"
   points="28.4,173.9 25.8,168.6 31,168.6 "
   id="polygon128" />
<polygon
   class="st2"
   points="109.9,173.9 107.3,168.6 112.4,168.6 "
   id="polygon130" />
<rect
   x="109"
   y="165.7"
   class="st2"
   width="1.2"
   height="1.7"
   id="rect132" />
<path
   class="st2"
   d="M110.2,156.5H109V153h1.2V156.5z M110.2,162.8H109v-3.4h1.2V162.8z"
   id="path134" />
<polygon
   class="st2"
   points="110.2,147.8 107.8,147.8 107.8,149 109,149 109,150.1 110.2,150.1 "
   id="polygon136" />
<rect
   x="101.3"
   y="147.8"
   class="st2"
   width="3.6"
   height="1.1"
   id="rect138" />
<rect
   x="94.7"
   y="147.8"
   class="st2"
   width="3.6"
   height="1.1"
   id="rect140" />
<rect
   x="88.1"
   y="147.8"
   class="st2"
   width="3.6"
   height="1.1"
   id="rect142" />
<rect
   x="81.5"
   y="147.8"
   class="st2"
   width="3.6"
   height="1.1"
   id="rect144" />
<rect
   x="74.9"
   y="147.8"
   class="st2"
   width="3.6"
   height="1.1"
   id="rect146" />
<rect
   x="68.4"
   y="147.8"
   class="st2"
   width="3.6"
   height="1.1"
   id="rect148" />
<rect
   x="30.7"
   y="147.8"
   class="st2"
   width="1.7"
   height="1.1"
   id="rect150" />
<circle
   class="st20"
   cx="72.7"
   cy="205.9"
   r="1.4"
   id="circle152" />
<circle
   class="st20"
   cx="68.1"
   cy="205.9"
   r="1.4"
   id="circle154" />
<circle
   class="st20"
   cx="63.5"
   cy="205.9"
   r="1.4"
   id="circle156" />
<path
   d="M94.6,246.8h-0.8l-1.4-4.8c-0.1-0.2-0.2-0.5-0.2-0.8c-0.1-0.2-0.1-0.4-0.1-0.6c-0.1,0.5-0.2,0.9-0.3,1.4l-1.4,4.8h-0.8  l-1.9-7.1h0.9l1.1,4.4c0.2,0.6,0.3,1.2,0.3,1.7c0.1-0.6,0.2-1.2,0.4-1.8l1.3-4.3h0.9l1.3,4.4c0.2,0.6,0.3,1.1,0.4,1.7  c0.1-0.6,0.2-1.1,0.4-1.7l1.1-4.4h0.9L94.6,246.8z"
   id="path158" />
<path
   d="M102.1,244.1c0,0.7-0.2,1.4-0.7,2c-0.5,0.5-1.1,0.8-1.8,0.7c-0.4,0-0.9-0.1-1.3-0.3c-0.4-0.2-0.7-0.6-0.9-1  c-0.2-0.5-0.3-1-0.3-1.5c0-0.7,0.2-1.4,0.7-2c0.5-0.5,1.1-0.8,1.8-0.7c0.7,0,1.3,0.2,1.8,0.8C101.9,242.6,102.2,243.4,102.1,244.1z   M98.1,244.1c0,0.6,0.1,1.1,0.4,1.6c0.3,0.4,0.7,0.6,1.2,0.5c0.5,0,0.9-0.2,1.2-0.5c0.3-0.5,0.5-1,0.4-1.6c0-0.5-0.1-1.1-0.4-1.6  c-0.6-0.7-1.7-0.7-2.3-0.1c0,0,0,0-0.1,0.1C98.2,243,98,243.6,98.1,244.1z"
   id="path160" />
<path
   d="M106,241.3c0.2,0,0.4,0,0.6,0.1l-0.1,0.8c-0.2,0-0.4-0.1-0.6-0.1c-0.4,0-0.8,0.2-1.1,0.5c-0.3,0.4-0.5,0.8-0.5,1.3v2.9h-0.8  v-5.4h0.7l0.1,1l0,0c0.2-0.3,0.4-0.6,0.7-0.8C105.3,241.4,105.7,241.3,106,241.3z"
   id="path162" />
<path
   d="M108.4,244c0.2-0.3,0.4-0.5,0.6-0.8l1.7-1.8h1l-2.2,2.3l2.3,3.1h-1l-1.9-2.5l-0.6,0.5v2h-0.8v-7.6h0.8v4  C108.5,243.3,108.5,243.6,108.4,244L108.4,244z"
   id="path164" />
<path
   d="M115.2,246.9c-0.7,0-1.4-0.2-1.9-0.7c-0.5-0.6-0.7-1.3-0.7-2c0-0.7,0.2-1.5,0.6-2.1c0.4-0.5,1.1-0.8,1.7-0.8  c0.6,0,1.2,0.2,1.6,0.7c0.4,0.5,0.6,1.1,0.6,1.8v0.5h-3.7c0,0.5,0.1,1,0.5,1.4c0.3,0.3,0.8,0.5,1.3,0.5c0.6,0,1.2-0.1,1.7-0.4v0.7  C116.3,246.8,115.7,246.9,115.2,246.9L115.2,246.9z M114.9,242c-0.4,0-0.7,0.1-1,0.4c-0.3,0.3-0.4,0.7-0.4,1.2h2.8  c0-0.4-0.1-0.8-0.3-1.2C115.7,242.1,115.3,242,114.9,242L114.9,242z"
   id="path166" />
<path
   d="M120.9,241.3c0.2,0,0.4,0,0.6,0.1l-0.1,0.8c-0.2,0-0.4-0.1-0.6-0.1c-0.4,0-0.8,0.2-1.1,0.5c-0.3,0.4-0.5,0.8-0.5,1.3v2.9  h-0.8v-5.4h0.7l0.1,1l0,0c0.2-0.3,0.4-0.6,0.7-0.8C120.3,241.4,120.6,241.3,120.9,241.3z"
   id="path168" />
<path
   d="M130.9,246.8h-0.9l-3.9-6l0,0c0.1,0.7,0.1,1.3,0.1,1.9v4.1h-0.8v-7.1h0.9l3.9,6l0,0c0-0.1,0-0.4,0-0.9s0-0.8,0-1v-4.1h0.8  L130.9,246.8z"
   id="path170" />
<path
   class="st0"
   d="M48.9,4.2v3h-0.8V0h2c0.7,0,1.3,0.1,1.9,0.5c0.4,0.4,0.7,0.9,0.6,1.5c0,0.9-0.6,1.7-1.4,1.9l1.9,3.2h-1l-1.7-3  L48.9,4.2z M48.9,3.5h1.1c0.5,0,0.9-0.1,1.3-0.3c0.3-0.3,0.4-0.6,0.4-1c0-0.4-0.1-0.8-0.4-1c-0.4-0.3-0.9-0.4-1.3-0.4h-1.1V3.5z"
   id="path172" />
<path
   class="st0"
   d="M56.4,7.2c-0.7,0-1.4-0.2-1.9-0.7c-0.5-0.5-0.7-1.3-0.7-2c0-0.7,0.2-1.5,0.6-2.1c0.4-0.5,1.1-0.8,1.7-0.8  c0.6,0,1.2,0.2,1.6,0.7c0.4,0.5,0.6,1.1,0.6,1.8v0.5h-3.7c0,0.5,0.2,1,0.5,1.4c0.3,0.3,0.8,0.5,1.3,0.5c0.6,0,1.2-0.1,1.7-0.4v0.7  c-0.3,0.1-0.5,0.2-0.8,0.3C57,7.2,56.7,7.2,56.4,7.2z M56.2,2.4c-0.4,0-0.7,0.1-1,0.4c-0.3,0.3-0.5,0.8-0.5,1.2h2.8  c0-0.4-0.1-0.8-0.3-1.2C56.9,2.5,56.6,2.4,56.2,2.4z"
   id="path174" />
<path
   class="st0"
   d="M61.7,7.2C61,7.3,60.4,7,60,6.5c-0.4-0.6-0.6-1.3-0.6-2c0-0.7,0.2-1.5,0.6-2c0.8-0.9,2.1-1,3-0.2  c0.1,0.1,0.2,0.2,0.3,0.3l0,0l0.1-0.7h0.6v7.7h-0.8V7.2c0-0.3,0-0.6,0-0.8h-0.1C62.9,6.9,62.3,7.2,61.7,7.2z M61.8,6.6  c0.5,0,0.9-0.1,1.2-0.4c0.3-0.4,0.4-0.9,0.4-1.5V4.5c0-0.6-0.1-1.1-0.4-1.6c-0.3-0.3-0.8-0.5-1.2-0.5c-0.4,0-0.8,0.2-1.1,0.5  c-0.3,0.5-0.4,1-0.4,1.6c0,0.5,0.1,1.1,0.4,1.5C60.9,6.4,61.3,6.6,61.8,6.6z"
   id="path176" />
<path
   class="st0"
   d="M66.7,1.8v3.5c0,0.4,0.1,0.7,0.3,1c0.3,0.2,0.6,0.3,0.9,0.3c0.5,0,0.9-0.1,1.2-0.5c0.3-0.4,0.4-1,0.4-1.5V1.8  h0.8v5.3h-0.7l-0.1-0.7l0,0c-0.2,0.3-0.4,0.5-0.7,0.6c-0.3,0.1-0.7,0.2-1,0.2c-0.5,0-1.1-0.1-1.5-0.5c-0.4-0.4-0.5-0.9-0.5-1.5V1.8  H66.7z"
   id="path178" />
<path
   class="st0"
   d="M74.3,7.2c-0.7,0-1.4-0.2-1.9-0.7c-0.5-0.5-0.7-1.3-0.7-2c0-0.7,0.2-1.5,0.6-2.1c0.4-0.5,1.1-0.8,1.7-0.8  c0.6,0,1.2,0.2,1.6,0.7c0.4,0.5,0.6,1.1,0.6,1.8v0.5h-3.7c0,0.5,0.2,1,0.5,1.4c0.3,0.3,0.8,0.5,1.3,0.5c0.6,0,1.1-0.1,1.7-0.3v0.7  c-0.3,0.1-0.5,0.2-0.8,0.3C74.9,7.2,74.6,7.2,74.3,7.2z M74.1,2.4c-0.4,0-0.7,0.1-1,0.4c-0.3,0.3-0.5,0.8-0.5,1.2h2.8  c0-0.4-0.1-0.8-0.3-1.2C74.8,2.5,74.5,2.4,74.1,2.4z"
   id="path180" />
<path
   class="st0"
   d="M81.1,5.7c0,0.5-0.2,0.9-0.6,1.2c-0.5,0.3-1,0.4-1.5,0.4c-0.6,0-1.1-0.1-1.7-0.3V6.2c0.3,0.1,0.5,0.2,0.8,0.3  c0.3,0.1,0.6,0.1,0.8,0.1c0.3,0,0.7,0,1-0.2c0.2-0.1,0.3-0.4,0.3-0.6c0-0.2-0.2-0.4-0.4-0.5c-0.3-0.2-0.6-0.4-1-0.5  c-0.4-0.1-0.7-0.3-1.1-0.5c-0.2-0.1-0.4-0.3-0.5-0.5c-0.1-0.2-0.2-0.4-0.2-0.6c0-0.4,0.2-0.8,0.5-1c0.4-0.3,0.9-0.4,1.5-0.4  c0.6,0,1.2,0.1,1.7,0.3l-0.3,0.7c-0.5-0.2-1-0.3-1.5-0.3c-0.3,0-0.6,0-0.9,0.2c-0.2,0.1-0.3,0.3-0.3,0.5c0,0.1,0,0.3,0.1,0.4  c0.1,0.1,0.2,0.2,0.3,0.3c0.3,0.2,0.6,0.3,0.9,0.4c0.5,0.1,0.9,0.4,1.3,0.7C81,5,81.1,5.3,81.1,5.7z"
   id="path182" />
<path
   class="st0"
   d="M84.1,6.6c0.1,0,0.3,0,0.4,0l0.3-0.1v0.6c-0.1,0.1-0.3,0.1-0.4,0.1c-0.2,0-0.3,0-0.5,0c-1,0-1.6-0.6-1.6-1.6  V2.4h-0.8V2l0.8-0.3l0.3-1.1h0.5v1.2h1.6v0.6h-1.6v3.2c0,0.3,0.1,0.5,0.2,0.7C83.7,6.5,83.9,6.6,84.1,6.6z"
   id="path184" />
<path
   class="st0"
   d="M89.4,5.7c0,0.5-0.2,0.9-0.6,1.2c-0.5,0.3-1,0.4-1.6,0.4c-0.6,0-1.1-0.1-1.7-0.3V6.2c0.3,0.1,0.5,0.2,0.8,0.3  c0.3,0.1,0.6,0.1,0.8,0.1c0.3,0,0.7,0,1-0.2c0.3-0.2,0.4-0.6,0.2-1c0-0.1-0.1-0.1-0.2-0.2C88,5,87.7,4.8,87.3,4.7  c-0.4-0.1-0.7-0.3-1.1-0.5c-0.2-0.1-0.4-0.3-0.5-0.5c-0.1-0.2-0.2-0.4-0.2-0.6c0-0.4,0.2-0.8,0.5-1c0.4-0.3,0.9-0.4,1.5-0.4  c0.6,0,1.1,0.1,1.7,0.3L89,2.7c-0.5-0.2-1-0.3-1.5-0.3c-0.3,0-0.6,0-0.9,0.2c-0.2,0.1-0.3,0.3-0.3,0.5c0,0.1,0,0.3,0.1,0.4  c0.1,0.1,0.2,0.2,0.3,0.3c0.2,0.1,0.5,0.2,0.9,0.4c0.5,0.1,0.9,0.4,1.3,0.7C89.3,5,89.4,5.4,89.4,5.7z"
   id="path186" />
<path
   class="st1"
   d="M24.8,210.4c-3.3,0-7.2-0.3-7.5-1.6c-0.1-0.5,0.2-0.9,0.9-1.3c1.7-0.8,3.6-1.3,5.5-1.3H24  c0.3-0.1,0.6,0.2,0.7,0.5c0.1,0.3-0.2,0.6-0.5,0.7c0,0-0.1,0-0.1,0c-0.9,0.2-1.8,0.5-2.7,0.8h0.4c1,0.1,2,0.2,3,0.1  c1.5,0,3.4-0.1,5.2-0.2c1.7-0.1,3.5-0.4,5.2-0.7h0.1c0.3-0.1,0.6,0.1,0.7,0.5c0.1,0.3-0.1,0.6-0.5,0.7c0,0,0,0,0,0  c-0.5,0.2-1,0.5-1.5,0.8l-0.2,0.1C30.9,210.2,27.9,210.5,24.8,210.4L24.8,210.4z"
   id="path188" />
<path
   class="st1"
   d="M23.7,206.8H24c-0.1,0-6.3,1.5-2.3,2c1,0.1,2.1,0.2,3.1,0.1c1.6,0,3.5-0.1,5.3-0.2c2.6-0.2,5.2-0.7,5.2-0.7  c-0.5,0.2-1.1,0.5-1.6,0.8c-3,0.7-6,1-9,0.9c-4.7,0-8.5-0.7-6.3-1.8C20.1,207.2,21.9,206.8,23.7,206.8 M23.7,205.5  c-2,0.1-3.9,0.6-5.7,1.5c-1.3,0.7-1.4,1.5-1.2,2s0.5,2,8.1,2c3.1,0,6.2-0.3,9.3-1c0.1,0,0.2-0.1,0.3-0.1c0.5-0.3,0.9-0.5,1.4-0.7  c0.6-0.3,0.9-1,0.6-1.5c-0.2-0.4-0.6-0.7-1.1-0.7h-0.2c0,0-2.6,0.4-5.1,0.7c-1.8,0.1-3.6,0.2-5.2,0.2h-0.2c0.6-0.3,0.7-1,0.4-1.6  c-0.2-0.3-0.5-0.6-0.9-0.6L23.7,205.5z"
   id="path190" />
<path
   class="st1"
   d="M27.3,218c-2.9,0-6-0.7-6.1-2.1c-0.1-0.8,0.6-1.4,2.1-1.9h0.2c0.3,0,0.6,0.2,0.6,0.6c0,0,0,0,0,0  c0,0.1,0,0.3-0.1,0.4c0.2,0,0.4,0.1,0.5,0.1c0.9,0.1,1.9,0.2,2.8,0.2c1.4,0,2.8-0.2,4.2-0.5h0.1c0.1,0,0.2,0,0.3,0.1  c0.6,0.3,1.2,0.6,1.8,0.8c0.3,0.1,0.4,0.5,0.3,0.8c-0.1,0.2-0.2,0.3-0.3,0.3C31.6,217.6,29.5,218,27.3,218z"
   id="path192" />
<path
   class="st1"
   d="M23.4,214.5L23.4,214.5 M23.4,214.5c0,0-1.3,0.8,0.9,1.1c1,0.1,1.9,0.2,2.9,0.2c1.5,0,2.9-0.2,4.3-0.5  c0.6,0.4,1.3,0.7,1.9,0.9c-2,0.8-4.1,1.2-6.2,1.2C22.7,217.4,19.6,215.6,23.4,214.5L23.4,214.5 M23.4,213.3L23.4,213.3  c-0.1,0-0.2,0-0.4,0c-2.2,0.6-2.6,1.7-2.5,2.5c0.3,2.1,4.4,2.7,6.7,2.7c2.3,0,4.5-0.4,6.6-1.3c0.6-0.2,0.9-0.9,0.7-1.5  c-0.1-0.3-0.4-0.6-0.7-0.7c-0.6-0.2-1.2-0.5-1.7-0.8c-0.2-0.1-0.4-0.2-0.6-0.2h-0.2c-1.3,0.3-2.7,0.5-4.1,0.5c-0.9,0-1.8,0-2.7-0.1  C24.5,213.9,24,213.4,23.4,213.3L23.4,213.3z"
   id="path194" />
<path
   class="st1"
   d="M24,207.4c-0.3,0-0.6-0.3-0.6-0.6c0-0.3,0.2-0.5,0.5-0.6H24c0.3,0,0.6,0.3,0.6,0.6c0,0.1,0,0.2-0.1,0.3  C24.4,207.3,24.2,207.4,24,207.4z"
   id="path196" />
<path
   class="st1"
   d="M24,206.8L24,206.8 M24,205.6h-0.3c-0.6,0.1-1.1,0.7-1,1.3s0.7,1.1,1.3,1c0.6-0.1,1.1-0.7,1-1.3c0,0,0,0,0,0  C25,206.1,24.5,205.7,24,205.6z"
   id="path198" />
<path
   class="st1"
   d="M22.5,211.4c-0.3,0-0.6-0.2-0.6-0.6c0-0.3,0.2-0.6,0.6-0.6c0.3,0,0.6,0.2,0.6,0.5c0,0.1,0,0.2,0,0.2  c-0.1,0.2-0.2,0.3-0.4,0.3L22.5,211.4z"
   id="path200" />
<polyline
   class="st1"
   points="22.5,210.8 22.5,210.8 22.5,210.8 22.5,210.8 "
   id="polyline202" />
<path
   class="st1"
   d="M26.5,214.2c-1,0-6.1-0.1-6.4-1.9c-0.2-1.2,1.6-1.8,2.2-2h0.2c0.3,0,0.6,0.3,0.5,0.6c0,0.1-0.1,0.3-0.2,0.4  l-0.2,0.2c0.2,0.1,0.4,0.1,0.7,0.1c1,0.1,2.1,0.2,3.4,0.2c1.9,0,3.9-0.2,5.8-0.6h0.1c0.2,0,0.3,0.1,0.4,0.2c0.3,0.3,0.7,0.6,1.2,0.7  c0.3,0,0.6,0.3,0.6,0.6s-0.3,0.6-0.6,0.6C31.7,213.9,29.1,214.2,26.5,214.2L26.5,214.2z"
   id="path204" />
<path
   class="st1"
   d="M22.5,210.8c0,0-1.4,1.1,0.8,1.3c1.1,0.1,2.3,0.2,3.4,0.2c2,0,3.9-0.2,5.8-0.7c0.4,0.4,0.9,0.7,1.4,0.9  c-2.4,0.7-5,1.1-7.5,1.1C21.5,213.6,18.5,212.1,22.5,210.8 M22.5,209.6c-0.1,0-0.3,0-0.4,0.1c-0.7,0.2-2.9,1-2.6,2.7  c0.4,2.1,4.5,2.4,7,2.4c2.7,0,5.3-0.4,7.9-1.2c0.6-0.2,1-0.9,0.8-1.5c-0.1-0.4-0.4-0.6-0.8-0.8c-0.4-0.1-0.7-0.3-0.9-0.6  c-0.2-0.2-0.5-0.3-0.8-0.4h-0.2c-1.9,0.4-3.7,0.6-5.6,0.6c-1,0-2.1-0.1-3.1-0.2c0.1-0.6-0.3-1.2-1-1.4L22.5,209.6L22.5,209.6z"
   id="path206" />
<path
   class="st1"
   d="M26.4,221.4c-3.2,0-6.5-0.3-9.6-0.8c-0.6-0.1-2.3-0.4-2.2-1.6c0.1-1.5,3.8-2.5,5.3-2.5c0.4,0,0.8,0.1,1.2,0.3  c0.3,0.2,0.3,0.5,0.2,0.8c-0.1,0.2-0.3,0.3-0.5,0.3c-0.3,0-0.7,0.1-1,0.2c-0.5,0.1-0.9,0.2-1.4,0.4c2.7,0.7,5.6,0.9,8.4,0.8  c3.6,0.1,7.2-0.3,10.7-1c0.8-0.2,0.9-0.5,0.9-0.5c-0.2-0.2-0.3-0.5-0.1-0.8c0.1-0.2,0.3-0.3,0.5-0.3c0.1,0,0.2,0,0.2,0  c1,0.5,1,1.1,1,1.4C39.4,220.1,32.7,221.3,26.4,221.4L26.4,221.4z"
   id="path208" />
<path
   class="st1"
   d="M19.8,217.1c0.3,0,0.6,0,0.9,0.2c-0.4,0-0.8,0.1-1.2,0.2c-0.8,0.1-3.1,0.9-1.9,1.4c1.6,0.7,5.2,1,9,1  c3.6,0.1,7.3-0.2,10.9-1c2-0.6,1.2-1.4,1.2-1.4c2.7,1.2-3.2,3.4-12.2,3.4c-3.2,0-6.4-0.3-9.6-0.8C12.4,219.3,17.5,217.1,19.8,217.1   M19.8,215.9c-1.6,0-5.7,1.1-5.8,3.1c-0.1,1.2,0.8,1.9,2.7,2.2c3.2,0.5,6.5,0.8,9.8,0.8c3.1,0,6.3-0.3,9.4-0.9  c3.8-0.9,4.5-1.9,4.7-2.7c0.2-0.9-0.4-1.8-1.3-2.1c-0.6-0.3-1.3,0-1.5,0.6c-0.1,0.2-0.1,0.5-0.1,0.7l-0.3,0.1c-3.5,0.7-7,1.1-10.5,1  c-1.9,0-3.8-0.1-5.7-0.3c0.6-0.2,1-0.8,0.8-1.4c-0.1-0.3-0.2-0.5-0.4-0.6C20.8,216.1,20.3,215.9,19.8,215.9L19.8,215.9z"
   id="path210" />
<path
   class="st1"
   d="M28.2,223c-1.2,0-2.4,0-3.6-0.1c-4.1-0.2-5.1-0.9-5.3-1.1c-0.2-0.2-0.2-0.6,0-0.8c0.1-0.1,0.3-0.2,0.5-0.2l0,0  c2.3,0.3,4.7,0.5,7,0.5c2.9,0,5.8-0.2,8.7-0.7c4.1-0.8,4.8-1.7,4.8-1.7c0.1-0.2,0.3-0.4,0.5-0.3h0.2c0.3,0.1,0.5,0.4,0.4,0.6  C41.1,222.6,32.1,223,28.2,223z"
   id="path212" />
<path
   class="st1"
   d="M40.8,219.1L40.8,219.1 M40.8,219.1c-0.2,2.4-6.8,3.3-12.6,3.3c-1.2,0-2.4,0-3.5-0.1l0,0  c-4.1-0.2-4.9-0.9-4.9-0.9c2.4,0.3,4.7,0.5,7.1,0.5c2.9,0,5.9-0.2,8.8-0.7C40.3,220.3,40.8,219.2,40.8,219.1 M40.8,218h-0.2  c-0.3,0.1-0.6,0.2-0.8,0.5l0,0c-0.1,0.1-1,0.9-4.4,1.5c-2.8,0.5-5.7,0.7-8.6,0.7c-2.3,0-4.6-0.1-6.9-0.4h-0.1  c-0.6,0-1.2,0.5-1.2,1.1c0,0.3,0.1,0.7,0.4,0.9c0.3,0.3,1.5,1,5.6,1.2c1.2,0.1,2.3,0.1,3.6,0.1c5,0,13.3-0.6,13.7-4.3  c0.1-0.6-0.3-1.2-0.9-1.4C41,218,40.9,218,40.8,218L40.8,218z"
   id="path214" />
<path
   class="st1"
   d="M35.3,213.9c-0.3,0-0.6-0.3-0.6-0.6c0,0,0,0,0,0c0-0.1,0-0.3,0.1-0.4c0.1-0.1,0.2-0.2,0.3-0.3  c2.5-1.3,3.9-2.8,3.6-4c-0.2-0.7-0.8-1.2-1.6-1.2h-0.3c-0.2,0-0.4,0.1-0.6,0.2c-0.1,0-0.2,0-0.2,0c-0.3,0-0.6-0.3-0.6-0.6  c0,0,0,0,0,0c0-0.1,0-0.2,0.1-0.2c0.2-0.4,0.5-0.6,0.9-0.8c0.5-0.2,1-0.3,1.5-0.3c1.7-0.1,3.2,1.1,3.4,2.8c0.1,0.9,0,3.8-5.9,5.3  L35.3,213.9z"
   id="path216" />
<path
   class="st1"
   d="M37.9,206.5c3.4,0,5.1,4.8-2.6,6.9c0-0.1,0.1-0.1,0.1-0.2l0,0c6.2-3.2,3.8-6.3,1.8-6.3h-0.4  c-0.3,0-0.5,0.1-0.8,0.2c0.1-0.2,0.3-0.4,0.6-0.5C37,206.5,37.5,206.4,37.9,206.5 M37.9,205.2L37.9,205.2c-0.6,0-1.1,0.1-1.7,0.3  c-0.5,0.2-1,0.5-1.3,1c-0.3,0.6,0,1.3,0.5,1.6c0.3,0.2,0.7,0.2,1,0l0,0c0.1-0.1,0.3-0.1,0.4-0.2h0.1c0.4,0,0.8,0.3,1,0.7  c0.2,0.7-0.6,1.9-3.3,3.3c-0.6,0.3-0.9,1-0.6,1.6c0,0,0,0,0,0c0.2,0.5,0.8,0.8,1.3,0.7c6.4-1.6,6.5-4.9,6.4-5.9  C41.6,206.6,39.9,205.2,37.9,205.2L37.9,205.2z"
   id="path218" />
<path
   class="st1"
   d="M38.6,218c-0.1,0-0.2,0-0.2,0h-0.1c-0.2-0.1-0.3-0.4-0.3-0.7c0.1-0.3,0.3-0.4,0.6-0.4c0.1,0,0.3,0,0.4,0.1  c0.3,0.1,0.4,0.4,0.3,0.7C39.2,218,38.9,218.1,38.6,218L38.6,218z"
   id="path220" />
<path
   class="st1"
   d="M38.6,217.4L38.6,217.4 M38.6,216.2L38.6,216.2c-0.6,0-1.2,0.5-1.2,1.1c0,0.5,0.2,0.9,0.6,1.1h0.1  c0.6,0.3,1.3,0,1.6-0.5c0.2-0.5,0.1-1-0.3-1.4C39.2,216.3,38.9,216.2,38.6,216.2L38.6,216.2z"
   id="path222" />
<path
   class="st1"
   d="M27.9,207.3c-0.1,0-0.3-0.1-0.4-0.1c-3.2-2.8-6.1-5.8-4.2-8.8c1-1.3,2.2-2.4,3.5-3.3c2.5-2,4.9-3.8,4-7.3  c-0.1-0.3,0.1-0.6,0.4-0.7c0,0,0,0,0,0c0.2-0.1,0.4,0,0.5,0.2c0.8,0.9,1.2,2.1,1.1,3.3c-0.1,2.2-1.7,4.5-4.6,6.8  c-3.9,3.1-2.6,5-1.1,7.2c0.5,0.6,0.9,1.3,1.2,2.1c0.1,0.3,0,0.6-0.3,0.8C28.2,207.3,28.1,207.3,27.9,207.3L27.9,207.3z"
   id="path224" />
<path
   class="st1"
   d="M31.4,187.6c0,0,3.6,3.7-3.5,9.2c-5.6,4.5-1.3,7,0,10c-3.3-3-5.7-5.6-4.1-8C26.3,195.2,32.8,193.4,31.4,187.6   M31.4,186.5c-0.6,0-1.2,0.5-1.2,1.1c0,0,0,0,0,0c0,0.1,0,0.2,0,0.3c0.7,2.9-0.9,4.5-3.8,6.7c-1.4,1-2.6,2.2-3.6,3.5  c-2.3,3.6,1.6,7.2,4.3,9.6c0.4,0.5,1.1,0.7,1.6,0.3c0.5-0.4,0.7-1.1,0.3-1.6l0,0l0,0c-0.4-0.8-0.8-1.5-1.3-2.1  c-1.5-2.2-2.5-3.6,1-6.4c3-2.3,4.7-4.8,4.8-7.2c0.1-1.4-0.4-2.8-1.3-3.8C32,186.6,31.8,186.4,31.4,186.5L31.4,186.5z"
   id="path226" />
<path
   class="st1"
   d="M29.1,208.6c-0.3,0-0.6-0.3-0.6-0.6c0-0.2,0.1-0.3,0.2-0.5l0,0c0.5-0.4,0.8-1,0.9-1.6c0-0.5-0.2-0.9-0.5-1.3  c-1.5-1.7-2-3.4-1.5-5c1.2-3.8,7.7-5.4,8-5.5h0.1c0.3,0,0.6,0.3,0.6,0.6c0,0.2-0.1,0.4-0.3,0.5c-3.5,2-5.2,3.5-5.5,4.6  c-0.2,0.7,0.3,1.4,1,2.5l0.2,0.4c0.5,0.7,0.7,1.6,0.6,2.4c-0.5,2-3,3.3-3.1,3.3C29.2,208.5,29.2,208.5,29.1,208.6z"
   id="path228" />
<path
   class="st1"
   d="M35.8,194.8L35.8,194.8 M35.8,194.8c-7.6,4.4-6.2,5.7-4.4,8.3c2,2.7-2.3,4.9-2.3,4.9s2.1-1.7,0.5-3.7  C23.9,197.7,35.8,194.8,35.8,194.8 M35.8,193.6h-0.3c-0.9,0.2-7.2,1.9-8.4,5.8c-0.6,1.8,0,3.7,1.6,5.6c0.2,0.2,0.4,0.5,0.4,0.8  c-0.1,0.5-0.3,0.9-0.7,1.2c-0.5,0.3-0.7,1.1-0.4,1.6c0.2,0.4,0.7,0.6,1.1,0.5c0.2,0,0.4,0,0.5-0.1c0.3-0.1,2.9-1.5,3.4-3.7  c0.2-1,0-2.1-0.6-2.9l-0.2-0.3c-0.7-1-1.1-1.6-1-2c0.2-0.9,1.9-2.3,5.2-4.2c0.6-0.3,0.8-1,0.5-1.6C36.6,193.9,36.2,193.6,35.8,193.6  L35.8,193.6z"
   id="path230" />
<path
   class="st21"
   d="M23.4,214.5c0,0-1.3,0.8,0.9,1.1c2.4,0.4,4.9,0.3,7.2-0.3c0.6,0.4,1.3,0.7,1.9,0.9  C26.6,219.1,18,216.1,23.4,214.5z M22.5,210.8c0,0-1.5,1.1,0.8,1.3c3.1,0.4,6.3,0.2,9.4-0.5c0.4,0.4,0.9,0.7,1.4,0.9  C25.9,214.9,16.7,212.7,22.5,210.8L22.5,210.8z M38.6,217.4c0,0,1,0.8-1.1,1.5c-3.9,1.2-16.4,1.5-19.9,0c-1.2-0.5,1.1-1.3,1.9-1.4  c0.4-0.1,0.8-0.1,1.2-0.2c-1.4-0.9-8.9,1.9-3.9,2.7C30.7,222.3,42.2,219,38.6,217.4L38.6,217.4z M24,206.8c0,0-6.3,1.5-2.3,2  c2.8,0.2,5.6,0.2,8.4,0c2.6-0.2,5.2-0.7,5.2-0.7c-0.5,0.2-1.1,0.5-1.6,0.8c-6.5,1.7-18.9,0.9-15.3-0.8  C20.2,207.3,22.1,206.8,24,206.8L24,206.8z M35.4,213.1c6.5-3.4,3.5-6.6,1.4-6.2c-0.3,0-0.5,0.1-0.8,0.2c0.1-0.2,0.3-0.4,0.6-0.5  c4.1-1.5,7.4,4.4-1.3,6.6C35.3,213.3,35.3,213.2,35.4,213.1L35.4,213.1z M24.7,222.3c6.3,0.4,15.9-0.2,16.1-3.2c0,0-0.5,1.2-5.2,2  c-5.3,0.9-10.6,1-15.9,0.2C19.7,221.4,20.5,222.1,24.7,222.3L24.7,222.3z"
   id="path232" />
<path
   class="st22"
   d="M31.4,187.6c0,0,3.6,3.7-3.5,9.2c-5.6,4.5-1.3,7,0,10c-3.3-3-5.7-5.6-4.1-8C26.3,195.1,32.9,193.4,31.4,187.6z   M29.6,204.3c1.7,1.9-0.5,3.7-0.5,3.7s4.3-2.2,2.3-4.9c-1.8-2.6-3.2-3.9,4.4-8.3C35.8,194.8,23.9,197.7,29.6,204.3z"
   id="path234" />
<path
   class="st1"
   d="M104.8,210.4c-3.3,0-7.2-0.3-7.5-1.6c-0.1-0.5,0.2-0.9,0.9-1.3c1.7-0.8,3.6-1.3,5.5-1.3h0.3  c0.3-0.1,0.6,0.2,0.7,0.5c0.1,0.3-0.2,0.6-0.5,0.7c0,0-0.1,0-0.1,0c-0.9,0.2-1.8,0.5-2.7,0.8h0.3c1,0.1,2,0.2,3,0.1  c1.6,0,3.4-0.1,5.2-0.2c1.7-0.1,3.5-0.4,5.2-0.7h0.1c0.3-0.1,0.6,0.1,0.7,0.5c0.1,0.3-0.1,0.6-0.5,0.7c0,0,0,0,0,0  c-0.5,0.2-1,0.5-1.5,0.8l-0.2,0.1C110.9,210.2,107.9,210.5,104.8,210.4L104.8,210.4z"
   id="path236" />
<path
   class="st1"
   d="M103.7,206.8h0.3c-0.1,0-6.3,1.5-2.3,2c1,0.1,2.1,0.2,3.1,0.1c1.6,0,3.5-0.1,5.3-0.2c2.6-0.2,5.2-0.7,5.2-0.7  c-0.5,0.2-1.1,0.5-1.6,0.8c-3,0.7-6,1-9,0.9c-4.7,0-8.5-0.7-6.3-1.8C100.1,207.2,101.9,206.8,103.7,206.8 M103.7,205.5  c-2,0.1-3.9,0.6-5.7,1.5c-1.3,0.7-1.3,1.5-1.2,2s0.5,2,8.1,2c3.1,0,6.2-0.3,9.3-1c0.1,0,0.2-0.1,0.3-0.1c0.5-0.3,0.9-0.5,1.4-0.7  c0.6-0.3,0.9-1,0.6-1.5c-0.2-0.4-0.6-0.7-1.1-0.7h-0.2c0,0-2.6,0.4-5.1,0.7c-1.8,0.1-3.6,0.2-5.2,0.2h-0.2c0.6-0.3,0.7-1,0.4-1.6  c-0.2-0.3-0.5-0.6-0.9-0.6L103.7,205.5z"
   id="path238" />
<path
   class="st1"
   d="M107.3,218c-2.9,0-6-0.7-6.2-2.1c-0.1-0.8,0.6-1.4,2.1-1.9h0.2c0.3,0,0.6,0.2,0.6,0.6c0,0,0,0,0,0  c0,0.1,0,0.3-0.1,0.4c0.2,0,0.4,0.1,0.6,0.1c0.9,0.1,1.9,0.2,2.8,0.2c1.4,0,2.8-0.2,4.2-0.5h0.1c0.1,0,0.2,0,0.3,0.1  c0.6,0.3,1.2,0.6,1.8,0.8c0.3,0.1,0.4,0.5,0.3,0.8c-0.1,0.2-0.2,0.3-0.3,0.3C111.6,217.6,109.5,218,107.3,218z"
   id="path240" />
<path
   class="st1"
   d="M103.4,214.5L103.4,214.5 M103.4,214.5c0,0-1.3,0.8,0.9,1.1c1,0.1,1.9,0.2,2.9,0.2c1.5,0,2.9-0.2,4.3-0.5  c0.6,0.4,1.3,0.7,1.9,0.9c-2,0.8-4.1,1.2-6.2,1.2C102.7,217.4,99.6,215.6,103.4,214.5L103.4,214.5 M103.4,213.3L103.4,213.3  c-0.1,0-0.2,0-0.3,0c-2.2,0.6-2.6,1.7-2.5,2.5c0.3,2.1,4.4,2.7,6.7,2.7c2.3,0,4.5-0.4,6.6-1.3c0.6-0.2,0.9-0.9,0.7-1.5  c-0.1-0.3-0.4-0.6-0.7-0.7c-0.6-0.2-1.2-0.5-1.7-0.8c-0.2-0.1-0.4-0.2-0.6-0.2h-0.2c-2.2,0.5-4.5,0.6-6.8,0.4  C104.5,213.9,104,213.4,103.4,213.3L103.4,213.3z"
   id="path242" />
<path
   class="st1"
   d="M104,207.4c-0.3,0.1-0.6-0.2-0.7-0.5c-0.1-0.3,0.2-0.6,0.5-0.7c0,0,0.1,0,0.1,0h0.1c0.3,0,0.6,0.3,0.6,0.6  c0,0.1,0,0.2-0.1,0.3C104.4,207.3,104.2,207.4,104,207.4z"
   id="path244" />
<path
   class="st1"
   d="M104,206.8L104,206.8 M104,205.6h-0.3c-0.6,0.1-1.1,0.7-1,1.3s0.7,1.1,1.3,1c0.6-0.1,1.1-0.7,1-1.3c0,0,0,0,0,0  C105,206.1,104.5,205.7,104,205.6z"
   id="path246" />
<path
   class="st1"
   d="M102.5,211.4c-0.3,0-0.6-0.2-0.6-0.6c0-0.3,0.2-0.6,0.6-0.6c0.3,0,0.6,0.2,0.6,0.5c0,0.1,0,0.2,0,0.2  c-0.1,0.2-0.2,0.3-0.4,0.3L102.5,211.4z"
   id="path248" />
<polyline
   class="st1"
   points="102.5,210.8 102.5,210.8 102.5,210.8 102.5,210.8 "
   id="polyline250" />
<path
   class="st1"
   d="M106.5,214.2c-1,0-6.1-0.1-6.4-1.9c-0.2-1.2,1.6-1.8,2.2-2h0.2c0.3,0,0.6,0.3,0.5,0.6c0,0.1-0.1,0.3-0.2,0.4  l-0.2,0.2c0.2,0.1,0.4,0.1,0.7,0.1c1,0.1,2.1,0.2,3.4,0.2c1.9,0,3.9-0.2,5.8-0.6h0.1c0.2,0,0.3,0.1,0.4,0.2c0.3,0.3,0.7,0.6,1.2,0.7  c0.3,0,0.6,0.3,0.6,0.6s-0.3,0.6-0.6,0.6C111.7,213.9,109.1,214.2,106.5,214.2L106.5,214.2z"
   id="path252" />
<path
   class="st1"
   d="M102.5,210.8c0,0-1.4,1.1,0.8,1.3c1.1,0.1,2.3,0.2,3.4,0.2c2,0,3.9-0.2,5.8-0.7c0.4,0.4,0.9,0.7,1.4,0.9  c-2.4,0.7-5,1.1-7.5,1.1C101.5,213.6,98.5,212.1,102.5,210.8 M102.5,209.6c-0.1,0-0.3,0-0.4,0.1c-0.7,0.2-2.9,1-2.6,2.7  c0.3,2.1,4.5,2.4,7,2.4c2.7,0,5.3-0.4,7.9-1.2c0.6-0.2,1-0.9,0.8-1.5c-0.1-0.4-0.4-0.6-0.8-0.8c-0.4-0.1-0.7-0.3-0.9-0.6  c-0.2-0.2-0.5-0.3-0.8-0.4h-0.2c-1.9,0.4-3.7,0.6-5.7,0.6c-1,0-2.1-0.1-3.1-0.2c0.1-0.6-0.3-1.3-1-1.4c0,0,0,0,0,0h-0.2L102.5,209.6  z"
   id="path254" />
<path
   class="st1"
   d="M106.4,221.4c-3.2,0-6.5-0.3-9.7-0.8c-0.6-0.1-2.3-0.4-2.2-1.6c0.1-1.5,3.8-2.5,5.3-2.5c0.4,0,0.8,0.1,1.2,0.3  c0.3,0.2,0.3,0.5,0.2,0.8c-0.1,0.2-0.3,0.3-0.5,0.3c-0.3,0-0.7,0.1-1,0.2c-0.5,0.1-0.9,0.2-1.4,0.4c2.7,0.7,5.6,0.9,8.4,0.8  c3.6,0.1,7.2-0.3,10.7-1c0.8-0.2,0.9-0.5,0.9-0.5c-0.2-0.2-0.3-0.5-0.1-0.8c0.1-0.2,0.3-0.3,0.5-0.3c0.1,0,0.2,0,0.2,0  c1,0.5,1,1.1,1,1.4C119.4,220.1,112.7,221.3,106.4,221.4L106.4,221.4z"
   id="path256" />
<path
   class="st1"
   d="M99.8,217.1c0.3,0,0.6,0,0.8,0.2c-0.4,0-0.8,0.1-1.2,0.2c-0.8,0.1-3.1,0.9-1.9,1.4c1.6,0.7,5.2,1,9,1  c3.6,0.1,7.3-0.2,10.9-1c1.9-0.6,1.2-1.4,1.2-1.4c2.7,1.2-3.2,3.4-12.2,3.4c-3.2,0-6.4-0.3-9.6-0.8  C92.4,219.3,97.5,217.1,99.8,217.1 M99.8,215.9c-1.6,0-5.7,1.1-5.8,3.1c-0.1,1.2,0.8,1.9,2.7,2.2c3.2,0.5,6.5,0.8,9.8,0.8  c3.1,0,6.3-0.3,9.3-0.9c3.8-0.9,4.5-1.9,4.7-2.7c0.2-0.9-0.4-1.8-1.3-2.1c-0.6-0.3-1.3,0-1.6,0.6c-0.1,0.2-0.1,0.5-0.1,0.7l-0.3,0.1  c-3.5,0.7-7,1.1-10.5,1c-1.9,0-3.8-0.1-5.7-0.3c0.6-0.2,1-0.8,0.8-1.4c-0.1-0.3-0.2-0.5-0.4-0.6C100.8,216.1,100.3,215.9,99.8,215.9  L99.8,215.9z"
   id="path258" />
<path
   class="st1"
   d="M108.2,223c-1.2,0-2.4,0-3.6-0.1c-4.1-0.2-5.1-0.9-5.3-1.1c-0.2-0.2-0.2-0.6,0-0.8c0.1-0.1,0.3-0.2,0.5-0.2l0,0  c2.3,0.3,4.7,0.5,7,0.5c2.9,0,5.8-0.2,8.7-0.7c4.1-0.8,4.8-1.7,4.8-1.7c0.1-0.2,0.3-0.4,0.5-0.3h0.2c0.3,0.1,0.5,0.4,0.4,0.6  C121.1,222.6,112.1,223,108.2,223z"
   id="path260" />
<path
   class="st1"
   d="M120.8,219.1L120.8,219.1 M120.8,219.1c-0.2,2.4-6.8,3.3-12.6,3.3c-1.2,0-2.4,0-3.5-0.1l0,0  c-4.1-0.2-4.9-0.9-4.9-0.9c2.4,0.3,4.7,0.5,7.1,0.5c2.9,0,5.9-0.2,8.8-0.7C120.3,220.3,120.8,219.2,120.8,219.1 M120.8,218h-0.2  c-0.3,0.1-0.6,0.2-0.8,0.5l0,0c-0.1,0.1-1,0.9-4.4,1.5c-2.8,0.5-5.7,0.7-8.6,0.7c-2.3,0-4.6-0.1-6.9-0.4h-0.2  c-0.6,0-1.2,0.5-1.2,1.1c0,0.3,0.1,0.7,0.4,0.9c0.3,0.3,1.6,1,5.6,1.2c1.2,0.1,2.3,0.1,3.6,0.1c5,0,13.3-0.6,13.7-4.3  c0.1-0.6-0.3-1.2-0.9-1.4C121,218,120.9,218,120.8,218L120.8,218z"
   id="path262" />
<path
   class="st1"
   d="M115.3,213.9c-0.3,0-0.6-0.3-0.6-0.6c0,0,0,0,0,0c0-0.1,0-0.3,0.1-0.4c0.1-0.1,0.2-0.2,0.3-0.3  c2.6-1.3,3.9-2.8,3.6-4c-0.2-0.7-0.8-1.2-1.6-1.2h-0.3c-0.2,0-0.4,0.1-0.6,0.2c-0.1,0-0.2,0-0.2,0c-0.3,0-0.6-0.3-0.6-0.6  c0,0,0,0,0,0c0-0.1,0-0.2,0.1-0.2c0.2-0.4,0.5-0.6,0.9-0.8c0.5-0.2,1-0.3,1.5-0.3c1.7-0.1,3.2,1.1,3.4,2.8c0.1,0.9,0,3.8-5.9,5.3  L115.3,213.9z"
   id="path264" />
<path
   class="st1"
   d="M117.9,206.5c3.4,0,5.1,4.8-2.6,6.9c0-0.1,0.1-0.1,0.1-0.2l0,0c6.2-3.2,3.8-6.3,1.8-6.3h-0.4  c-0.3,0-0.5,0.1-0.8,0.2c0.1-0.2,0.3-0.4,0.6-0.5C117,206.5,117.5,206.4,117.9,206.5 M117.9,205.2L117.9,205.2  c-0.6,0-1.1,0.1-1.7,0.3c-0.5,0.2-1,0.5-1.3,1.1c-0.3,0.6,0,1.3,0.5,1.6c0.3,0.2,0.7,0.2,1,0l0,0c0.1-0.1,0.3-0.1,0.5-0.2h0.1  c0.4,0,0.8,0.3,1,0.7c0.2,0.7-0.6,1.9-3.3,3.3c-0.6,0.3-0.9,1-0.6,1.6c0,0,0,0,0,0c0.2,0.5,0.8,0.8,1.3,0.7c6.4-1.6,6.5-4.9,6.4-5.9  C121.6,206.6,119.9,205.2,117.9,205.2L117.9,205.2z"
   id="path266" />
<path
   class="st1"
   d="M118.6,218c-0.1,0-0.2,0-0.2,0h-0.1c-0.2-0.1-0.3-0.4-0.3-0.7c0.1-0.3,0.3-0.4,0.6-0.4c0.1,0,0.3,0,0.4,0.1  c0.3,0.1,0.4,0.4,0.3,0.7C119.2,218,118.9,218.1,118.6,218L118.6,218z"
   id="path268" />
<path
   class="st1"
   d="M118.6,217.4L118.6,217.4 M118.6,216.2L118.6,216.2c-0.6,0-1.2,0.5-1.2,1.1c0,0.5,0.2,0.9,0.6,1.1h0.1  c0.6,0.3,1.3,0,1.6-0.5c0.2-0.5,0.1-1-0.3-1.4C119.2,216.3,118.9,216.2,118.6,216.2L118.6,216.2z"
   id="path270" />
<path
   class="st1"
   d="M107.9,207.3c-0.1,0-0.3-0.1-0.4-0.1c-3.2-2.8-6.1-5.8-4.2-8.8c1-1.3,2.2-2.4,3.5-3.3c2.5-2,4.8-3.8,4-7.3  c-0.1-0.3,0.1-0.6,0.4-0.7c0,0,0,0,0,0c0.2-0.1,0.4,0,0.6,0.2c0.8,0.9,1.2,2.1,1.1,3.3c-0.1,2.2-1.7,4.5-4.6,6.8  c-3.9,3.1-2.6,5-1.1,7.2c0.5,0.6,0.9,1.3,1.2,2.1c0.1,0.3,0,0.6-0.3,0.8C108.2,207.3,108.1,207.3,107.9,207.3L107.9,207.3z"
   id="path272" />
<path
   class="st1"
   d="M111.4,187.6c0,0,3.6,3.7-3.5,9.2c-5.7,4.5-1.3,7,0,10c-3.3-3-5.7-5.6-4.1-8  C106.3,195.2,112.8,193.4,111.4,187.6 M111.4,186.5c-0.6,0-1.2,0.5-1.2,1.1c0,0,0,0,0,0c0,0.1,0,0.2,0,0.3c0.7,2.9-0.9,4.5-3.8,6.7  c-1.4,1-2.6,2.2-3.6,3.5c-2.3,3.6,1.6,7.2,4.3,9.6c0.4,0.5,1.1,0.7,1.6,0.3c0.5-0.4,0.7-1.1,0.3-1.6l0,0l0,0  c-0.4-0.8-0.8-1.5-1.3-2.1c-1.5-2.2-2.6-3.6,1-6.4c3-2.3,4.7-4.8,4.8-7.2c0.1-1.4-0.4-2.8-1.3-3.8  C112,186.6,111.8,186.4,111.4,186.5L111.4,186.5z"
   id="path274" />
<path
   class="st1"
   d="M109.1,208.6c-0.3,0-0.6-0.3-0.6-0.6c0-0.2,0.1-0.3,0.2-0.5l0,0c0.5-0.4,0.8-1,0.9-1.6c0-0.5-0.2-0.9-0.5-1.3  c-1.5-1.7-2-3.4-1.5-5c1.2-3.8,7.8-5.4,8-5.5h0.1c0.3,0,0.6,0.3,0.6,0.6c0,0.2-0.1,0.4-0.3,0.5c-3.5,2-5.2,3.5-5.5,4.6  c-0.2,0.7,0.3,1.4,1,2.5l0.2,0.4c0.5,0.7,0.7,1.6,0.6,2.4c-0.5,2-3,3.3-3.1,3.3C109.2,208.5,109.2,208.5,109.1,208.6z"
   id="path276" />
<path
   class="st1"
   d="M115.8,194.8L115.8,194.8 M115.8,194.8c-7.6,4.4-6.2,5.7-4.4,8.3c2,2.7-2.3,4.9-2.3,4.9s2.2-1.7,0.5-3.7  C103.9,197.7,115.8,194.8,115.8,194.8 M115.8,193.6h-0.3c-0.9,0.2-7.2,1.9-8.4,5.8c-0.6,1.8,0,3.7,1.6,5.6c0.2,0.2,0.4,0.5,0.4,0.8  c-0.1,0.5-0.3,0.9-0.7,1.2c-0.5,0.3-0.7,1.1-0.4,1.6c0.2,0.4,0.7,0.6,1.1,0.5c0.2,0,0.4,0,0.5-0.1c0.3-0.1,2.9-1.5,3.4-3.7  c0.2-1,0-2.1-0.6-2.9l-0.2-0.3c-0.7-1-1.1-1.6-1-2c0.2-0.9,1.9-2.3,5.2-4.2c0.6-0.3,0.8-1,0.5-1.6  C116.6,193.9,116.2,193.6,115.8,193.6L115.8,193.6z"
   id="path278" />
<path
   class="st21"
   d="M103.4,214.5c0,0-1.3,0.8,0.9,1.1c2.4,0.4,4.9,0.3,7.2-0.3c0.6,0.4,1.3,0.7,1.9,0.9  C106.6,219.1,98,216.1,103.4,214.5z M102.5,210.8c0,0-1.5,1.1,0.8,1.3c3.1,0.4,6.3,0.2,9.3-0.5c0.4,0.4,0.9,0.7,1.4,0.9  C105.9,214.9,96.7,212.7,102.5,210.8L102.5,210.8z M118.6,217.4c0,0,1,0.8-1.1,1.5c-3.9,1.2-16.4,1.5-19.9,0  c-1.2-0.5,1.1-1.3,1.9-1.4c0.4-0.1,0.8-0.1,1.2-0.2c-1.3-0.9-8.9,1.9-3.8,2.7C110.7,222.3,122.2,219,118.6,217.4L118.6,217.4z   M104,206.8c0,0-6.3,1.5-2.3,2c2.8,0.2,5.6,0.2,8.4,0c2.6-0.2,5.2-0.7,5.2-0.7c-0.5,0.2-1.1,0.5-1.6,0.8c-6.5,1.7-18.9,0.9-15.3-0.8  C100.2,207.3,102.1,206.8,104,206.8L104,206.8z M115.4,213.1c6.5-3.4,3.5-6.6,1.4-6.2c-0.3,0-0.5,0.1-0.8,0.2  c0.1-0.2,0.3-0.4,0.6-0.5c4.1-1.5,7.4,4.4-1.3,6.6C115.3,213.3,115.3,213.2,115.4,213.1L115.4,213.1z M104.7,222.3  c6.3,0.4,15.9-0.2,16.1-3.2c0,0-0.5,1.2-5.2,2c-5.3,0.9-10.6,1-15.9,0.2C99.7,221.4,100.5,222.1,104.7,222.3L104.7,222.3z"
   id="path280" />
<path
   class="st22"
   d="M111.4,187.6c0,0,3.6,3.7-3.5,9.2c-5.7,4.5-1.3,7,0,10c-3.3-3-5.7-5.6-4.1-8  C106.3,195.1,112.9,193.4,111.4,187.6z M109.6,204.3c1.7,1.9-0.5,3.7-0.5,3.7s4.3-2.2,2.3-4.9c-1.8-2.6-3.2-3.9,4.4-8.3  C115.8,194.8,103.9,197.7,109.6,204.3z"
   id="path282" />
<text
   xml:space="preserve"
   style="font-size:12px;line-height:1.25;font-family:sans-serif;letter-spacing:0px;word-spacing:0px"
   x="49.857548"
   y="118.8343"
   id="text1116"><tspan
     sodipodi:role="line"
     id="tspan1114"
     x="49.857548"
     y="118.8343"
     style="font-style:normal;font-variant:normal;font-weight:normal;font-stretch:normal;font-size:9.33333px;font-family:sans-serif;-inkscape-font-specification:'sans-serif, Normal';font-variant-ligatures:normal;font-variant-caps:normal;font-variant-numeric:normal;font-variant-east-asian:normal">Primary</tspan></text></svg>
