<svg id="a8c376f1-ef4d-4052-8942-b43f403fe0a4" data-name="Слой 1" xmlns="http://www.w3.org/2000/svg" xmlns:xlink="http://www.w3.org/1999/xlink" width="87" height="75" viewBox="0 0 87 75"><defs><clipPath id="8e8f0118-ec20-4c18-bf04-69a4a43bea69"><path d="M49.39,60.68h0a2,2,0,0,0-.85-.53l-3.28-1.51c-.94-.43-.94-.46-1.83.17l-1.47,1,5.21,2.39.27,2.86-2.34,1.66-2.6-1.2-.27-2.86-2.34,1.66.17,1.8c.1,1.08.12,1.07,1.06,1.5l3.28,1.51c.94.43.95.46,1.83-.17l2.95-2.09c.85-.6.87-.59.77-1.67l-.33-3.59A1.84,1.84,0,0,0,49.39,60.68Z" fill="none"/></clipPath></defs><title>jenkins-icon</title><polygon points="52.87 15.41 21.83 15.41 6.31 38.23 21.83 61.06 52.87 61.06 68.39 38.23 52.87 15.41" fill="#5cd1ff"/><polygon points="65.17 15.41 34.13 15.41 18.61 38.23 34.13 61.06 65.17 61.06 80.69 38.23 65.17 15.41" fill="#5cd1ff"/><path d="M47.21,61.43H15.77L0,38.24,15.77,15H47.21l.11.16L63,38.24l-.14.21Zm-31-.74H46.82L62.08,38.24,46.82,15.79H16.17L.9,38.24Z"/><path d="M71.23,61.43H39.79L24,38.24,39.79,15H71.23l.11.16L87,38.24l-.14.21Zm-31-.74H70.83L86.1,38.24,70.83,15.79H40.18L24.92,38.24Z"/><path d="M3.64,38.24" fill="#00a3fe" stroke="#000" stroke-width="0.75"/><polygon points="58.73 15.41 27.69 15.41 12.16 38.23 27.69 61.06 58.73 61.06 74.25 38.23 58.73 15.41" fill="#00a3fe"/><path d="M58.92,61.43H27.49L11.72,38.24,27.49,15H58.92l.11.16,15.66,23-.14.21Zm-31-.74H58.53L73.8,38.24,58.53,15.79H27.88L12.61,38.24Z"/><path d="M54.75,36.29l-4,.6-5.41.6-3.51.1-3.41-.1-2.61-.8-2.3-2.51-1.8-5.11-.4-1.1-2.4-.8-1.41-2.3-1-3.31,1.1-2.91,2.61-.9,2.1,1,1,2.2,1.2-.2.4-.5-.4-2.3-.1-2.91.6-4,0-2.29,1.83-2.92L40,3.56l5.61-2.43,6.21.9,5.41,3.91,2.51,4,1.6,2.91.4,7.21-1.2,6.21-2.2,5.51-2.1,2.91" fill="#f0d6b7"/><path d="M51.35,53.63,37,54.23v2.4L38.22,65l-.6.7-10-3.41-.7-1.2-1-11.32L23.6,43l-.5-1.6,8-5.51,2.51-1,2.2,2.7,1.9,1.7,2.2.7,1,.3,1.2,5.21.9,1.1,2.3-.8-1.6,3.11L52.45,53l-1.1.6" fill="#0072d1"/><path d="M27.6,18.66l2.61-.9,2.1,1,1,2.2,1.2-.2.3-1.2-.6-2.3.6-5.51-.5-3,1.8-2.1L40,3.53,38.93,2l-5.51,2.7-2.3,1.8-1.3,2.81-2,2.7-.6,3.21.4,3.41" fill="#6d6b6d"/><path d="M31.71,9.24s1.5-3.71,7.51-5.51.3-1.3.3-1.3L33,4.94,30.5,7.45l-1.1,2,2.3-.2m-3,8.71s-2.1-7,5.91-8l-.3-1.2L28.81,10l-1.6,5.21.4,3.41,1.1-.7" fill="#dcd9d8"/><path d="M31.91,27.28,33.22,26a.84.84,0,0,0,.69.77c.1.7.4,7,4.69,10.42.39.31-3.21-.5-3.21-.5l-3.21-5m18.13-6.32s.23-3,1.05-2.8a1.13,1.13,0,0,1,.82,1.05s-2,1.28-1.87,1.75" fill="#f7e4cd"/><path d="M58.66,14.25s-1.65.35-1.8,1.8,1.8.3,2.1.2m-12.4-1.91s-2.2.3-2.2,1.7,2.51,1.3,3.21.7" fill="#f7e4cd"/><path d="M32.91,20.86s-3.81-2.31-4.21-.1-1.3,3.81.6,6.11l-1.3-.4-1.2-3.11-.4-3,2.3-2.4,2.61.2,1.5,1.2.1,1.5m1.8-6.31S36.42,5.73,45,4c7.09-1.4,10.82.3,12.22,1.9,0,0-6.31-7.51-12.33-5.21S34.52,7.26,34.61,9.94l.1,4.61M58,6.93s-2.91-.1-3,2.51a2,2,0,0,0,.2.8S57.46,7.64,58.86,9M45.23,10.51s-.5-4-3.91-1.67c-2.2,1.5-2,3.61-1.6,4s.29,1.21.6.66.2-2.36,1.31-2.86,2.91-1.06,3.61-.13" fill="#f7e4cd"/><path d="M35.82,37.6,26.4,41.81s3.91,15.53,1.9,20.34l-1.41-.5-.1-5.91-2.6-11.2-1.1-3.11,9.84-6.61,2.91,2.81m.95,8.57,1.34,1.63v6h-1.6l-.2-4.69c0-.5.2-2.3.2-2.3m.3,7.89-4.51.2,1.3.9,3.21.5" fill="#00acff"/><path d="M52.25,53.73l3.71-.1.9,9.22-3.81.5-.8-9.62" fill="#0072d1"/><path d="M53.25,53.73l5.61-.3,2.3-6.11c0-.3,2-8.41,2-8.41l-4.51-4.71-.9-.8-2.4,2.4v9.32l-2.1,8.62" fill="#0072d1"/><path d="M55.76,53l-3.51.7.5,2.81c1.3.6,3.51-1,3.51-1m-.4-20,7,5.21.2-2.4-5.31-4.91-1.9,2.1" fill="#00acff"/><path d="M40.3,73.47,38.22,65l-1-6.21L37,54.23l9.39-.5h5.84l-.53,10.55.9,8.12-.1,1.5-7.62.6-4.61-1" fill="#fff"/><path d="M50.94,53.63s-.5,10.42,1,17.81a19.16,19.16,0,0,1-7.41,2.4l8.41-.3,1-.6-1.2-16.43L52.45,53" fill="#dcd9d8"/><path d="M57,62l3.91-1.1,7.41-.4,1.1-3.41-2-5.91-2.3-.3-3.21,1-3.08,1.5-1.63-.3-1.27.5" fill="#fff"/><path d="M57,60a14.65,14.65,0,0,1,3-1.1l-1.1-5.51,1.3-.5.9,5.81,6.11.3a9.06,9.06,0,0,0,.9-4.69l1.1,3.21.1,1.8-1.6,2.4-1.8.4-3-.1-1-1.3-3.51.5-1.1.4" fill="#dcd9d8"/><path d="M53,52.92l-2.2-5.61L48.51,44s.5-1.41,1.2-1.41H52l2.2.8L54,47.11l-1,5.81" fill="#fff"/><path d="M53.45,51s-2.8-5.41-2.8-6.21c0,0,.5-1.2,1.2-.9s2.2,1.1,2.2,1.1v-1.9l-3.41-.7-2.3.3,3.91,9.22.8.1" fill="#dcd9d8"/><path d="M41.2,37.8l-2.77-.3-2.61-.8v.9L37.09,39l4,1.8" fill="#fff"/><path d="M36.72,38.1s3.1,1.3,4.11,1l.1,1.2-2.8-.6-1.7-1.2.3-.4" fill="#0072d1"/><path d="M57,42.95a18.78,18.78,0,0,1-4.58-.63,14.62,14.62,0,0,1,.06-1.49,3.58,3.58,0,0,1,1.57-.33,2.73,2.73,0,0,0-1.74-.2,2.9,2.9,0,0,0-.29-.92c1-.34,3.21-2.58,4.48-1.84.6.35.86,2.37.91,3.34A3.38,3.38,0,0,1,57,42.95" fill="#0072d1"/><path d="M48.89,40.17v.39c-.53.35-1.39.34-2,.64a5.07,5.07,0,0,1,2.12.54l0,1A34.31,34.31,0,0,1,46,45a8,8,0,0,1-3,.92c-.33-.07-.36-.48-.49-.86a12.5,12.5,0,0,1-1-3.35c-.07-1.55-.23-4.16,1.45-3.84a15,15,0,0,1,4,1.45,4.07,4.07,0,0,0,2,.86" fill="#0072d1"/><path d="M49.85,42a5.71,5.71,0,0,1-.25-1.83c2.26-1.5,2.68,2.58.25,1.83" fill="#0072d1"/><path d="M53.12,42.71s-.7-1-.2-1.3,1,0,1.3-.5,0-.8.1-1.41.6-.7,1.1-.8,1.9-.3,2.1.2l-.6-1.8-1.2-.4-3.81,2.2-.2,1.1v2.2M42.58,46l-.39-4.69C42,39,42.75,39.4,44.77,39.4a5.45,5.45,0,0,1,2,.6c.55,1.12-.94.87.63,1.71,1.3.71,3.6-.43,3.08-2-.3-.35-1.53-.11-2-.34l-2.35-1.22c-1-.52-3.3-1.27-4.36-.55-2.69,1.83.17,6.4,1.13,8.31" fill="#00acff"/><path d="M45.24,10.51c-2.73-.63-4.09,1.14-4.92,3-.74-.18-.47-1.18-.23-1.7.47-1.35,2.46-3.13,4.07-2.89.69.11,1.63.74,1.11,1.6M58.54,13.6h.13a29,29,0,0,0,1.93,3.75c-.52,1.21-3.95,2.29-3.9.11.74-.32,2-.07,2.68-.48a7.48,7.48,0,0,1-.84-3.41m-11.9.08c.59,1.07.77,2.2,1.61,3,.37.37,1.1.81.74,1.83a2.34,2.34,0,0,1-1.05.88c-1.3.38-4.34.08-3.28-1.54,1.08,0,2.52.7,3.33-.08-.62-1-1.72-2.94-1.31-4.09M58.08,24.57c-2,1.26-4.14,2.62-7.35,2.31a2.18,2.18,0,0,1-.28-2.8c.35.6.13,1.69,1.1,1.86,1.82.31,3.94-1.11,5.25-1.61.81-1.37-.07-1.87-.8-2.76-1.5-1.8-3.51-4-3.44-6.75.6-.44.66.67.75.87a24.87,24.87,0,0,0,4.19,5.74c.35.39.94.76,1,1,.19.74-.49,1.63-.41,2.13M32.23,23.24c-.61-.35-.76-1.89-1.48-1.94-1-.06-.84,2-.84,3.21-.71-.64-.83-2.62-.31-3.64-.59-.29-.86.32-1.19.54.42-3.07,4.5-1.41,3.82,1.83M59.3,25.82c-.94,1.73-2.2,3.65-4.88,3.7a6.76,6.76,0,0,1,0-1.75c2-.2,3.31-1.24,4.87-2M46.48,26.95c1.71.9,4.84,1,7.16.93a8.14,8.14,0,0,1,.13,1.76c-3,.15-6.51-.59-7.26-2.68m-.33,1.67c1.18,3,5.24,2.62,8.66,2.54a1.83,1.83,0,0,1-.88,1c-1.1.47-4.12.79-5.64,0a7.75,7.75,0,0,1-2.11-2.35c-.23-.33-1.53-1.17,0-1.17" fill="#231f20"/><path d="M57.91,45l-4.35,6.9a33.18,33.18,0,0,0,1.09-8A2.52,2.52,0,0,1,57.91,45" fill="#00acff"/><path d="M65.36,53.52c-1.55.31-2.64,1.82-4.15,1.72.83-1.17,2.29-1.64,4.15-1.72M66,55.95a22.94,22.94,0,0,1-4,.23c.61-.93,2.95-.61,4-.23M66.49,58c-1.42,0-3.19,0-4.54-.11.8-.86,3.62-.32,4.54.11" fill="#231f20"/><path d="M55.24,63.77c.2,1.78.91,3.59.82,5.54a5.75,5.75,0,0,1-2.29.49L53.54,64c.52,0,1.28-.37,1.7-.23" fill="#dcd9d8"/><path d="M52.95,37.47c-.71.47-1.32,1-2,1.55a4.42,4.42,0,0,1-3.46-1c0-.07.13,0,.13-.12,1.63.73,3.69-.3,5.34-.45" fill="#f0d6b7"/><path d="M44.41,48.56c.45-1.94,2.2-2.94,3.79-4,1.64,2.09,2.64,4.76,3.74,7.34a38.26,38.26,0,0,1-7.52-3.34" fill="#00acff"/><path d="M53.54,64c-.07,1.58.15,4.12.23,5.78a5.83,5.83,0,0,0,2.29-.49c.09-2-.62-3.76-.82-5.54-.41-.11-1.18.29-1.7.23ZM37.16,55A83,83,0,0,0,40.7,72.41a23.06,23.06,0,0,0,12.64.23c-.66-3.19-.37-7.07-.76-10.48L52,54.43c-4.38-.91-10.58-.21-14.87.59Zm15.93-.55c0,2.74.12,5.44.33,8.19l2.74-.48c-.32-2.64-.28-5.61-.93-7.95a6.48,6.48,0,0,0-2.15.24ZM58.43,54a6.42,6.42,0,0,0-1.56,0l.94,7a6.46,6.46,0,0,0,1.77-.45c0-2.06-.18-4.89-1.17-6.6Zm8.08,7.38c1.57-.38,2.55-2.3,2.11-4.27a20.13,20.13,0,0,0-1.38-4.66c-.41-.63-1.53-1.45-2.43-.87-1.46.93-4,1.2-5.08,2.33a37.76,37.76,0,0,1,.92,6.46c1.82.11,4.06-.5,5.57.15-1.05.34-2.43.34-3.34.84a7,7,0,0,0,3.63,0ZM52,51.9c-1.1-2.58-2.1-5.26-3.74-7.34-1.59,1.07-3.34,2.07-3.79,4A38.32,38.32,0,0,0,52,51.9Zm2.71-8a33.19,33.19,0,0,1-1.09,8A60.91,60.91,0,0,0,57.94,45a2.53,2.53,0,0,0-3.27-1.1Zm-3-1.09c-.62-.07-1.15.71-2,.37l-.54.63c1.79,2.16,2.58,5.21,4,7.74.74-2.43.66-5.1.82-7.75-1,.07-1.58-.92-2.3-1Zm-2-2.61A5.81,5.81,0,0,0,49.9,42C52.33,42.79,51.9,38.7,49.65,40.2ZM47,39.32a15,15,0,0,0-4-1.45c-1.67-.32-1.52,2.28-1.45,3.84a12.37,12.37,0,0,0,1,3.35c.13.38.16.79.49.86A8,8,0,0,0,46,45c1.15-.63,2-1.64,3-2.28l0-1a5.17,5.17,0,0,0-2.12-.54,20.15,20.15,0,0,0,2-.64v-.39a4.11,4.11,0,0,1-2-.86ZM37,37.5c-.87.88,2.43,2.08,3.48,2.15,0-.56.32-1.08.25-1.48-1.25-.22-2.89-.07-3.74-.66Zm10.69.41c0,.09-.12.05-.13.12A4.41,4.41,0,0,0,51,39l2-1.55C51.36,37.62,49.29,38.64,47.66,37.91Zm9.81,3c0-1-.3-3-.91-3.34-1.27-.74-3.53,1.5-4.48,1.84a2.8,2.8,0,0,1,.29.92,2.7,2.7,0,0,1,1.74.2,3.66,3.66,0,0,0-1.57.33,13.36,13.36,0,0,0-.06,1.49,19.11,19.11,0,0,0,4.58.63A3.43,3.43,0,0,0,57.47,40.89Zm-22-2.54c-.27-.19-2.12-2.59-2.34-2.49a39.38,39.38,0,0,0-9.24,5.74c2.66,5.7,3.73,12.69,3.92,19.42,3,1.42,5.72,3.48,9.84,3.69l-1.19-9.58c-1-.44-2.53,0-3.5-.14,0-1.17,1.48-.52,1.61-1.3.09-.6-.82-.64-.52-1.58.76.28,1.16.89,2,1.11.74-1.62,0-4.48.09-5.86,0-.25.13-1.41.7-1.2s0,3.07,0,4.35-.14,2.34.34,3.06a113.56,113.56,0,0,1,12.36-1,30.73,30.73,0,0,1-3.32-1.49c-.67-.37-2.78-1.16-3-1.8-.31-1,.81-1.56,1-2.43-2,1.1-2.41-1.05-2.88-2.58a19.83,19.83,0,0,1-.78-3.21,32.68,32.68,0,0,1-5.08-2.73Zm20.19-2.2c2.78-1.35,3.28,5,2.19,7.09.17.61.75.85,1,1.4L54,52.76c1.18-.73,2.86-.13,4.22-.7.51-.2.87-1.36,1.26-2.28a49.56,49.56,0,0,0,2.65-8.2,10.44,10.44,0,0,0,.35-2.26c-.12-.88-1.32-1.54-1.93-2.11l-3-2.84c-.48.7-1.49,1.17-1.88,1.74ZM29.12,11.51c-1.32,1.46-1,4.19-.89,6.13,2.39-1.5,5.57.12,5.54,2.68,1.14,0,.43-1.43.22-2.33-.67-2.94,1.14-6.13.08-8.82a7.25,7.25,0,0,0-5,2.34Zm9.47-8.46c-3,.85-6.84,3-8.07,5.72,1-.14,1.62-.62,2.55-.7a6.19,6.19,0,0,0,1.23,0c.81-.2,1.5-2,2.12-2.71s1.32-.95,1.81-1.55c.32-.15.78-.14.8-.62A.63.63,0,0,0,38.56,3Zm15.6.8C51.08,2.1,45.81.78,42.5,2.43,39.83,3.76,36.22,6,35,8.76c1.15,2.7-.34,5.16-.44,7.9-.05,1.45.68,2.73.74,4.31-.39.65-1.59.73-2.43.68-.28-1.4-.77-3-2.21-3.14A3.35,3.35,0,0,0,27,21.75c-.11,2.08,1.59,5.52,4,5.28.93-.09,1.16-1,2.18-1,.55,1.1-.85,1.45-1,2.23a6.36,6.36,0,0,0,.21,1.37,18.66,18.66,0,0,0,2.38,5.54c1.22,1.75,3.62,2,6.21,2.19.46-1,2.16-.91,3.27-.65a11,11,0,0,1-3.59-2.93c-1.17-1.29-2.37-2.68-2.43-4.38,2.22,3.08,4.05,5.77,8.09,7.12,3.05,1,6.62-.47,9-2.12a10.32,10.32,0,0,0,2.25-2.77c2.59-3.75,3.8-9,3.53-14.2-.11-2.13-.11-4.24-.82-5.67S57,8.91,55.56,10.27c-.27-1.45,1.23-2.35,3-1.83C57.29,6.82,56,4.87,54.19,3.86Zm5.79,48c2.43-1.21,7-3.25,8.5,0A27.51,27.51,0,0,1,70,56.29c.41,1.75-.47,5.42-2.24,6a10.69,10.69,0,0,1-5.35.1,3,3,0,0,1-.65-.85,7.35,7.35,0,0,0-3.72.63c.1,1-.58,1.17-1.22,1.38-.48,1.88.95,4.34.61,6.06-.24,1.22-1.75,1.41-2.85,1.64a9.18,9.18,0,0,0,.12,1.82,2.77,2.77,0,0,1-2.46,1.59c-3.53.42-8.9.62-12.3-.61-.95-2.33-1.7-5.16-2.48-7.82-3.32.35-6-1.43-8.52-2.6-.88-.41-2.11-.63-2.41-1.33a11.91,11.91,0,0,1-.26-3.19,50.56,50.56,0,0,0-1.17-9.32c-.37-1.43-1-2.7-1.46-4.08a29.45,29.45,0,0,1-1.33-4.14c-.28-1.89,1.5-2,2.64-2.82,1.76-1.27,3.14-2,5-3.11.56-.34,2.27-1.17,2.46-1.59.38-.78-.66-1.89-.94-2.5a7.46,7.46,0,0,1-.74-2.75,5.31,5.31,0,0,1-3.55-2.28,8.73,8.73,0,0,1-1-7.56c.08-.2.47-.59.55-.89a10.42,10.42,0,0,0-.25-2c-.11-3.25.55-6,2.74-7,.89-3.52,4.07-4.71,7.06-6.47A22.27,22.27,0,0,1,39.93,1C44.5-.66,51.51-.34,55.31,2.53a20.64,20.64,0,0,1,5.1,5.65c2.43,4.91,2.26,13.12.56,19.09a19.45,19.45,0,0,1-1,2.94c-.32.67-1.32,2-1.2,2.61s2.28,2.25,2.75,2.7c.83.8,2.42,1.87,2.55,2.89a10.17,10.17,0,0,1-.79,3.6L60,51.81" fill="#231f20"/><path d="M43.77,27.73c.13-.18.86-.45,1.87,0,0,0-1.2.2-1.1,2.2l-.5-.1s-.52-1.82-.27-2.15" fill="#f7e4cd"/><path d="M52.55,45a.55.55,0,1,1-.55-.55.55.55,0,0,1,.55.55m.55,2.58a.55.55,0,1,1-.55-.55.55.55,0,0,1,.55.55" fill="#1d1919"/><polygon points="42.49 65.57 44.82 63.91 44.56 61.06 42.22 62.71 42.49 65.57 42.49 65.57" fill="#0064c8"/><polygon points="44.82 63.91 44.56 61.06 47.16 62.25 47.43 65.11 44.82 63.91 44.82 63.91" fill="#0064c8"/><g clip-path="url(#8e8f0118-ec20-4c18-bf04-69a4a43bea69)"><polygon points="39.88 68.61 50.04 67.67 50.04 69.64 39.88 69.64 39.88 68.61" fill="#0056b3"/><polygon points="39.88 66.15 50.04 65.2 50.04 67.67 39.88 68.61 39.88 66.15" fill="#0056b3"/><polygon points="39.88 65.99 50.04 65.04 50.04 65.2 39.88 66.15 39.88 65.99" fill="#0056b3"/><polygon points="39.88 65.83 50.04 64.89 50.04 65.04 39.88 65.99 39.88 65.83" fill="#0058b6"/><polygon points="39.88 65.67 50.04 64.73 50.04 64.89 39.88 65.83 39.88 65.67" fill="#005ab8"/><polygon points="39.88 65.51 50.04 64.57 50.04 64.73 39.88 65.67 39.88 65.51" fill="#005cbb"/><polygon points="39.88 65.36 50.04 64.41 50.04 64.57 39.88 65.51 39.88 65.36" fill="#005dbe"/><polygon points="39.88 65.2 50.04 64.25 50.04 64.41 39.88 65.36 39.88 65.2" fill="#005fc0"/><polygon points="39.88 65.04 50.04 64.09 50.04 64.25 39.88 65.2 39.88 65.04" fill="#0061c3"/><polygon points="39.88 64.88 50.04 63.93 50.04 64.09 39.88 65.04 39.88 64.88" fill="#0063c6"/><polygon points="39.88 64.72 50.04 63.78 50.04 63.93 39.88 64.88 39.88 64.72" fill="#0065c8"/><polygon points="39.88 64.56 50.04 63.62 50.04 63.78 39.88 64.72 39.88 64.56" fill="#0067cb"/><polygon points="39.88 64.41 50.04 63.46 50.04 63.62 39.88 64.56 39.88 64.41" fill="#0069ce"/><polygon points="39.88 64.25 50.04 63.3 50.04 63.46 39.88 64.41 39.88 64.25" fill="#006ad0"/><polygon points="39.88 64.09 50.04 63.14 50.04 63.3 39.88 64.25 39.88 64.09" fill="#006cd3"/><polygon points="39.88 63.93 50.04 62.98 50.04 63.14 39.88 64.09 39.88 63.93" fill="#006ed6"/><polygon points="39.88 63.77 50.04 62.83 50.04 62.98 39.88 63.93 39.88 63.77" fill="#0070d8"/><polygon points="39.88 63.61 50.04 62.67 50.04 62.83 39.88 63.77 39.88 63.61" fill="#0072db"/><polygon points="39.88 63.45 50.04 62.51 50.04 62.67 39.88 63.61 39.88 63.45" fill="#0074de"/><polygon points="39.88 63.3 50.04 62.35 50.04 62.51 39.88 63.45 39.88 63.3" fill="#0075e0"/><polygon points="39.88 63.14 50.04 62.19 50.04 62.35 39.88 63.3 39.88 63.14" fill="#0077e3"/><polygon points="39.88 62.98 50.04 62.03 50.04 62.19 39.88 63.14 39.88 62.98" fill="#0079e6"/><polygon points="39.88 62.82 50.04 61.87 50.04 62.03 39.88 62.98 39.88 62.82" fill="#007be8"/><polygon points="39.88 62.66 50.04 61.72 50.04 61.87 39.88 62.82 39.88 62.66" fill="#007deb"/><polygon points="39.88 62.5 50.04 61.56 50.04 61.72 39.88 62.66 39.88 62.5" fill="#007fee"/><polygon points="39.88 62.34 50.04 61.4 50.04 61.56 39.88 62.5 39.88 62.34" fill="#0081f0"/><polygon points="39.88 62.19 50.04 61.24 50.04 61.4 39.88 62.34 39.88 62.19" fill="#0082f3"/><polygon points="39.88 62.03 50.04 61.08 50.04 61.24 39.88 62.19 39.88 62.03" fill="#0084f6"/><polygon points="39.88 61.87 50.04 60.92 50.04 61.08 39.88 62.03 39.88 61.87" fill="#0086f8"/><polygon points="39.88 61.71 50.04 60.77 50.04 60.92 39.88 61.87 39.88 61.71" fill="#0088fb"/><polygon points="39.88 61.5 50.04 60.55 50.04 60.77 39.88 61.71 39.88 61.5" fill="#0088fb"/><polygon points="39.88 61.29 50.04 60.34 50.04 60.55 39.88 61.5 39.88 61.29" fill="#008bfb"/><polygon points="39.88 61.08 50.04 60.13 50.04 60.34 39.88 61.29 39.88 61.08" fill="#008efc"/><polygon points="39.88 60.87 50.04 59.92 50.04 60.13 39.88 61.08 39.88 60.87" fill="#0090fc"/><polygon points="39.88 60.66 50.04 59.71 50.04 59.92 39.88 60.87 39.88 60.66" fill="#0093fc"/><polygon points="39.88 60.44 50.04 59.5 50.04 59.71 39.88 60.66 39.88 60.44" fill="#0096fd"/><polygon points="39.88 60.23 50.04 59.29 50.04 59.5 39.88 60.44 39.88 60.23" fill="#0099fd"/><polygon points="39.88 60.02 50.04 59.08 50.04 59.29 39.88 60.23 39.88 60.02" fill="#009bfd"/><polygon points="39.88 59.81 50.04 58.86 50.04 59.08 39.88 60.02 39.88 59.81" fill="#009efd"/><polygon points="39.88 59.6 50.04 58.65 50.04 58.86 39.88 59.81 39.88 59.6" fill="#00a1fe"/><polygon points="39.88 59.39 50.04 58.44 50.04 58.65 39.88 59.6 39.88 59.39" fill="#00a4fe"/><polygon points="39.88 59.18 50.04 58.23 50.04 58.44 39.88 59.39 39.88 59.18" fill="#00a6fe"/><polygon points="39.88 58.96 48.24 58.19 50.04 58.19 50.04 58.23 39.88 59.18 39.88 58.96" fill="#00a9ff"/><polygon points="39.88 58.75 45.97 58.19 48.24 58.19 39.88 58.96 39.88 58.75" fill="#00acff"/><polygon points="45.97 58.19 39.88 58.75 39.88 58.19 45.97 58.19" fill="#00acff"/></g><path d="M39.88,64.37l.17,1.8c.1,1.08.12,1.07,1.06,1.5l3.28,1.51c.94.43.95.46,1.83-.17l-1.13-2.24-2.6-1.2-.27-2.86Z" fill="#0056b3"/><g opacity="0.3" style="isolation:isolate"><path d="M49.39,60.68h0a2,2,0,0,0-.85-.53l-3.28-1.51c-.94-.43-.95-.46-1.83.17l-1.47,1,5.21,2.39.27,2.86-2.34,1.66-2.6-1.2-.27-2.86-2.34,1.67.17,1.8c.1,1.08.12,1.07,1.06,1.5l3.28,1.51c.94.43.95.46,1.83-.17l2.95-2.09c.85-.59.87-.59.77-1.67l-.33-3.59A1.84,1.84,0,0,0,49.39,60.68Z" fill="#0088fb"/></g></svg>