<svg id="ad1fc5ad-2930-4bf3-8857-ff8daf5e747b" data-name="Слой 1" xmlns="http://www.w3.org/2000/svg" width="217.27" height="198.89" viewBox="0 0 217.27 198.89"><rect x="0.58" y="129.54" width="54.67" height="54.67" rx="3" fill="#fff"/><path d="M52.24,184.78H3.58A3.58,3.58,0,0,1,0,181.2V132.54A3.59,3.59,0,0,1,3.58,129H52.24a3.59,3.59,0,0,1,3.58,3.58V181.2A3.58,3.58,0,0,1,52.24,184.78ZM3.58,130.11a2.43,2.43,0,0,0-2.43,2.43V181.2a2.43,2.43,0,0,0,2.43,2.43H52.24a2.43,2.43,0,0,0,2.43-2.43V132.54a2.43,2.43,0,0,0-2.43-2.43Z" fill="#05acff"/><rect x="80.88" y="129.58" width="54.67" height="54.67" rx="3" fill="#fff"/><path d="M132.54,184.82H83.88a3.59,3.59,0,0,1-3.58-3.58V132.58A3.59,3.59,0,0,1,83.88,129h48.66a3.58,3.58,0,0,1,3.58,3.58v48.66A3.58,3.58,0,0,1,132.54,184.82ZM83.88,130.15a2.43,2.43,0,0,0-2.43,2.43v48.66a2.43,2.43,0,0,0,2.43,2.43h48.66a2.43,2.43,0,0,0,2.43-2.43V132.58a2.43,2.43,0,0,0-2.43-2.43Z" fill="#05acff"/><path d="M213.72,184.78h-3.46v-1.15h3.43Zm-6.31,0H204v-1.15h3.43Zm-6.28,0H197.7v-1.15h3.43Zm-6.28,0h-3.43v-1.15h3.43Zm-6.28,0h-3.42v-1.15h3.42Zm-6.28,0h-3.42v-1.15h3.42Zm-6.28,0h-3.42v-1.15H176Zm-6.28,0h-3.42v-1.15h3.42Zm-6.49-.48a3.59,3.59,0,0,1-1.79-3.1v-.27h1.15v.27a2.46,2.46,0,0,0,1.21,2.11Zm53.38-1.05-.94-.66a2.46,2.46,0,0,0,.44-1.39v-1.59h1.15v1.59A3.57,3.57,0,0,1,216.62,183.25Zm-54-5.18h-1.15v-3.42h1.15Zm54.67-1.32h-1.15v-3.42h1.15Zm-54.67-5h-1.15v-3.42h1.15Zm54.67-1.32h-1.15v-3.42h1.15Zm-54.67-5h-1.15v-3.42h1.15Zm54.67-1.32h-1.15v-3.42h1.15Zm-54.67-4.95h-1.15v-3.43h1.15Zm54.67-1.32h-1.15v-3.43h1.15Zm-54.67-5h-1.15v-3.43h1.15Zm54.67-1.32h-1.15v-3.43h1.15Zm-54.67-5h-1.15v-3.43h1.15Zm54.67-1.32h-1.15v-3.43h1.15Zm-54.67-5h-1.15V137h1.15Zm54.67-1.32h-1.15v-3.43h1.15Zm-54.67-5h-1.15v-1.58a3.52,3.52,0,0,1,.65-2.06l.94.66a2.44,2.44,0,0,0-.44,1.4Zm54.67-1.32h-1.15v-.26a2.45,2.45,0,0,0-1.24-2.11l.57-1a3.6,3.6,0,0,1,1.82,3.11Zm-4.89-2.69H209V129h3.42Zm-6.27,0h-3.43V129h3.43Zm-6.28,0H196.4V129h3.43Zm-6.28,0h-3.43V129h3.43Zm-6.28,0h-3.43V129h3.43Zm-6.28,0h-3.43V129H181Zm-6.28,0h-3.42V129h3.42Zm-6.28,0H165V129h3.42Z" fill="#05acff"/><rect x="108.1" y="98.13" width="1.15" height="21.29" fill="#e87474"/><rect x="108.1" y="76.13" width="1.15" height="21.29" fill="#e87474"/><polygon points="108.68 123.07 106.09 117.7 111.27 117.7 108.68 123.07" fill="#e87474"/><rect x="27.91" y="98.13" width="1.15" height="21.29" fill="#e87474"/><polygon points="28.49 123.07 25.9 117.7 31.08 117.7 28.49 123.07" fill="#e87474"/><polygon points="190.16 123.07 187.57 117.7 192.75 117.7 190.16 123.07" fill="#e87474"/><rect x="28.17" y="96.98" width="81.14" height="1.15" fill="#e87474"/><rect x="189.3" y="114.82" width="1.15" height="1.73" fill="#e87474"/><path d="M190.45,105.62H189.3v-3.46h1.15Zm0,6.33H189.3v-3.46h1.15Z" fill="#e87474"/><polygon points="190.45 96.98 188.15 96.98 188.15 98.13 189.3 98.13 189.3 99.28 190.45 99.28 190.45 96.98" fill="#e87474"/><path d="M185.16,98.13h-3.59V97h3.59Zm-6.58,0H175V97h3.59Zm-6.58,0h-3.59V97H172Zm-6.59,0h-3.59V97h3.59Zm-6.58,0h-3.59V97h3.59Zm-6.58,0h-3.59V97h3.59Zm-6.58,0h-3.59V97h3.59Zm-6.58,0H135.5V97h3.59Zm-6.58,0h-3.59V97h3.59Zm-6.58,0h-3.59V97h3.59Zm-6.59,0h-3.59V97h3.59Z" fill="#e87474"/><rect x="111.04" y="96.98" width="1.73" height="1.15" fill="#e87474"/><circle cx="153.05" cy="156.91" r="1.44" fill="#5e6981"/><circle cx="148.44" cy="156.91" r="1.44" fill="#5e6981"/><circle cx="143.84" cy="156.91" r="1.44" fill="#5e6981"/><path d="M13.85,198.79H13L11.59,194c-.07-.21-.15-.48-.23-.8a3.36,3.36,0,0,1-.13-.58,12,12,0,0,1-.35,1.41l-1.39,4.75H8.67l-1.9-7.14h.88l1.12,4.41c.16.62.27,1.18.35,1.68A10.31,10.31,0,0,1,9.51,196l1.28-4.34h.88L13,196a13.58,13.58,0,0,1,.39,1.71,14.66,14.66,0,0,1,.35-1.69l1.13-4.4h.88Z"/><path d="M21.37,196.11a2.94,2.94,0,0,1-.66,2,2.32,2.32,0,0,1-1.82.74,2.34,2.34,0,0,1-1.27-.34,2.2,2.2,0,0,1-.86-1,3.38,3.38,0,0,1-.3-1.47,2.94,2.94,0,0,1,.65-2,2.31,2.31,0,0,1,1.82-.73,2.26,2.26,0,0,1,1.78.75A2.94,2.94,0,0,1,21.37,196.11Zm-4.08,0a2.5,2.5,0,0,0,.42,1.56,1.41,1.41,0,0,0,1.2.54,1.44,1.44,0,0,0,1.21-.54,3.15,3.15,0,0,0,0-3.11A1.46,1.46,0,0,0,18.9,194a1.42,1.42,0,0,0-1.2.52A2.53,2.53,0,0,0,17.29,196.11Z"/><path d="M25.23,193.34a3,3,0,0,1,.64.06l-.11.75a2.67,2.67,0,0,0-.58-.07,1.41,1.41,0,0,0-1.12.53,1.94,1.94,0,0,0-.46,1.31v2.87h-.81v-5.35h.67l.09,1h0a2.38,2.38,0,0,1,.72-.81A1.69,1.69,0,0,1,25.23,193.34Z"/><path d="M27.68,196.05a8.36,8.36,0,0,1,.64-.78L30,193.44h1l-2.17,2.28,2.32,3.07h-1l-1.89-2.53-.61.53v2h-.8v-7.6h.8v4c0,.18,0,.46,0,.83Z"/><path d="M34.38,198.89a2.46,2.46,0,0,1-1.87-.72,2.81,2.81,0,0,1-.68-2,3.15,3.15,0,0,1,.63-2.06,2.12,2.12,0,0,1,1.71-.76,2,2,0,0,1,1.6.66,2.55,2.55,0,0,1,.58,1.75v.51H32.67a2.08,2.08,0,0,0,.47,1.43,1.64,1.64,0,0,0,1.27.49,4.3,4.3,0,0,0,1.71-.36v.72a4.05,4.05,0,0,1-.81.27A4.88,4.88,0,0,1,34.38,198.89ZM34.17,194a1.32,1.32,0,0,0-1,.42,1.88,1.88,0,0,0-.45,1.16h2.79a1.76,1.76,0,0,0-.34-1.17A1.2,1.2,0,0,0,34.17,194Z"/><path d="M40.18,193.34a3.16,3.16,0,0,1,.64.06l-.12.75a2.6,2.6,0,0,0-.58-.07,1.38,1.38,0,0,0-1.11.53,1.9,1.9,0,0,0-.47,1.31v2.87h-.81v-5.35h.67l.1,1h0a2.26,2.26,0,0,1,.71-.81A1.69,1.69,0,0,1,40.18,193.34Z"/><path d="M47.05,198.79h-.8V193.7c0-.42,0-.82,0-1.2a2.49,2.49,0,0,1-.23.22l-1.16.95-.43-.56,1.89-1.46h.69Z"/><path d="M93.91,198.79h-.82L91.65,194c-.07-.21-.14-.48-.23-.8a4.91,4.91,0,0,1-.13-.58A11.86,11.86,0,0,1,91,194l-1.4,4.75h-.82l-1.9-7.14h.88l1.13,4.41a15.16,15.16,0,0,1,.34,1.68,12.68,12.68,0,0,1,.39-1.75l1.28-4.34h.88L93.07,196a13.51,13.51,0,0,1,.4,1.71,14.66,14.66,0,0,1,.35-1.69l1.12-4.4h.88Z"/><path d="M101.44,196.11a2.94,2.94,0,0,1-.66,2,2.33,2.33,0,0,1-1.82.74,2.38,2.38,0,0,1-1.28-.34,2.2,2.2,0,0,1-.86-1,3.38,3.38,0,0,1-.3-1.47,3,3,0,0,1,.65-2,2.32,2.32,0,0,1,1.82-.73,2.25,2.25,0,0,1,1.78.75A2.9,2.9,0,0,1,101.44,196.11Zm-4.08,0a2.57,2.57,0,0,0,.41,1.56,1.42,1.42,0,0,0,1.21.54,1.41,1.41,0,0,0,1.2-.54,3.09,3.09,0,0,0,0-3.11,1.66,1.66,0,0,0-2.42,0A2.53,2.53,0,0,0,97.36,196.11Z"/><path d="M105.3,193.34a3.1,3.1,0,0,1,.64.06l-.11.75a2.75,2.75,0,0,0-.59-.07,1.41,1.41,0,0,0-1.11.53,1.89,1.89,0,0,0-.46,1.31v2.87h-.81v-5.35h.67l.09,1h0a2.38,2.38,0,0,1,.72-.81A1.66,1.66,0,0,1,105.3,193.34Z"/><path d="M107.74,196.05a8.36,8.36,0,0,1,.64-.78l1.73-1.83h1l-2.17,2.28,2.32,3.07h-1l-1.89-2.53-.61.53v2h-.8v-7.6h.8v4c0,.18,0,.46,0,.83Z"/><path d="M114.45,198.89a2.45,2.45,0,0,1-1.87-.72,2.82,2.82,0,0,1-.69-2,3.1,3.1,0,0,1,.64-2.06,2.09,2.09,0,0,1,1.71-.76,2,2,0,0,1,1.59.66,2.56,2.56,0,0,1,.59,1.75v.51h-3.69a2.13,2.13,0,0,0,.48,1.43,1.62,1.62,0,0,0,1.27.49,4.38,4.38,0,0,0,1.71-.36v.72a4.35,4.35,0,0,1-.82.27A4.77,4.77,0,0,1,114.45,198.89Zm-.22-4.87a1.33,1.33,0,0,0-1,.42,2,2,0,0,0-.45,1.16h2.8a1.81,1.81,0,0,0-.34-1.17A1.22,1.22,0,0,0,114.23,194Z"/><path d="M120.24,193.34a3.1,3.1,0,0,1,.64.06l-.11.75a2.68,2.68,0,0,0-.59-.07,1.41,1.41,0,0,0-1.11.53,1.89,1.89,0,0,0-.46,1.31v2.87h-.81v-5.35h.67l.09,1h0a2.38,2.38,0,0,1,.72-.81A1.69,1.69,0,0,1,120.24,193.34Z"/><path d="M128.8,198.79h-4.69v-.7L126,196.2a13.5,13.5,0,0,0,1.13-1.24,3.35,3.35,0,0,0,.41-.72,2.14,2.14,0,0,0,.14-.76,1.19,1.19,0,0,0-.35-.9,1.3,1.3,0,0,0-1-.34,2.32,2.32,0,0,0-.84.15,3.34,3.34,0,0,0-.89.53l-.43-.55a3.27,3.27,0,0,1,2.15-.82,2.31,2.31,0,0,1,1.58.51,1.79,1.79,0,0,1,.57,1.39,2.7,2.7,0,0,1-.38,1.34,8.85,8.85,0,0,1-1.43,1.68L125.13,198v0h3.67Z"/><path d="M174.91,198.79h-.82L172.65,194c-.07-.21-.14-.48-.23-.8a4.91,4.91,0,0,1-.13-.58A11.86,11.86,0,0,1,172,194l-1.4,4.75h-.82l-1.9-7.14h.88l1.13,4.41a15.16,15.16,0,0,1,.34,1.68,12.68,12.68,0,0,1,.39-1.75l1.28-4.34h.88l1.34,4.38a13.51,13.51,0,0,1,.4,1.71,14.66,14.66,0,0,1,.35-1.69l1.12-4.4h.88Z"/><path d="M182.44,196.11a2.94,2.94,0,0,1-.66,2,2.33,2.33,0,0,1-1.82.74,2.38,2.38,0,0,1-1.28-.34,2.2,2.2,0,0,1-.86-1,3.38,3.38,0,0,1-.3-1.47,3,3,0,0,1,.65-2,2.32,2.32,0,0,1,1.82-.73,2.25,2.25,0,0,1,1.78.75A2.9,2.9,0,0,1,182.44,196.11Zm-4.08,0a2.57,2.57,0,0,0,.41,1.56,1.42,1.42,0,0,0,1.21.54,1.41,1.41,0,0,0,1.2-.54,3.09,3.09,0,0,0,0-3.11,1.66,1.66,0,0,0-2.42,0A2.53,2.53,0,0,0,178.36,196.11Z"/><path d="M186.3,193.34a3.1,3.1,0,0,1,.64.06l-.11.75a2.75,2.75,0,0,0-.59-.07,1.41,1.41,0,0,0-1.11.53,1.89,1.89,0,0,0-.46,1.31v2.87h-.81v-5.35h.67l.09,1h0a2.38,2.38,0,0,1,.72-.81A1.66,1.66,0,0,1,186.3,193.34Z"/><path d="M188.74,196.05a8.36,8.36,0,0,1,.64-.78l1.73-1.83h1l-2.17,2.28,2.32,3.07h-1l-1.89-2.53-.61.53v2h-.8v-7.6h.8v4c0,.18,0,.46,0,.83Z"/><path d="M195.45,198.89a2.45,2.45,0,0,1-1.87-.72,2.82,2.82,0,0,1-.69-2,3.1,3.1,0,0,1,.64-2.06,2.09,2.09,0,0,1,1.71-.76,2,2,0,0,1,1.59.66,2.56,2.56,0,0,1,.59,1.75v.51h-3.69a2.13,2.13,0,0,0,.48,1.43,1.62,1.62,0,0,0,1.27.49,4.38,4.38,0,0,0,1.71-.36v.72a4.35,4.35,0,0,1-.82.27A4.77,4.77,0,0,1,195.45,198.89Zm-.22-4.87a1.33,1.33,0,0,0-1,.42,2,2,0,0,0-.45,1.16h2.8a1.81,1.81,0,0,0-.34-1.17A1.22,1.22,0,0,0,195.23,194Z"/><path d="M201.24,193.34a3.1,3.1,0,0,1,.64.06l-.11.75a2.68,2.68,0,0,0-.59-.07,1.41,1.41,0,0,0-1.11.53,1.89,1.89,0,0,0-.46,1.31v2.87h-.81v-5.35h.67l.09,1h0a2.38,2.38,0,0,1,.72-.81A1.69,1.69,0,0,1,201.24,193.34Z"/><path d="M211.18,198.79h-1l-3.9-6h0c.05.7.08,1.35.08,1.93v4.06h-.77v-7.14h.94l3.89,6h0c0-.09,0-.37-.05-.85s0-.82,0-1v-4.1h.78Z"/><path d="M40.36,156.93a14.71,14.71,0,0,1-14.53,14.86,14.86,14.86,0,0,1,0-29.72,14.7,14.7,0,0,1,14.53,14.86" fill="#d33833" fill-rule="evenodd"/><path d="M11.9,160.61s-1.06-15.5,13.22-15.94l-1-1.66-7.74,2.59-2.2,2.54-1.94,3.71-1.11,4.32.34,2.88" fill="#ef3d3a"/><path d="M15.88,146.79a14.65,14.65,0,0,0,0,20.39,13.86,13.86,0,0,0,19.9,0,14.65,14.65,0,0,0,0-20.39,13.86,13.86,0,0,0-19.9,0Zm-.64,21a15.53,15.53,0,0,1,0-21.64,14.75,14.75,0,0,1,21.19,0,15.55,15.55,0,0,1,0,21.64,14.75,14.75,0,0,1-21.19,0" fill="#231f20"/><path d="M32,157l-2.2.33-3,.34-1.94,0-1.88,0-1.44-.45-1.28-1.38-1-2.82-.22-.61L17.68,152l-.78-1.28-.56-1.82.61-1.61,1.44-.5,1.16.56.55,1.21.67-.11.22-.27-.22-1.28-.06-1.6.34-2.2,0-1.27,1-1.61,1.77-1.27,3.1-1.34,3.43.49,3,2.16,1.38,2.2.89,1.61.22,4-.66,3.43-1.22,3-1.16,1.61" fill="#f0d6b7" fill-rule="evenodd"/><path d="M30.06,166.58l-7.91.34v1.33l.66,4.64-.33.39L17,171.4l-.39-.66L16,164.48l-1.28-3.76-.27-.88,4.42-3.05,1.39-.55,1.22,1.49,1.05.94,1.21.39.56.17.66,2.88.5.6,1.27-.44L25.86,164l4.81,2.27-.61.33" fill="#335061" fill-rule="evenodd"/><path d="M17,147.27l1.44-.5,1.16.56.55,1.21.67-.11.16-.66-.33-1.27.33-3.05-.27-1.66,1-1.16,2.16-1.72-.61-.82-3,1.49-1.27,1-.72,1.55-1.11,1.49-.33,1.77.22,1.88" fill="#6d6b6d" fill-rule="evenodd"/><path d="M19.22,142.07s.82-2,4.15-3,.16-.72.16-.72l-3.6,1.38-1.38,1.39-.61,1.1,1.27-.11m-1.65,4.81s-1.17-3.87,3.26-4.42l-.16-.67-3,.72-.89,2.88.22,1.88.61-.39" fill="#dcd9d8" fill-rule="evenodd"/><path d="M19.33,152l.72-.7a.46.46,0,0,0,.38.42c.06.39.22,3.88,2.59,5.76.22.17-1.77-.28-1.77-.28l-1.77-2.76m10-3.49s.13-1.68.58-1.55a.62.62,0,0,1,.45.58s-1.09.71-1,1" fill="#f7e4cd" fill-rule="evenodd"/><path d="M34.1,144.83s-.91.2-1,1,1,.17,1.16.11m-6.85-1.05s-1.22.17-1.22.94,1.39.72,1.77.39" fill="#f7e4cd"/><path d="M19.88,148.49s-2.1-1.27-2.32-.06-.72,2.11.33,3.38l-.72-.22-.66-1.72-.22-1.66,1.27-1.33L19,147l.83.66.05.83m1-3.49s.94-4.87,5.7-5.82c3.92-.78,6,.16,6.75,1,0,0-3.49-4.15-6.81-2.88s-5.75,3.62-5.7,5.1l.05,2.55m12.84-4.21s-1.6,0-1.66,1.39a1.36,1.36,0,0,0,.11.44s1.28-1.44,2.05-.66m-7.52.81s-.28-2.21-2.16-.92c-1.22.82-1.11,2-.89,2.2s.17.66.33.36.12-1.3.73-1.58,1.6-.59,2-.07" fill="#f7e4cd" fill-rule="evenodd"/><path d="M21.49,157.73l-5.21,2.33s2.16,8.57,1,11.23l-.77-.28-.06-3.26-1.43-6.19-.61-1.71,5.43-3.66,1.61,1.55m.52,4.73.74.91v3.32h-.88l-.11-2.59c0-.28.11-1.28.11-1.28m.16,4.36-2.49.11.72.5,1.77.28" fill="#49728b" fill-rule="evenodd"/><path d="M30.56,166.64l2.05-.06.5,5.1L31,172l-.44-5.31" fill="#335061" fill-rule="evenodd"/><path d="M31.12,166.64l3.09-.17,1.28-3.37c0-.17,1.1-4.65,1.1-4.65l-2.49-2.6-.5-.44-1.32,1.33v5.14l-1.17,4.76" fill="#335061" fill-rule="evenodd"/><path d="M32.5,166.25l-1.94.39.28,1.55c.72.33,1.94-.55,1.94-.55m-.23-11.07,3.88,2.88.11-1.33-2.93-2.71-1,1.16" fill="#49728b" fill-rule="evenodd"/><path d="M24,177.54l-1.15-4.65-.56-3.43-.1-2.54,5.19-.28h3.22l-.29,5.83.5,4.48-.06.83-4.2.33L24,177.56" fill="#fff" fill-rule="evenodd"/><path d="M29.84,166.58a48.71,48.71,0,0,0,.55,9.84,10.62,10.62,0,0,1-4.09,1.33l4.65-.17.55-.33-.66-9.07-.17-1.94" fill="#dcd9d8" fill-rule="evenodd"/><path d="M33.2,171.23l2.16-.6,4.1-.22.6-1.89L39,165.26l-1.28-.17-1.77.56-1.7.82-.9-.16-.7.27" fill="#fff" fill-rule="evenodd"/><path d="M33.16,170.13a7.86,7.86,0,0,1,1.66-.61l-.6-3.05.72-.27.49,3.21,3.38.16a5.06,5.06,0,0,0,.5-2.59l.61,1.77,0,1-.88,1.33-1,.22-1.66-.06-.55-.72-1.94.28-.61.22" fill="#dcd9d8" fill-rule="evenodd"/><path d="M31,166.2l-1.22-3.1-1.27-1.83s.28-.77.66-.77h1.28l1.21.44L31.54,163,31,166.2" fill="#fff"/><path d="M31.23,165.15a25.93,25.93,0,0,1-1.55-3.43s.27-.67.66-.5,1.22.61,1.22.61v-1.05l-1.88-.39-1.28.16,2.16,5.1.44,0" fill="#dcd9d8" fill-rule="evenodd"/><path d="M24.46,157.84l-1.54-.17-1.44-.44v.5l.71.77,2.2,1" fill="#fff"/><path d="M22,158a6.07,6.07,0,0,0,2.27.55l.06.67-1.55-.34-.94-.66L22,158" fill="#dcd9d8" fill-rule="evenodd"/><path d="M33.2,160.69a10.58,10.58,0,0,1-2.53-.35c0-.31-.05-.61,0-.83a2,2,0,0,1,.87-.18,1.61,1.61,0,0,0-1-.11,1.47,1.47,0,0,0-.16-.5c.53-.19,1.78-1.43,2.48-1,.33.2.47,1.31.5,1.85a1.94,1.94,0,0,1-.22,1.14" fill="#d33833" fill-rule="evenodd"/><path d="M33.2,160.69a10.58,10.58,0,0,1-2.53-.35c0-.31-.05-.61,0-.83a2,2,0,0,1,.87-.18,1.61,1.61,0,0,0-1-.11,1.47,1.47,0,0,0-.16-.5c.53-.19,1.78-1.43,2.48-1,.33.2.47,1.31.5,1.85A1.94,1.94,0,0,1,33.2,160.69Z" fill="none" stroke="#d33833" stroke-miterlimit="8" stroke-width="0.51"/><path d="M28.71,159.15v.22c-.3.19-.77.19-1.09.35a2.69,2.69,0,0,1,1.17.3l0,.53a18.5,18.5,0,0,1-1.66,1.26,4.19,4.19,0,0,1-1.67.51c-.18,0-.19-.26-.26-.47a6.65,6.65,0,0,1-.54-1.85c0-.86-.13-2.3.8-2.12a8.23,8.23,0,0,1,2.19.8,2.23,2.23,0,0,0,1.09.47" fill="#d33833" fill-rule="evenodd"/><path d="M28.71,159.15v.22c-.3.19-.77.19-1.09.35a2.69,2.69,0,0,1,1.17.3l0,.53a18.5,18.5,0,0,1-1.66,1.26,4.19,4.19,0,0,1-1.67.51c-.18,0-.19-.26-.26-.47a6.65,6.65,0,0,1-.54-1.85c0-.86-.13-2.3.8-2.12a8.23,8.23,0,0,1,2.19.8,2.23,2.23,0,0,0,1.09.47Z" fill="none" stroke="#d33833" stroke-miterlimit="8" stroke-width="0.51"/><path d="M29.24,160.17a3.11,3.11,0,0,1-.14-1c1.25-.83,1.48,1.43.14,1" fill="#d33833" fill-rule="evenodd"/><path d="M29.24,160.17a3.11,3.11,0,0,1-.14-1C30.35,158.33,30.58,160.59,29.24,160.17Z" fill="none" stroke="#d33833" stroke-miterlimit="8" stroke-width="0.51"/><path d="M31,160.55s-.38-.55-.11-.72.56,0,.72-.27,0-.45.06-.78.33-.39.61-.44,1-.17,1.16.11l-.33-1-.67-.22-2.1,1.22-.11.61v1.21m-5.05,2.11L25,159.79c-.13-1.29.31-1.07,1.42-1.07a3,3,0,0,1,1.11.34c.31.61-.51.48.35.94s2-.24,1.7-1.11c-.16-.19-.84-.06-1.09-.19L27.2,158c-.55-.28-1.82-.7-2.4-.3-1.49,1,.09,3.53.62,4.59" fill="#ef3d3a" fill-rule="evenodd"/><path d="M26.69,142.77c-1.51-.35-2.26.63-2.72,1.65-.4-.1-.26-.65-.13-.94a2.54,2.54,0,0,1,2.25-1.59c.38.06.9.41.61.88M34,144.48h.07a15.49,15.49,0,0,0,1.07,2.07c-.29.67-2.19,1.26-2.16.06.41-.18,1.12,0,1.48-.27a4,4,0,0,1-.46-1.88m-6.58,0a6.27,6.27,0,0,0,.89,1.66c.21.2.61.45.41,1a1.31,1.31,0,0,1-.58.49c-.72.21-2.4,0-1.82-.86.6,0,1.4.39,1.84,0-.34-.55-.95-1.63-.72-2.26m6.3,6a6,6,0,0,1-4.06,1.28,1.22,1.22,0,0,1-.16-1.55c.2.33.08.94.61,1,1,.17,2.18-.62,2.9-.89.45-.76,0-1-.44-1.52-.83-1-1.94-2.24-1.9-3.73.33-.24.36.37.41.48a13.8,13.8,0,0,0,2.31,3.17c.2.22.52.42.55.56.11.41-.26.9-.22,1.18M19.5,149.8c-.34-.19-.42-1-.82-1.07-.57,0-.46,1.11-.46,1.77a2.08,2.08,0,0,1-.17-2c-.33-.16-.48.18-.66.3.23-1.7,2.49-.78,2.11,1m15,1.43a3.15,3.15,0,0,1-2.7,2,3.9,3.9,0,0,1,0-1,7.75,7.75,0,0,0,2.7-1.07m-7.08.62a9.37,9.37,0,0,0,3.95.51,4.26,4.26,0,0,1,.07,1c-1.64.08-3.59-.32-4-1.48m-.18.92c.65,1.64,2.89,1.45,4.78,1.41a1,1,0,0,1-.49.55,4.73,4.73,0,0,1-3.11,0,4.43,4.43,0,0,1-1.17-1.3c-.13-.18-.84-.65,0-.65" fill="#231f20" fill-rule="evenodd"/><path d="M33.69,161.82l-2.4,3.81a18.52,18.52,0,0,0,.6-4.42,1.39,1.39,0,0,1,1.8.61" fill="#81b0c4" fill-rule="evenodd"/><path d="M37.81,166.52c-.86.18-1.46,1-2.3.95a2.83,2.83,0,0,1,2.3-.95m.37,1.35A13.65,13.65,0,0,1,36,168c.33-.52,1.63-.34,2.22-.13m.25,1.15c-.79,0-1.76,0-2.51-.06.44-.47,2-.18,2.51.06" fill="#231f20" fill-rule="evenodd"/><path d="M32.21,172.18a17.73,17.73,0,0,1,.46,3.07,3.4,3.4,0,0,1-1.27.27l-.12-3.2c.28,0,.7-.2.93-.12" fill="#dcd9d8" fill-rule="evenodd"/><path d="M31,157.66c-.39.26-.73.58-1.11.86a2.44,2.44,0,0,1-1.91-.54s.07,0,.07-.07c.9.4,2-.17,2.95-.25" fill="#f0d6b7" fill-rule="evenodd"/><path d="M26.23,163.78c.25-1.07,1.22-1.62,2.1-2.21a18,18,0,0,1,2.06,4.06,21.94,21.94,0,0,1-4.16-1.85" fill="#81b0c4" fill-rule="evenodd"/><path d="M31.28,172.33c0,.87.08,2.27.12,3.19a3.32,3.32,0,0,0,1.27-.27,18.47,18.47,0,0,0-.45-3.06c-.23-.07-.65.16-.94.12Zm-9-5a46.14,46.14,0,0,0,1.95,9.6,12.72,12.72,0,0,0,7,.13c-.37-1.76-.21-3.91-.42-5.79l-.3-4.27a23.88,23.88,0,0,0-8.22.32Zm8.8-.31c0,1.52.07,3,.18,4.52l1.52-.26a34.56,34.56,0,0,0-.51-4.39,3.43,3.43,0,0,0-1.19.13Zm2.95-.24a3.53,3.53,0,0,0-.86,0l.51,3.89a3.52,3.52,0,0,0,1-.25,7.77,7.77,0,0,0-.65-3.64Zm4.46,4.08a1.92,1.92,0,0,0,1.16-2.36,10.86,10.86,0,0,0-.76-2.57c-.22-.35-.84-.8-1.34-.48-.8.51-2.22.66-2.81,1.28a20.16,20.16,0,0,1,.51,3.57c1,.06,2.24-.28,3.08.08a11.64,11.64,0,0,0-1.85.47,3.79,3.79,0,0,0,2,0Zm-8-5.26a17.21,17.21,0,0,0-2.06-4.06c-.88.59-1.85,1.15-2.09,2.22a20.94,20.94,0,0,0,4.15,1.84Zm1.5-4.42a18.52,18.52,0,0,1-.6,4.42,32.71,32.71,0,0,0,2.4-3.81,1.38,1.38,0,0,0-1.8-.61Zm-1.68-.6c-.35,0-.64.39-1.09.2l-.3.35c1,1.19,1.43,2.88,2.2,4.28a18.78,18.78,0,0,0,.46-4.28c-.56,0-.88-.51-1.27-.55Zm-1.09-1.44a2.89,2.89,0,0,0,.14,1C30.61,160.6,30.37,158.34,29.13,159.17Zm-1.49-.49a8.23,8.23,0,0,0-2.19-.8c-.92-.18-.84,1.26-.8,2.12a6.89,6.89,0,0,0,.54,1.85c.07.21.09.43.27.47a4.15,4.15,0,0,0,1.66-.51,17.56,17.56,0,0,0,1.66-1.26l0-.53a2.73,2.73,0,0,0-1.18-.3,10.71,10.71,0,0,0,1.09-.35v-.22a2.23,2.23,0,0,1-1.09-.47Zm-5.51-1c-.48.48,1.34,1.15,1.92,1.18,0-.3.18-.59.14-.82a6.18,6.18,0,0,1-2.06-.36Zm5.9.23s-.07,0-.08.06a2.4,2.4,0,0,0,1.92.54l1.11-.85C30.07,157.74,28.93,158.3,28,157.91Zm5.42,1.64c0-.54-.17-1.65-.51-1.85-.7-.41-1.94.83-2.47,1a1.53,1.53,0,0,1,.16.51,1.5,1.5,0,0,1,1,.1,2.1,2.1,0,0,0-.87.19c-.07.22,0,.51,0,.82a10.66,10.66,0,0,0,2.53.35A1.92,1.92,0,0,0,33.45,159.55Zm-12.13-1.4c-.15-.11-1.17-1.43-1.3-1.38a22,22,0,0,0-5.1,3.17,27.89,27.89,0,0,1,2.17,10.73c1.68.78,3.15,1.92,5.43,2l-.65-5.29c-.58-.24-1.4,0-1.93-.07,0-.65.82-.29.88-.72s-.45-.35-.28-.87c.41.15.63.49,1.08.61.41-.89,0-2.47.05-3.23,0-.14.07-.78.39-.67s0,1.7,0,2.4-.08,1.3.19,1.69a61.54,61.54,0,0,1,6.82-.55,17.72,17.72,0,0,1-1.83-.83c-.37-.2-1.53-.64-1.64-1-.17-.56.45-.86.55-1.34-1.11.6-1.33-.59-1.59-1.43a9.94,9.94,0,0,1-.43-1.77,17.92,17.92,0,0,1-2.81-1.51Zm11.15-1.22c1.54-.74,1.81,2.79,1.21,3.92.1.34.42.47.55.77l-2.68,4.48c.65-.4,1.58-.07,2.33-.38.28-.11.48-.75.69-1.27A28,28,0,0,0,36,159.92a6.23,6.23,0,0,0,.19-1.24c-.07-.49-.73-.85-1.07-1.17l-1.66-1.57c-.26.39-.82.65-1,1ZM17.78,143.32c-.73.81-.57,2.31-.49,3.39a2,2,0,0,1,3.06,1.48c.64,0,.24-.79.13-1.29-.38-1.62.63-3.39,0-4.87a4.06,4.06,0,0,0-2.74,1.29ZM23,138.65c-1.66.47-3.78,1.67-4.46,3.16.53-.08.89-.34,1.41-.39a3.74,3.74,0,0,0,.68,0c.45-.11.83-1.12,1.17-1.5s.73-.52,1-.85c.17-.09.43-.08.44-.35a.34.34,0,0,0-.26-.12Zm8.61.44c-1.72-1-4.62-1.69-6.45-.78-1.48.73-3.47,1.95-4.15,3.49.63,1.49-.19,2.85-.24,4.36,0,.81.38,1.51.41,2.38-.22.36-.88.41-1.34.38-.16-.77-.43-1.64-1.22-1.73a1.86,1.86,0,0,0-2,1.79c-.06,1.14.88,3.05,2.22,2.91.51,0,.64-.57,1.2-.56.31.61-.47.8-.55,1.23a3.65,3.65,0,0,0,.12.76,10.29,10.29,0,0,0,1.31,3.06c.68,1,2,1.11,3.43,1.21.26-.55,1.2-.51,1.81-.36a6,6,0,0,1-2-1.62,4,4,0,0,1-1.34-2.42c1.22,1.7,2.24,3.19,4.47,3.94,1.68.56,3.65-.26,5-1.17a5.63,5.63,0,0,0,1.24-1.53,13,13,0,0,0,2-7.84,8.58,8.58,0,0,0-.45-3.14c-.41-.82-1.8-1.56-2.62-.81-.15-.81.68-1.3,1.65-1a9,9,0,0,0-2.41-2.53Zm3.2,26.49c1.35-.66,3.85-1.79,4.7,0a15.15,15.15,0,0,1,.83,2.46c.23,1-.26,3-1.24,3.32a5.85,5.85,0,0,1-2.95.06,1.5,1.5,0,0,1-.36-.47,4.08,4.08,0,0,0-2.06.35c.06.56-.32.65-.67.76-.26,1,.52,2.4.34,3.35-.14.67-1,.78-1.58.9a5.28,5.28,0,0,0,.07,1,1.53,1.53,0,0,1-1.36.88,17.11,17.11,0,0,1-6.8-.34c-.52-1.28-.93-2.84-1.37-4.31-1.83.19-3.31-.79-4.71-1.44-.48-.22-1.16-.35-1.33-.73a7.09,7.09,0,0,1-.15-1.76,27.89,27.89,0,0,0-.64-5.15c-.21-.79-.56-1.49-.81-2.25a16.93,16.93,0,0,1-.74-2.29c-.15-1,.83-1.1,1.46-1.56,1-.69,1.73-1.08,2.79-1.71a6.15,6.15,0,0,0,1.36-.88c.21-.44-.37-1-.52-1.39a4.31,4.31,0,0,1-.41-1.52,2.92,2.92,0,0,1-1.95-1.25,4.83,4.83,0,0,1-.56-4.18,4.18,4.18,0,0,0,.31-.49,6.35,6.35,0,0,0-.14-1.12c-.06-1.79.31-3.34,1.51-3.88.5-1.94,2.25-2.6,3.9-3.58a12.51,12.51,0,0,1,2-.85c2.52-.93,6.4-.75,8.49.83a11.36,11.36,0,0,1,2.82,3.12c1.34,2.71,1.25,7.25.31,10.55a10.58,10.58,0,0,1-.57,1.62c-.18.37-.73,1.11-.66,1.44s1.26,1.25,1.52,1.5c.46.44,1.33,1,1.4,1.59a5.6,5.6,0,0,1-.43,2l-1.79,5.41" fill="#231f20" fill-rule="evenodd"/><path d="M25.88,152.28c.07-.1.47-.24,1,0,0,0-.66.11-.61,1.21l-.27-.05s-.29-1-.15-1.19" fill="#f7e4cd" fill-rule="evenodd"/><path d="M30.73,161.8a.31.31,0,0,1-.61,0,.31.31,0,1,1,.61,0m.3,1.42a.3.3,0,0,1-.3.31.31.31,0,0,1-.31-.31.3.3,0,0,1,.31-.3.29.29,0,0,1,.3.3" fill="#1d1919" fill-rule="evenodd"/><path d="M122.36,156.93a14.53,14.53,0,1,1-14.53-14.86,14.71,14.71,0,0,1,14.53,14.86" fill="#d33833" fill-rule="evenodd"/><path d="M93.9,160.61s-1.06-15.5,13.22-15.94l-1-1.66-7.74,2.59-2.2,2.54-1.94,3.71-1.11,4.32.34,2.88" fill="#ef3d3a"/><path d="M97.88,146.79a14.65,14.65,0,0,0,0,20.39,13.86,13.86,0,0,0,19.9,0,14.65,14.65,0,0,0,0-20.39,13.86,13.86,0,0,0-19.9,0Zm-.64,21a15.53,15.53,0,0,1,0-21.64,14.75,14.75,0,0,1,21.19,0,15.55,15.55,0,0,1,0,21.64,14.75,14.75,0,0,1-21.19,0" fill="#231f20"/><path d="M114,157l-2.2.33-3,.34-1.94,0-1.88,0-1.44-.45-1.28-1.38-1-2.82-.22-.61L99.68,152l-.78-1.28-.56-1.82.61-1.61,1.44-.5,1.16.56.55,1.21.67-.11.22-.27-.22-1.28-.06-1.6.34-2.2,0-1.27,1-1.61,1.77-1.27,3.1-1.34,3.43.49,3,2.16,1.38,2.2.89,1.61.22,4-.66,3.43-1.22,3-1.16,1.61" fill="#f0d6b7" fill-rule="evenodd"/><path d="M112.06,166.58l-7.91.34v1.33l.66,4.64-.33.39L99,171.4l-.39-.66L98,164.48l-1.28-3.76-.27-.88,4.42-3.05,1.39-.55,1.22,1.49,1.05.94,1.21.39.56.17.66,2.88.5.6,1.27-.44-.88,1.72,4.81,2.27-.61.33" fill="#335061" fill-rule="evenodd"/><path d="M99,147.27l1.44-.5,1.16.56.55,1.21.67-.11.16-.66-.33-1.27.33-3.05-.27-1.66,1-1.16,2.16-1.72-.61-.82-3,1.49-1.27,1-.72,1.55-1.11,1.49-.33,1.77.22,1.88" fill="#6d6b6d" fill-rule="evenodd"/><path d="M101.22,142.07s.82-2,4.15-3,.16-.72.16-.72l-3.6,1.38-1.38,1.39-.61,1.1,1.27-.11m-1.65,4.81s-1.17-3.87,3.26-4.42l-.16-.67-3,.72-.89,2.88.22,1.88.61-.39" fill="#dcd9d8" fill-rule="evenodd"/><path d="M101.33,152l.72-.7a.46.46,0,0,0,.38.42c.06.39.22,3.88,2.59,5.76.22.17-1.77-.28-1.77-.28l-1.77-2.76m10-3.49s.13-1.68.58-1.55a.62.62,0,0,1,.45.58s-1.09.71-1,1" fill="#f7e4cd" fill-rule="evenodd"/><path d="M116.1,144.83s-.91.2-1,1,1,.17,1.16.11m-6.85-1.05s-1.22.17-1.22.94,1.39.72,1.77.39" fill="#f7e4cd"/><path d="M101.88,148.49s-2.1-1.27-2.32-.06-.72,2.11.33,3.38l-.72-.22-.66-1.72-.22-1.66,1.27-1.33L101,147l.83.66,0,.83m1-3.49s.94-4.87,5.7-5.82c3.92-.78,6,.16,6.75,1,0,0-3.49-4.15-6.81-2.88s-5.75,3.62-5.7,5.1l.05,2.55m12.84-4.21s-1.6,0-1.66,1.39a1.36,1.36,0,0,0,.11.44s1.28-1.44,2-.66m-7.52.81s-.28-2.21-2.16-.92c-1.22.82-1.11,2-.89,2.2s.17.66.33.36.12-1.3.73-1.58,1.6-.59,2-.07" fill="#f7e4cd" fill-rule="evenodd"/><path d="M103.49,157.73l-5.21,2.33s2.16,8.57,1,11.23l-.77-.28-.06-3.26-1.43-6.19-.61-1.71,5.43-3.66,1.61,1.55m.52,4.73.74.91v3.32h-.88l-.11-2.59c0-.28.11-1.28.11-1.28m.16,4.36-2.49.11.72.5,1.77.28" fill="#49728b" fill-rule="evenodd"/><path d="M112.56,166.64l2-.06.5,5.1L113,172l-.44-5.31" fill="#335061" fill-rule="evenodd"/><path d="M113.12,166.64l3.09-.17,1.28-3.37c0-.17,1.1-4.65,1.1-4.65l-2.49-2.6-.5-.44-1.32,1.33v5.14l-1.17,4.76" fill="#335061" fill-rule="evenodd"/><path d="M114.5,166.25l-1.94.39.28,1.55c.72.33,1.94-.55,1.94-.55m-.23-11.07,3.88,2.88.11-1.33-2.93-2.71-1,1.16" fill="#49728b" fill-rule="evenodd"/><path d="M106,177.54l-1.15-4.65-.56-3.43-.1-2.54,5.19-.28h3.22l-.29,5.83.5,4.48-.06.83-4.2.33-2.55-.55" fill="#fff" fill-rule="evenodd"/><path d="M111.84,166.58a48.71,48.71,0,0,0,.55,9.84,10.62,10.62,0,0,1-4.09,1.33l4.65-.17.55-.33-.66-9.07-.17-1.94" fill="#dcd9d8" fill-rule="evenodd"/><path d="M115.2,171.23l2.16-.6,4.1-.22.6-1.89-1.1-3.26-1.28-.17-1.77.56-1.7.82-.9-.16-.7.27" fill="#fff" fill-rule="evenodd"/><path d="M115.16,170.13a7.86,7.86,0,0,1,1.66-.61l-.6-3.05.72-.27.49,3.21,3.38.16a5.06,5.06,0,0,0,.5-2.59l.61,1.77,0,1-.88,1.33-1,.22-1.66-.06-.55-.72-1.94.28-.61.22" fill="#dcd9d8" fill-rule="evenodd"/><path d="M113,166.2l-1.22-3.1-1.27-1.83s.28-.77.66-.77h1.28l1.21.44-.11,2.05L113,166.2" fill="#fff"/><path d="M113.23,165.15a25.93,25.93,0,0,1-1.55-3.43s.27-.67.66-.5,1.22.61,1.22.61v-1.05l-1.88-.39-1.28.16,2.16,5.1.44,0" fill="#dcd9d8" fill-rule="evenodd"/><path d="M106.46,157.84l-1.54-.17-1.44-.44v.5l.71.77,2.2,1" fill="#fff"/><path d="M104,158a6.07,6.07,0,0,0,2.27.55l.06.67-1.55-.34-.94-.66L104,158" fill="#dcd9d8" fill-rule="evenodd"/><path d="M115.2,160.69a10.58,10.58,0,0,1-2.53-.35c0-.31,0-.61,0-.83a2,2,0,0,1,.87-.18,1.61,1.61,0,0,0-1-.11,1.47,1.47,0,0,0-.16-.5c.53-.19,1.78-1.43,2.48-1,.33.2.47,1.31.5,1.85a1.94,1.94,0,0,1-.22,1.14" fill="#d33833" fill-rule="evenodd"/><path d="M115.2,160.69a10.58,10.58,0,0,1-2.53-.35c0-.31,0-.61,0-.83a2,2,0,0,1,.87-.18,1.61,1.61,0,0,0-1-.11,1.47,1.47,0,0,0-.16-.5c.53-.19,1.78-1.43,2.48-1,.33.2.47,1.31.5,1.85A1.94,1.94,0,0,1,115.2,160.69Z" fill="none" stroke="#d33833" stroke-miterlimit="8" stroke-width="0.51"/><path d="M110.71,159.15v.22c-.3.19-.77.19-1.09.35a2.69,2.69,0,0,1,1.17.3l0,.53a18.5,18.5,0,0,1-1.66,1.26,4.19,4.19,0,0,1-1.67.51c-.18,0-.19-.26-.26-.47a6.65,6.65,0,0,1-.54-1.85c0-.86-.13-2.3.8-2.12a8.23,8.23,0,0,1,2.19.8,2.23,2.23,0,0,0,1.09.47" fill="#d33833" fill-rule="evenodd"/><path d="M110.71,159.15v.22c-.3.19-.77.19-1.09.35a2.69,2.69,0,0,1,1.17.3l0,.53a18.5,18.5,0,0,1-1.66,1.26,4.19,4.19,0,0,1-1.67.51c-.18,0-.19-.26-.26-.47a6.65,6.65,0,0,1-.54-1.85c0-.86-.13-2.3.8-2.12a8.23,8.23,0,0,1,2.19.8,2.23,2.23,0,0,0,1.09.47Z" fill="none" stroke="#d33833" stroke-miterlimit="8" stroke-width="0.51"/><path d="M111.24,160.17a3.11,3.11,0,0,1-.14-1c1.25-.83,1.48,1.43.14,1" fill="#d33833" fill-rule="evenodd"/><path d="M111.24,160.17a3.11,3.11,0,0,1-.14-1C112.35,158.33,112.58,160.59,111.24,160.17Z" fill="none" stroke="#d33833" stroke-miterlimit="8" stroke-width="0.51"/><path d="M113,160.55s-.38-.55-.11-.72.56,0,.72-.27,0-.45.06-.78.33-.39.61-.44,1.05-.17,1.16.11l-.33-1-.67-.22-2.1,1.22-.11.61v1.21m-5,2.11-.21-2.59c-.13-1.29.31-1.07,1.42-1.07a3,3,0,0,1,1.11.34c.31.61-.51.48.35.94s2-.24,1.7-1.11c-.16-.19-.84-.06-1.09-.19l-1.3-.67c-.55-.28-1.82-.7-2.4-.3-1.49,1,.09,3.53.62,4.59" fill="#ef3d3a" fill-rule="evenodd"/><path d="M108.69,142.77c-1.51-.35-2.26.63-2.72,1.65-.4-.1-.26-.65-.13-.94a2.54,2.54,0,0,1,2.25-1.59c.38.06.9.41.61.88m7.34,1.71h.07a15.49,15.49,0,0,0,1.07,2.07c-.29.67-2.19,1.26-2.16.06.41-.18,1.12,0,1.48-.27a4,4,0,0,1-.46-1.88m-6.58,0a6.27,6.27,0,0,0,.89,1.66c.21.2.61.45.41,1a1.31,1.31,0,0,1-.58.49c-.72.21-2.4,0-1.82-.86.6,0,1.4.39,1.84,0-.34-.55-1-1.63-.72-2.26m6.3,6a6,6,0,0,1-4.06,1.28,1.22,1.22,0,0,1-.16-1.55c.2.33.08.94.61,1,1,.17,2.18-.62,2.9-.89.45-.76,0-1-.44-1.52-.83-1-1.94-2.24-1.9-3.73.33-.24.36.37.41.48a13.8,13.8,0,0,0,2.31,3.17c.2.22.52.42.55.56.11.41-.26.9-.22,1.18m-14.28-.74c-.34-.19-.42-1-.82-1.07-.57,0-.46,1.11-.46,1.77a2.08,2.08,0,0,1-.17-2c-.33-.16-.48.18-.66.3.23-1.7,2.49-.78,2.11,1m15,1.43a3.15,3.15,0,0,1-2.7,2,3.9,3.9,0,0,1,0-1,7.75,7.75,0,0,0,2.7-1.07m-7.08.62a9.37,9.37,0,0,0,4,.51,4.26,4.26,0,0,1,.07,1c-1.64.08-3.59-.32-4-1.48m-.18.92c.65,1.64,2.89,1.45,4.78,1.41a1,1,0,0,1-.49.55,4.73,4.73,0,0,1-3.11,0,4.43,4.43,0,0,1-1.17-1.3c-.13-.18-.84-.65,0-.65" fill="#231f20" fill-rule="evenodd"/><path d="M115.69,161.82l-2.4,3.81a18.52,18.52,0,0,0,.6-4.42,1.39,1.39,0,0,1,1.8.61" fill="#81b0c4" fill-rule="evenodd"/><path d="M119.81,166.52c-.86.18-1.46,1-2.3.95a2.83,2.83,0,0,1,2.3-.95m.37,1.35A13.65,13.65,0,0,1,118,168c.33-.52,1.63-.34,2.22-.13m.25,1.15c-.79,0-1.76,0-2.51-.06.44-.47,2-.18,2.51.06" fill="#231f20" fill-rule="evenodd"/><path d="M114.21,172.18a17.73,17.73,0,0,1,.46,3.07,3.4,3.4,0,0,1-1.27.27l-.12-3.2c.28,0,.7-.2.93-.12" fill="#dcd9d8" fill-rule="evenodd"/><path d="M113,157.66c-.39.26-.73.58-1.11.86a2.44,2.44,0,0,1-1.91-.54s.07,0,.07-.07c.9.4,2-.17,3-.25" fill="#f0d6b7" fill-rule="evenodd"/><path d="M108.23,163.78c.25-1.07,1.22-1.62,2.1-2.21a18,18,0,0,1,2.06,4.06,21.94,21.94,0,0,1-4.16-1.85" fill="#81b0c4" fill-rule="evenodd"/><path d="M113.28,172.33c0,.87.08,2.27.12,3.19a3.32,3.32,0,0,0,1.27-.27,18.47,18.47,0,0,0-.45-3.06c-.23-.07-.65.16-.94.12Zm-9-5a46.14,46.14,0,0,0,2,9.6,12.72,12.72,0,0,0,7,.13c-.37-1.76-.21-3.91-.42-5.79l-.3-4.27a23.88,23.88,0,0,0-8.22.32Zm8.8-.31c0,1.52.07,3,.18,4.52l1.52-.26a34.56,34.56,0,0,0-.51-4.39,3.43,3.43,0,0,0-1.19.13Zm3-.24a3.53,3.53,0,0,0-.86,0l.51,3.89a3.52,3.52,0,0,0,1-.25,7.77,7.77,0,0,0-.65-3.64Zm4.46,4.08a1.92,1.92,0,0,0,1.16-2.36,10.86,10.86,0,0,0-.76-2.57c-.22-.35-.84-.8-1.34-.48-.8.51-2.22.66-2.81,1.28a20.16,20.16,0,0,1,.51,3.57c1,.06,2.24-.28,3.08.08a11.64,11.64,0,0,0-1.85.47,3.79,3.79,0,0,0,2,0Zm-8-5.26a17.21,17.21,0,0,0-2.06-4.06c-.88.59-1.85,1.15-2.09,2.22a20.94,20.94,0,0,0,4.15,1.84Zm1.5-4.42a18.52,18.52,0,0,1-.6,4.42,32.71,32.71,0,0,0,2.4-3.81,1.38,1.38,0,0,0-1.8-.61Zm-1.68-.6c-.35,0-.64.39-1.09.2l-.3.35c1,1.19,1.43,2.88,2.2,4.28a18.78,18.78,0,0,0,.46-4.28c-.56,0-.88-.51-1.27-.55Zm-1.09-1.44a2.89,2.89,0,0,0,.14,1C112.61,160.6,112.37,158.34,111.13,159.17Zm-1.49-.49a8.23,8.23,0,0,0-2.19-.8c-.92-.18-.84,1.26-.8,2.12a6.89,6.89,0,0,0,.54,1.85c.07.21.09.43.27.47a4.15,4.15,0,0,0,1.66-.51,17.56,17.56,0,0,0,1.66-1.26l0-.53a2.73,2.73,0,0,0-1.18-.3,10.71,10.71,0,0,0,1.09-.35v-.22a2.23,2.23,0,0,1-1.09-.47Zm-5.51-1c-.48.48,1.34,1.15,1.92,1.18,0-.3.18-.59.14-.82a6.18,6.18,0,0,1-2.06-.36Zm5.9.23s-.07,0-.08.06a2.4,2.4,0,0,0,1.92.54l1.11-.85C112.07,157.74,110.93,158.3,110,157.91Zm5.42,1.64c0-.54-.17-1.65-.51-1.85-.7-.41-1.94.83-2.47,1a1.53,1.53,0,0,1,.16.51,1.5,1.5,0,0,1,1,.1,2.1,2.1,0,0,0-.87.19c-.07.22,0,.51,0,.82a10.66,10.66,0,0,0,2.53.35A1.92,1.92,0,0,0,115.45,159.55Zm-12.13-1.4c-.15-.11-1.17-1.43-1.3-1.38a22,22,0,0,0-5.1,3.17,27.89,27.89,0,0,1,2.17,10.73c1.68.78,3.15,1.92,5.43,2l-.65-5.29c-.58-.24-1.4,0-1.93-.07,0-.65.82-.29.88-.72s-.45-.35-.28-.87c.41.15.63.49,1.08.61.41-.89,0-2.47,0-3.23,0-.14.07-.78.39-.67s0,1.7,0,2.4-.08,1.3.19,1.69a61.54,61.54,0,0,1,6.82-.55,17.72,17.72,0,0,1-1.83-.83c-.37-.2-1.53-.64-1.64-1-.17-.56.45-.86.55-1.34-1.11.6-1.33-.59-1.59-1.43a9.94,9.94,0,0,1-.43-1.77,17.92,17.92,0,0,1-2.81-1.51Zm11.15-1.22c1.54-.74,1.81,2.79,1.21,3.92.1.34.42.47.55.77l-2.68,4.48c.65-.4,1.58-.07,2.33-.38.28-.11.48-.75.69-1.27a28,28,0,0,0,1.47-4.53,6.23,6.23,0,0,0,.19-1.24c-.07-.49-.73-.85-1.07-1.17l-1.66-1.57c-.26.39-.82.65-1,1ZM99.78,143.32c-.73.81-.57,2.31-.49,3.39a2,2,0,0,1,3.06,1.48c.64,0,.24-.79.13-1.29-.38-1.62.63-3.39,0-4.87a4.06,4.06,0,0,0-2.74,1.29Zm5.24-4.67c-1.66.47-3.78,1.67-4.46,3.16.53-.08.89-.34,1.41-.39a3.74,3.74,0,0,0,.68,0c.45-.11.83-1.12,1.17-1.5s.73-.52,1-.85c.17-.09.43-.08.44-.35a.34.34,0,0,0-.26-.12Zm8.61.44c-1.72-1-4.62-1.69-6.45-.78-1.48.73-3.47,1.95-4.15,3.49.63,1.49-.19,2.85-.24,4.36,0,.81.38,1.51.41,2.38-.22.36-.88.41-1.34.38-.16-.77-.43-1.64-1.22-1.73a1.86,1.86,0,0,0-2,1.79c-.06,1.14.88,3.05,2.22,2.91.51,0,.64-.57,1.2-.56.31.61-.47.8-.55,1.23a3.65,3.65,0,0,0,.12.76,10.29,10.29,0,0,0,1.31,3.06c.68,1,2,1.11,3.43,1.21.26-.55,1.2-.51,1.81-.36a6,6,0,0,1-2-1.62,4,4,0,0,1-1.34-2.42c1.22,1.7,2.24,3.19,4.47,3.94,1.68.56,3.65-.26,5-1.17a5.63,5.63,0,0,0,1.24-1.53,13,13,0,0,0,1.95-7.84,8.58,8.58,0,0,0-.45-3.14c-.41-.82-1.8-1.56-2.62-.81-.15-.81.68-1.3,1.65-1a9,9,0,0,0-2.41-2.53Zm3.2,26.49c1.35-.66,3.85-1.79,4.7,0a15.15,15.15,0,0,1,.83,2.46c.23,1-.26,3-1.24,3.32a5.85,5.85,0,0,1-3,.06,1.5,1.5,0,0,1-.36-.47,4.08,4.08,0,0,0-2.06.35c.06.56-.32.65-.67.76-.26,1,.52,2.4.34,3.35-.14.67-1,.78-1.58.9a5.28,5.28,0,0,0,.07,1,1.53,1.53,0,0,1-1.36.88,17.11,17.11,0,0,1-6.8-.34c-.52-1.28-.93-2.84-1.37-4.31-1.83.19-3.31-.79-4.71-1.44-.48-.22-1.16-.35-1.33-.73a7.09,7.09,0,0,1-.15-1.76,27.89,27.89,0,0,0-.64-5.15c-.21-.79-.56-1.49-.81-2.25a16.93,16.93,0,0,1-.74-2.29c-.15-1,.83-1.1,1.46-1.56,1-.69,1.73-1.08,2.79-1.71a6.15,6.15,0,0,0,1.36-.88c.21-.44-.37-1-.52-1.39a4.31,4.31,0,0,1-.41-1.52,2.92,2.92,0,0,1-2-1.25,4.83,4.83,0,0,1-.56-4.18,4.18,4.18,0,0,0,.31-.49,6.35,6.35,0,0,0-.14-1.12c-.06-1.79.31-3.34,1.51-3.88.5-1.94,2.25-2.6,3.9-3.58a12.51,12.51,0,0,1,2-.85c2.52-.93,6.4-.75,8.49.83a11.36,11.36,0,0,1,2.82,3.12c1.34,2.71,1.25,7.25.31,10.55a10.58,10.58,0,0,1-.57,1.62c-.18.37-.73,1.11-.66,1.44s1.26,1.25,1.52,1.5c.46.44,1.33,1,1.4,1.59a5.6,5.6,0,0,1-.43,2l-1.79,5.41" fill="#231f20" fill-rule="evenodd"/><path d="M107.88,152.28c.07-.1.47-.24,1,0,0,0-.66.11-.61,1.21l-.27-.05s-.29-1-.15-1.19" fill="#f7e4cd" fill-rule="evenodd"/><path d="M112.73,161.8a.31.31,0,0,1-.61,0,.31.31,0,1,1,.61,0m.3,1.42a.3.3,0,0,1-.3.31.31.31,0,0,1-.31-.31.3.3,0,0,1,.31-.3.29.29,0,0,1,.3.3" fill="#1d1919" fill-rule="evenodd"/><rect x="80.88" y="0.58" width="54.67" height="54.67" rx="3" fill="#fff"/><path d="M132.54,55.82H83.88a3.59,3.59,0,0,1-3.58-3.58V3.58A3.59,3.59,0,0,1,83.88,0h48.66a3.58,3.58,0,0,1,3.58,3.58V52.24A3.58,3.58,0,0,1,132.54,55.82ZM83.88,1.15a2.43,2.43,0,0,0-2.43,2.43V52.24a2.43,2.43,0,0,0,2.43,2.43h48.66A2.43,2.43,0,0,0,135,52.24V3.58a2.43,2.43,0,0,0-2.43-2.43Z" fill="#e87474"/><path d="M96.06,68.79l-2.42-6.33h0c.05.5.07,1.1.07,1.79v4.54H92.9V61.65h1.25l2.27,5.89h0l2.28-5.89H100v7.14h-.83v-4.6c0-.53,0-1.1.07-1.72h0l-2.44,6.32Z"/><path d="M105.1,68.79l-.16-.76h0a2.31,2.31,0,0,1-.8.68,2.37,2.37,0,0,1-1,.18,1.81,1.81,0,0,1-1.25-.41,1.51,1.51,0,0,1-.45-1.17c0-1.08.86-1.65,2.59-1.7l.91,0v-.33a1.36,1.36,0,0,0-.27-.93,1.12,1.12,0,0,0-.87-.3,3.58,3.58,0,0,0-1.51.41l-.25-.62a3.84,3.84,0,0,1,1.81-.46,2,2,0,0,1,1.42.43,1.75,1.75,0,0,1,.46,1.36v3.65Zm-1.83-.57a1.63,1.63,0,0,0,1.19-.42,1.51,1.51,0,0,0,.43-1.16v-.48l-.81,0a3,3,0,0,0-1.39.3.91.91,0,0,0-.43.83.83.83,0,0,0,.27.67A1.09,1.09,0,0,0,103.27,68.22Z"/><path d="M110.82,67.33a1.33,1.33,0,0,1-.55,1.15,2.61,2.61,0,0,1-1.56.41,3.38,3.38,0,0,1-1.67-.34V67.8a4.57,4.57,0,0,0,.83.31,3.74,3.74,0,0,0,.85.11,2,2,0,0,0,1-.2.71.71,0,0,0,.07-1.16,4.44,4.44,0,0,0-1.06-.52,6.12,6.12,0,0,1-1.06-.49,1.5,1.5,0,0,1-.47-.47,1.22,1.22,0,0,1-.15-.63,1.21,1.21,0,0,1,.53-1,2.5,2.5,0,0,1,1.46-.38,4.34,4.34,0,0,1,1.69.35l-.29.66A3.85,3.85,0,0,0,109,64a1.71,1.71,0,0,0-.87.18.57.57,0,0,0-.29.5.61.61,0,0,0,.11.36,1,1,0,0,0,.36.29,7.2,7.2,0,0,0,.93.4,3.36,3.36,0,0,1,1.29.7A1.23,1.23,0,0,1,110.82,67.33Z"/><path d="M113.87,68.22a3,3,0,0,0,.42,0l.31-.07v.62a1.45,1.45,0,0,1-.39.11,4.09,4.09,0,0,1-.46,0c-1,0-1.55-.55-1.55-1.64V64.07h-.77v-.39l.77-.34.34-1.14H113v1.24h1.55v.63H113v3.15a1.09,1.09,0,0,0,.23.74A.8.8,0,0,0,113.87,68.22Z"/><path d="M117.93,68.89a2.46,2.46,0,0,1-1.87-.72,2.81,2.81,0,0,1-.68-2A3.15,3.15,0,0,1,116,64.1a2.12,2.12,0,0,1,1.71-.76,2.05,2.05,0,0,1,1.6.66,2.55,2.55,0,0,1,.58,1.75v.51h-3.69a2.13,2.13,0,0,0,.48,1.43,1.64,1.64,0,0,0,1.27.49,4.3,4.3,0,0,0,1.71-.36v.72a4.27,4.27,0,0,1-.81.27A5,5,0,0,1,117.93,68.89ZM117.71,64a1.3,1.3,0,0,0-1,.42,2,2,0,0,0-.46,1.16H119a1.76,1.76,0,0,0-.34-1.17A1.21,1.21,0,0,0,117.71,64Z"/><path d="M123.72,63.34a3,3,0,0,1,.64.06l-.11.75a2.67,2.67,0,0,0-.58-.07,1.41,1.41,0,0,0-1.12.53,1.94,1.94,0,0,0-.46,1.31v2.87h-.81V63.44H122l.09,1h0a2.38,2.38,0,0,1,.72-.81A1.69,1.69,0,0,1,123.72,63.34Z"/><path d="M122.36,27.93a14.53,14.53,0,1,1-29,0,14.53,14.53,0,1,1,29.05,0" fill="#d33833" fill-rule="evenodd"/><path d="M93.9,31.61s-1.06-15.5,13.22-15.94l-1-1.66L98.38,16.6l-2.2,2.54-1.94,3.71-1.11,4.32.34,2.88" fill="#ef3d3a"/><path d="M97.88,17.79a14.65,14.65,0,0,0,0,20.39,13.86,13.86,0,0,0,19.9,0,14.65,14.65,0,0,0,0-20.39,13.86,13.86,0,0,0-19.9,0Zm-.64,21a15.53,15.53,0,0,1,0-21.64,14.75,14.75,0,0,1,21.19,0,15.55,15.55,0,0,1,0,21.64,14.75,14.75,0,0,1-21.19,0" fill="#231f20"/><path d="M114,28l-2.2.33-3,.34-1.94.05-1.88-.05-1.44-.45-1.28-1.38-1-2.82-.22-.61L99.68,23,98.9,21.7l-.56-1.82L99,18.27l1.44-.5,1.16.56.55,1.21.67-.11.22-.27-.22-1.28-.06-1.6.34-2.2,0-1.27,1-1.61,1.77-1.27,3.1-1.34,3.43.49,3,2.16,1.38,2.2.89,1.61.22,4-.66,3.43-1.22,3-1.16,1.61" fill="#f0d6b7" fill-rule="evenodd"/><path d="M112.06,37.58l-7.91.34v1.33l.66,4.64-.33.39L99,42.4l-.39-.66L98,35.48l-1.28-3.76-.27-.88,4.42-3.05,1.39-.55,1.22,1.49,1.05.94,1.21.39.56.17.66,2.88.5.6,1.27-.44L107.86,35l4.81,2.27-.61.33" fill="#335061" fill-rule="evenodd"/><path d="M99,18.27l1.44-.5,1.16.56.55,1.21.67-.11.16-.66-.33-1.27.33-3.05-.27-1.66,1-1.16,2.16-1.72-.61-.82-3,1.49-1.27,1-.72,1.55-1.11,1.49-.33,1.77L99,18.27" fill="#6d6b6d" fill-rule="evenodd"/><path d="M101.22,13.07s.82-2.05,4.15-3,.16-.72.16-.72l-3.6,1.38-1.38,1.39-.61,1.1,1.27-.11m-1.65,4.81s-1.17-3.87,3.26-4.42l-.16-.67-3,.72-.89,2.88L99,18.27l.61-.39" fill="#dcd9d8" fill-rule="evenodd"/><path d="M101.33,23l.72-.7a.46.46,0,0,0,.38.42c.06.39.22,3.88,2.59,5.76.22.17-1.77-.28-1.77-.28l-1.77-2.76m10-3.49s.13-1.68.58-1.55a.62.62,0,0,1,.45.58s-1.09.71-1,1" fill="#f7e4cd" fill-rule="evenodd"/><path d="M116.1,15.83s-.91.2-1,1,1,.17,1.16.11m-6.85-1.05s-1.22.17-1.22.94,1.39.72,1.77.39" fill="#f7e4cd"/><path d="M101.88,19.49s-2.1-1.27-2.32-.06-.72,2.11.33,3.38l-.72-.22-.66-1.72-.22-1.66,1.27-1.33L101,18l.83.66,0,.83m1-3.49s.94-4.87,5.7-5.82c3.92-.78,6,.16,6.75,1.05,0,0-3.49-4.15-6.81-2.88s-5.75,3.62-5.7,5.1l.05,2.55m12.84-4.21s-1.6,0-1.66,1.39a1.36,1.36,0,0,0,.11.44s1.28-1.44,2-.66m-7.52.81s-.28-2.21-2.16-.92c-1.22.82-1.11,2-.89,2.2s.17.66.33.36.12-1.3.73-1.58,1.6-.59,2-.07" fill="#f7e4cd" fill-rule="evenodd"/><path d="M103.49,28.73l-5.21,2.33s2.16,8.57,1,11.23L98.56,42l-.06-3.26-1.43-6.19-.61-1.71,5.43-3.66,1.61,1.55m.52,4.73.74.91V37.7h-.88l-.11-2.59c0-.28.11-1.28.11-1.28m.16,4.36-2.49.11.72.5,1.77.28" fill="#49728b" fill-rule="evenodd"/><path d="M112.56,37.64l2-.06.5,5.1L113,43l-.44-5.31" fill="#335061" fill-rule="evenodd"/><path d="M113.12,37.64l3.09-.17,1.28-3.37c0-.17,1.1-4.65,1.1-4.65l-2.49-2.6-.5-.44-1.32,1.33v5.14l-1.17,4.76" fill="#335061" fill-rule="evenodd"/><path d="M114.5,37.25l-1.94.39.28,1.55c.72.33,1.94-.55,1.94-.55m-.23-11.07,3.88,2.88.11-1.33-2.93-2.71-1,1.16" fill="#49728b" fill-rule="evenodd"/><path d="M106,48.54l-1.15-4.65-.56-3.43-.1-2.54,5.19-.28h3.22l-.29,5.83.5,4.48-.06.83-4.2.33L106,48.56" fill="#fff" fill-rule="evenodd"/><path d="M111.84,37.58a48.71,48.71,0,0,0,.55,9.84,10.62,10.62,0,0,1-4.09,1.33l4.65-.17.55-.33-.66-9.07-.17-1.94" fill="#dcd9d8" fill-rule="evenodd"/><path d="M115.2,42.23l2.16-.6,4.1-.22.6-1.89L121,36.26l-1.28-.17-1.77.56-1.7.82-.9-.16-.7.27" fill="#fff" fill-rule="evenodd"/><path d="M115.16,41.13a7.86,7.86,0,0,1,1.66-.61l-.6-3.05.72-.27.49,3.21,3.38.16a5.06,5.06,0,0,0,.5-2.59l.61,1.77,0,1-.88,1.33-1,.22-1.66-.06-.55-.72-1.94.28-.61.22" fill="#dcd9d8" fill-rule="evenodd"/><path d="M113,37.2l-1.22-3.1-1.27-1.83s.28-.77.66-.77h1.28l1.21.44L113.54,34,113,37.2" fill="#fff"/><path d="M113.23,36.15a25.93,25.93,0,0,1-1.55-3.43s.27-.67.66-.5,1.22.61,1.22.61v-1l-1.88-.39-1.28.16,2.16,5.1.44.05" fill="#dcd9d8" fill-rule="evenodd"/><path d="M106.46,28.84l-1.54-.17-1.44-.44v.5l.71.77,2.2,1" fill="#fff"/><path d="M104,29a6.07,6.07,0,0,0,2.27.55l.06.67-1.55-.34-.94-.66L104,29" fill="#dcd9d8" fill-rule="evenodd"/><path d="M115.2,31.69a10.58,10.58,0,0,1-2.53-.35c0-.31,0-.61,0-.83a2,2,0,0,1,.87-.18,1.61,1.61,0,0,0-1-.11,1.47,1.47,0,0,0-.16-.5c.53-.19,1.78-1.43,2.48-1,.33.2.47,1.31.5,1.85a1.94,1.94,0,0,1-.22,1.14" fill="#d33833" fill-rule="evenodd"/><path d="M115.2,31.69a10.58,10.58,0,0,1-2.53-.35c0-.31,0-.61,0-.83a2,2,0,0,1,.87-.18,1.61,1.61,0,0,0-1-.11,1.47,1.47,0,0,0-.16-.5c.53-.19,1.78-1.43,2.48-1,.33.2.47,1.31.5,1.85A1.94,1.94,0,0,1,115.2,31.69Z" fill="none" stroke="#d33833" stroke-miterlimit="8" stroke-width="0.51"/><path d="M110.71,30.15v.22c-.3.19-.77.19-1.09.35a2.69,2.69,0,0,1,1.17.3l0,.53a18.5,18.5,0,0,1-1.66,1.26,4.19,4.19,0,0,1-1.67.51c-.18,0-.19-.26-.26-.47a6.65,6.65,0,0,1-.54-1.85c0-.86-.13-2.3.8-2.12a8.23,8.23,0,0,1,2.19.8,2.23,2.23,0,0,0,1.09.47" fill="#d33833" fill-rule="evenodd"/><path d="M110.71,30.15v.22c-.3.19-.77.19-1.09.35a2.69,2.69,0,0,1,1.17.3l0,.53a18.5,18.5,0,0,1-1.66,1.26,4.19,4.19,0,0,1-1.67.51c-.18,0-.19-.26-.26-.47a6.65,6.65,0,0,1-.54-1.85c0-.86-.13-2.3.8-2.12a8.23,8.23,0,0,1,2.19.8,2.23,2.23,0,0,0,1.09.47Z" fill="none" stroke="#d33833" stroke-miterlimit="8" stroke-width="0.51"/><path d="M111.24,31.17a3.11,3.11,0,0,1-.14-1c1.25-.83,1.48,1.43.14,1" fill="#d33833" fill-rule="evenodd"/><path d="M111.24,31.17a3.11,3.11,0,0,1-.14-1C112.35,29.33,112.58,31.59,111.24,31.17Z" fill="none" stroke="#d33833" stroke-miterlimit="8" stroke-width="0.51"/><path d="M113,31.55s-.38-.55-.11-.72.56,0,.72-.27,0-.45.06-.78.33-.39.61-.44,1.05-.17,1.16.11l-.33-1-.67-.22-2.1,1.22-.11.61v1.21m-5,2.11L107,30.79c-.13-1.29.31-1.07,1.42-1.07a3,3,0,0,1,1.11.34c.31.61-.51.48.35.94s2-.24,1.7-1.11c-.16-.19-.84-.06-1.09-.19L109.2,29c-.55-.28-1.82-.7-2.4-.3-1.49,1,.09,3.53.62,4.59" fill="#ef3d3a" fill-rule="evenodd"/><path d="M108.69,13.77c-1.51-.35-2.26.63-2.72,1.65-.4-.1-.26-.65-.13-.94a2.54,2.54,0,0,1,2.25-1.59c.38.06.9.41.61.88M116,15.48h.07a15.49,15.49,0,0,0,1.07,2.07c-.29.67-2.19,1.26-2.16.06.41-.18,1.12,0,1.48-.27a4,4,0,0,1-.46-1.88m-6.58,0a6.27,6.27,0,0,0,.89,1.66c.21.2.61.45.41,1a1.31,1.31,0,0,1-.58.49c-.72.21-2.4,0-1.82-.86.6,0,1.4.39,1.84,0-.34-.55-1-1.63-.72-2.26m6.3,6a6,6,0,0,1-4.06,1.28,1.22,1.22,0,0,1-.16-1.55c.2.33.08.94.61,1,1,.17,2.18-.62,2.9-.89.45-.76,0-1-.44-1.52-.83-1-1.94-2.24-1.9-3.73.33-.24.36.37.41.48a13.8,13.8,0,0,0,2.31,3.17c.2.22.52.42.55.56.11.41-.26.9-.22,1.18M101.5,20.8c-.34-.19-.42-1-.82-1.07-.57,0-.46,1.11-.46,1.77a2.08,2.08,0,0,1-.17-2c-.33-.16-.48.18-.66.3.23-1.7,2.49-.78,2.11,1m15,1.43a3.15,3.15,0,0,1-2.7,2,3.9,3.9,0,0,1,0-1,7.75,7.75,0,0,0,2.7-1.07m-7.08.62a9.37,9.37,0,0,0,4,.51,4.26,4.26,0,0,1,.07,1c-1.64.08-3.59-.32-4-1.48m-.18.92c.65,1.64,2.89,1.45,4.78,1.41a1,1,0,0,1-.49.55,4.73,4.73,0,0,1-3.11,0,4.43,4.43,0,0,1-1.17-1.3c-.13-.18-.84-.65,0-.65" fill="#231f20" fill-rule="evenodd"/><path d="M115.69,32.82l-2.4,3.81a18.52,18.52,0,0,0,.6-4.42,1.39,1.39,0,0,1,1.8.61" fill="#81b0c4" fill-rule="evenodd"/><path d="M119.81,37.52c-.86.18-1.46,1-2.3.95a2.83,2.83,0,0,1,2.3-.95m.37,1.35A13.65,13.65,0,0,1,118,39c.33-.52,1.63-.34,2.22-.13m.25,1.15c-.79,0-1.76,0-2.51-.06.44-.47,2-.18,2.51.06" fill="#231f20" fill-rule="evenodd"/><path d="M114.21,43.18a17.73,17.73,0,0,1,.46,3.07,3.4,3.4,0,0,1-1.27.27l-.12-3.2c.28,0,.7-.2.93-.12" fill="#dcd9d8" fill-rule="evenodd"/><path d="M113,28.66c-.39.26-.73.58-1.11.86a2.44,2.44,0,0,1-1.91-.54s.07,0,.07-.07c.9.4,2-.17,3-.25" fill="#f0d6b7" fill-rule="evenodd"/><path d="M108.23,34.78c.25-1.07,1.22-1.62,2.1-2.21a18,18,0,0,1,2.06,4.06,21.94,21.94,0,0,1-4.16-1.85" fill="#81b0c4" fill-rule="evenodd"/><path d="M113.28,43.33c0,.87.08,2.27.12,3.19a3.32,3.32,0,0,0,1.27-.27,18.47,18.47,0,0,0-.45-3.06c-.23-.07-.65.16-.94.12Zm-9-5a46.14,46.14,0,0,0,2,9.6,12.72,12.72,0,0,0,7,.13c-.37-1.76-.21-3.91-.42-5.79l-.3-4.27a23.88,23.88,0,0,0-8.22.32Zm8.8-.31c0,1.52.07,3,.18,4.52l1.52-.26a34.56,34.56,0,0,0-.51-4.39,3.43,3.43,0,0,0-1.19.13Zm3-.24a3.53,3.53,0,0,0-.86,0l.51,3.89a3.52,3.52,0,0,0,1-.25,7.77,7.77,0,0,0-.65-3.64Zm4.46,4.08a1.92,1.92,0,0,0,1.16-2.36,10.86,10.86,0,0,0-.76-2.57c-.22-.35-.84-.8-1.34-.48-.8.51-2.22.66-2.81,1.28a20.16,20.16,0,0,1,.51,3.57c1,.06,2.24-.28,3.08.08a11.64,11.64,0,0,0-1.85.47,3.79,3.79,0,0,0,2,0Zm-8-5.26a17.21,17.21,0,0,0-2.06-4.06c-.88.59-1.85,1.15-2.09,2.22a20.94,20.94,0,0,0,4.15,1.84Zm1.5-4.42a18.52,18.52,0,0,1-.6,4.42,32.71,32.71,0,0,0,2.4-3.81,1.38,1.38,0,0,0-1.8-.61Zm-1.68-.6c-.35,0-.64.39-1.09.2l-.3.35c1,1.19,1.43,2.88,2.2,4.28a18.78,18.78,0,0,0,.46-4.28c-.56,0-.88-.51-1.27-.55Zm-1.09-1.44a2.89,2.89,0,0,0,.14,1C112.61,31.6,112.37,29.34,111.13,30.17Zm-1.49-.49a8.23,8.23,0,0,0-2.19-.8c-.92-.18-.84,1.26-.8,2.12a6.89,6.89,0,0,0,.54,1.85c.07.21.09.43.27.47a4.15,4.15,0,0,0,1.66-.51,17.56,17.56,0,0,0,1.66-1.26l0-.53a2.73,2.73,0,0,0-1.18-.3,10.71,10.71,0,0,0,1.09-.35v-.22a2.23,2.23,0,0,1-1.09-.47Zm-5.51-1c-.48.48,1.34,1.15,1.92,1.18,0-.3.18-.59.14-.82a6.18,6.18,0,0,1-2.06-.36Zm5.9.23s-.07,0-.08.06a2.4,2.4,0,0,0,1.92.54l1.11-.85C112.07,28.74,110.93,29.3,110,28.91Zm5.42,1.64c0-.54-.17-1.65-.51-1.85-.7-.41-1.94.83-2.47,1a1.53,1.53,0,0,1,.16.51,1.5,1.5,0,0,1,1,.1,2.1,2.1,0,0,0-.87.19c-.07.22,0,.51,0,.82a10.66,10.66,0,0,0,2.53.35A1.92,1.92,0,0,0,115.45,30.55Zm-12.13-1.4c-.15-.11-1.17-1.43-1.3-1.38a22,22,0,0,0-5.1,3.17,27.89,27.89,0,0,1,2.17,10.73c1.68.78,3.15,1.92,5.43,2l-.65-5.29c-.58-.24-1.4,0-1.93-.07,0-.65.82-.29.88-.72s-.45-.35-.28-.87c.41.15.63.49,1.08.61.41-.89,0-2.47,0-3.23,0-.14.07-.78.39-.67s0,1.7,0,2.4-.08,1.3.19,1.69a61.54,61.54,0,0,1,6.82-.55,17.72,17.72,0,0,1-1.83-.83c-.37-.2-1.53-.64-1.64-1-.17-.56.45-.86.55-1.34-1.11.6-1.33-.59-1.59-1.43a9.94,9.94,0,0,1-.43-1.77,17.92,17.92,0,0,1-2.81-1.51Zm11.15-1.22c1.54-.74,1.81,2.79,1.21,3.92.1.34.42.47.55.77l-2.68,4.48c.65-.4,1.58-.07,2.33-.38.28-.11.48-.75.69-1.27A28,28,0,0,0,118,30.92a6.23,6.23,0,0,0,.19-1.24c-.07-.49-.73-.85-1.07-1.17l-1.66-1.57c-.26.39-.82.65-1,1ZM99.78,14.32c-.73.81-.57,2.31-.49,3.39a2,2,0,0,1,3.06,1.48c.64,0,.24-.79.13-1.29-.38-1.62.63-3.39,0-4.87a4.06,4.06,0,0,0-2.74,1.29ZM105,9.65c-1.66.47-3.78,1.67-4.46,3.16.53-.08.89-.34,1.41-.39a3.74,3.74,0,0,0,.68,0c.45-.11.83-1.12,1.17-1.5s.73-.52,1-.85c.17-.09.43-.08.44-.35a.34.34,0,0,0-.26-.12Zm8.61.44c-1.72-1-4.62-1.69-6.45-.78-1.48.73-3.47,1.95-4.15,3.49.63,1.49-.19,2.85-.24,4.36,0,.81.38,1.51.41,2.38-.22.36-.88.41-1.34.38-.16-.77-.43-1.64-1.22-1.73a1.86,1.86,0,0,0-2,1.79c-.06,1.14.88,3.05,2.22,2.91.51-.05.64-.57,1.2-.56.31.61-.47.8-.55,1.23a3.65,3.65,0,0,0,.12.76,10.29,10.29,0,0,0,1.31,3.06c.68,1,2,1.11,3.43,1.21.26-.55,1.2-.51,1.81-.36a6,6,0,0,1-2-1.62,4,4,0,0,1-1.34-2.42c1.22,1.7,2.24,3.19,4.47,3.94,1.68.56,3.65-.26,5-1.17a5.63,5.63,0,0,0,1.24-1.53,13,13,0,0,0,1.95-7.84,8.58,8.58,0,0,0-.45-3.14c-.41-.82-1.8-1.56-2.62-.81-.15-.81.68-1.3,1.65-1a9,9,0,0,0-2.41-2.53Zm3.2,26.49c1.35-.66,3.85-1.79,4.7,0a15.15,15.15,0,0,1,.83,2.46c.23,1-.26,3-1.24,3.32a5.85,5.85,0,0,1-3,.06,1.5,1.5,0,0,1-.36-.47,4.08,4.08,0,0,0-2.06.35c.06.56-.32.65-.67.76-.26,1,.52,2.4.34,3.35-.14.67-1,.78-1.58.9a5.28,5.28,0,0,0,.07,1,1.53,1.53,0,0,1-1.36.88,17.11,17.11,0,0,1-6.8-.34c-.52-1.28-.93-2.84-1.37-4.31-1.83.19-3.31-.79-4.71-1.44-.48-.22-1.16-.35-1.33-.73a7.09,7.09,0,0,1-.15-1.76,27.89,27.89,0,0,0-.64-5.15c-.21-.79-.56-1.49-.81-2.25A16.93,16.93,0,0,1,96,30.94c-.15-1,.83-1.1,1.46-1.56,1-.69,1.73-1.08,2.79-1.71a6.15,6.15,0,0,0,1.36-.88c.21-.44-.37-1.05-.52-1.39a4.31,4.31,0,0,1-.41-1.52,2.92,2.92,0,0,1-2-1.25,4.83,4.83,0,0,1-.56-4.18,4.18,4.18,0,0,0,.31-.49,6.35,6.35,0,0,0-.14-1.12c-.06-1.79.31-3.34,1.51-3.88.5-1.94,2.25-2.6,3.9-3.58a12.51,12.51,0,0,1,2-.85c2.52-.93,6.4-.75,8.49.83a11.36,11.36,0,0,1,2.82,3.12c1.34,2.71,1.25,7.25.31,10.55a10.58,10.58,0,0,1-.57,1.62c-.18.37-.73,1.11-.66,1.44s1.26,1.25,1.52,1.5c.46.44,1.33,1,1.4,1.59a5.6,5.6,0,0,1-.43,2l-1.79,5.41" fill="#231f20" fill-rule="evenodd"/><path d="M107.88,23.28c.07-.1.47-.24,1,0,0,0-.66.11-.61,1.21l-.27-.05s-.29-1-.15-1.19" fill="#f7e4cd" fill-rule="evenodd"/><path d="M112.73,32.8a.31.31,0,0,1-.61,0,.31.31,0,1,1,.61,0m.3,1.42a.3.3,0,0,1-.3.31.31.31,0,0,1-.31-.31.3.3,0,0,1,.31-.3.29.29,0,0,1,.3.3" fill="#1d1919" fill-rule="evenodd"/><path d="M204.36,156.93a14.53,14.53,0,1,1-14.53-14.86,14.71,14.71,0,0,1,14.53,14.86" fill="#d33833" fill-rule="evenodd"/><path d="M175.9,160.61s-1.06-15.5,13.22-15.94l-1-1.66-7.74,2.59-2.2,2.54-1.94,3.71-1.11,4.32.34,2.88" fill="#ef3d3a"/><path d="M179.88,146.79a14.65,14.65,0,0,0,0,20.39,13.86,13.86,0,0,0,19.9,0,14.65,14.65,0,0,0,0-20.39,13.86,13.86,0,0,0-19.9,0Zm-.64,21a15.53,15.53,0,0,1,0-21.64,14.75,14.75,0,0,1,21.19,0,15.55,15.55,0,0,1,0,21.64,14.75,14.75,0,0,1-21.19,0" fill="#231f20"/><path d="M196,157l-2.2.33-3,.34-1.94,0-1.88,0-1.44-.45-1.28-1.38-1-2.82-.22-.61-1.33-.44-.78-1.28-.56-1.82.61-1.61,1.44-.5,1.16.56.55,1.21.67-.11.22-.27-.22-1.28-.06-1.6.34-2.2,0-1.27,1-1.61,1.77-1.27,3.1-1.34,3.43.49,3,2.16,1.38,2.2.89,1.61.22,4-.66,3.43-1.22,3-1.16,1.61" fill="#f0d6b7" fill-rule="evenodd"/><path d="M194.06,166.58l-7.91.34v1.33l.66,4.64-.33.39L181,171.4l-.39-.66-.55-6.26-1.28-3.76-.27-.88,4.42-3.05,1.39-.55,1.22,1.49,1,.94,1.21.39.56.17.66,2.88.5.6,1.27-.44-.88,1.72,4.81,2.27-.61.33" fill="#335061" fill-rule="evenodd"/><path d="M181,147.27l1.44-.5,1.16.56.55,1.21.67-.11.16-.66-.33-1.27.33-3.05-.27-1.66,1-1.16,2.16-1.72-.61-.82-3,1.49-1.27,1-.72,1.55-1.11,1.49-.33,1.77.22,1.88" fill="#6d6b6d" fill-rule="evenodd"/><path d="M183.22,142.07s.82-2,4.15-3,.16-.72.16-.72l-3.6,1.38-1.38,1.39-.61,1.1,1.27-.11m-1.65,4.81s-1.17-3.87,3.26-4.42l-.16-.67-3,.72-.89,2.88.22,1.88.61-.39" fill="#dcd9d8" fill-rule="evenodd"/><path d="M183.33,152l.72-.7a.46.46,0,0,0,.38.42c.06.39.22,3.88,2.59,5.76.22.17-1.77-.28-1.77-.28l-1.77-2.76m10-3.49s.13-1.68.58-1.55a.62.62,0,0,1,.45.58s-1.09.71-1,1" fill="#f7e4cd" fill-rule="evenodd"/><path d="M198.1,144.83s-.91.2-1,1,1,.17,1.16.11m-6.85-1.05s-1.22.17-1.22.94,1.39.72,1.77.39" fill="#f7e4cd"/><path d="M183.88,148.49s-2.1-1.27-2.32-.06-.72,2.11.33,3.38l-.72-.22-.66-1.72-.22-1.66,1.27-1.33L183,147l.83.66,0,.83m1-3.49s.94-4.87,5.7-5.82c3.92-.78,6,.16,6.75,1,0,0-3.49-4.15-6.81-2.88s-5.75,3.62-5.7,5.1l.05,2.55m12.84-4.21s-1.6,0-1.66,1.39a1.36,1.36,0,0,0,.11.44s1.28-1.44,2.05-.66m-7.52.81s-.28-2.21-2.16-.92c-1.22.82-1.11,2-.89,2.2s.17.66.33.36.12-1.3.73-1.58,1.6-.59,2-.07" fill="#f7e4cd" fill-rule="evenodd"/><path d="M185.49,157.73l-5.21,2.33s2.16,8.57,1.05,11.23l-.77-.28-.06-3.26-1.43-6.19-.61-1.71,5.43-3.66,1.61,1.55m.52,4.73.74.91v3.32h-.88l-.11-2.59c0-.28.11-1.28.11-1.28m.16,4.36-2.49.11.72.5,1.77.28" fill="#49728b" fill-rule="evenodd"/><path d="M194.56,166.64l2.05-.06.5,5.1L195,172l-.44-5.31" fill="#335061" fill-rule="evenodd"/><path d="M195.12,166.64l3.09-.17,1.28-3.37c0-.17,1.1-4.65,1.1-4.65l-2.49-2.6-.5-.44-1.32,1.33v5.14l-1.17,4.76" fill="#335061" fill-rule="evenodd"/><path d="M196.5,166.25l-1.94.39.28,1.55c.72.33,1.94-.55,1.94-.55m-.23-11.07,3.88,2.88.11-1.33-2.93-2.71-1.05,1.16" fill="#49728b" fill-rule="evenodd"/><path d="M188,177.54l-1.15-4.65-.56-3.43-.1-2.54,5.19-.28h3.22l-.29,5.83.5,4.48-.06.83-4.2.33-2.55-.55" fill="#fff" fill-rule="evenodd"/><path d="M193.84,166.58a48.71,48.71,0,0,0,.55,9.84,10.62,10.62,0,0,1-4.09,1.33l4.65-.17.55-.33-.66-9.07-.17-1.94" fill="#dcd9d8" fill-rule="evenodd"/><path d="M197.2,171.23l2.16-.6,4.1-.22.6-1.89-1.1-3.26-1.28-.17-1.77.56-1.7.82-.9-.16-.7.27" fill="#fff" fill-rule="evenodd"/><path d="M197.16,170.13a7.86,7.86,0,0,1,1.66-.61l-.6-3.05.72-.27.49,3.21,3.38.16a5.06,5.06,0,0,0,.5-2.59l.61,1.77.05,1-.88,1.33-1,.22-1.66-.06-.55-.72-1.94.28-.61.22" fill="#dcd9d8" fill-rule="evenodd"/><path d="M195,166.2l-1.22-3.1-1.27-1.83s.28-.77.66-.77h1.28l1.21.44-.11,2.05L195,166.2" fill="#fff"/><path d="M195.23,165.15a25.93,25.93,0,0,1-1.55-3.43s.27-.67.66-.5,1.22.61,1.22.61v-1.05l-1.88-.39-1.28.16,2.16,5.1.44,0" fill="#dcd9d8" fill-rule="evenodd"/><path d="M188.46,157.84l-1.54-.17-1.44-.44v.5l.71.77,2.2,1" fill="#fff"/><path d="M186,158a6.07,6.07,0,0,0,2.27.55l.06.67-1.55-.34-.94-.66L186,158" fill="#dcd9d8" fill-rule="evenodd"/><path d="M197.2,160.69a10.58,10.58,0,0,1-2.53-.35c.05-.31,0-.61,0-.83a2,2,0,0,1,.87-.18,1.61,1.61,0,0,0-1-.11,1.47,1.47,0,0,0-.16-.5c.53-.19,1.78-1.43,2.48-1,.33.2.47,1.31.5,1.85a1.94,1.94,0,0,1-.22,1.14" fill="#d33833" fill-rule="evenodd"/><path d="M197.2,160.69a10.58,10.58,0,0,1-2.53-.35c.05-.31,0-.61,0-.83a2,2,0,0,1,.87-.18,1.61,1.61,0,0,0-1-.11,1.47,1.47,0,0,0-.16-.5c.53-.19,1.78-1.43,2.48-1,.33.2.47,1.31.5,1.85A1.94,1.94,0,0,1,197.2,160.69Z" fill="none" stroke="#d33833" stroke-miterlimit="8" stroke-width="0.51"/><path d="M192.71,159.15v.22c-.3.19-.77.19-1.09.35a2.69,2.69,0,0,1,1.17.3l0,.53a18.5,18.5,0,0,1-1.66,1.26,4.19,4.19,0,0,1-1.67.51c-.18,0-.19-.26-.26-.47a6.65,6.65,0,0,1-.54-1.85c0-.86-.13-2.3.8-2.12a8.23,8.23,0,0,1,2.19.8,2.23,2.23,0,0,0,1.09.47" fill="#d33833" fill-rule="evenodd"/><path d="M192.71,159.15v.22c-.3.19-.77.19-1.09.35a2.69,2.69,0,0,1,1.17.3l0,.53a18.5,18.5,0,0,1-1.66,1.26,4.19,4.19,0,0,1-1.67.51c-.18,0-.19-.26-.26-.47a6.65,6.65,0,0,1-.54-1.85c0-.86-.13-2.3.8-2.12a8.23,8.23,0,0,1,2.19.8,2.23,2.23,0,0,0,1.09.47Z" fill="none" stroke="#d33833" stroke-miterlimit="8" stroke-width="0.51"/><path d="M193.24,160.17a3.11,3.11,0,0,1-.14-1c1.25-.83,1.48,1.43.14,1" fill="#d33833" fill-rule="evenodd"/><path d="M193.24,160.17a3.11,3.11,0,0,1-.14-1C194.35,158.33,194.58,160.59,193.24,160.17Z" fill="none" stroke="#d33833" stroke-miterlimit="8" stroke-width="0.51"/><path d="M195,160.55s-.38-.55-.11-.72.56,0,.72-.27,0-.45.06-.78.33-.39.61-.44,1.05-.17,1.16.11l-.33-1-.67-.22-2.1,1.22-.11.61v1.21m-5.05,2.11-.21-2.59c-.13-1.29.31-1.07,1.42-1.07a3,3,0,0,1,1.11.34c.31.61-.51.48.35.94s2-.24,1.7-1.11c-.16-.19-.84-.06-1.09-.19l-1.3-.67c-.55-.28-1.82-.7-2.4-.3-1.49,1,.09,3.53.62,4.59" fill="#ef3d3a" fill-rule="evenodd"/><path d="M190.69,142.77c-1.51-.35-2.26.63-2.72,1.65-.4-.1-.26-.65-.13-.94a2.54,2.54,0,0,1,2.25-1.59c.38.06.9.41.61.88m7.34,1.71h.07a15.49,15.49,0,0,0,1.07,2.07c-.29.67-2.19,1.26-2.16.06.41-.18,1.12,0,1.48-.27a4,4,0,0,1-.46-1.88m-6.58,0a6.27,6.27,0,0,0,.89,1.66c.21.2.61.45.41,1a1.31,1.31,0,0,1-.58.49c-.72.21-2.4,0-1.82-.86.6,0,1.4.39,1.84,0-.34-.55-.95-1.63-.72-2.26m6.3,6a6,6,0,0,1-4.06,1.28,1.22,1.22,0,0,1-.16-1.55c.2.33.08.94.61,1,1,.17,2.18-.62,2.9-.89.45-.76,0-1-.44-1.52-.83-1-1.94-2.24-1.9-3.73.33-.24.36.37.41.48a13.8,13.8,0,0,0,2.31,3.17c.2.22.52.42.55.56.11.41-.26.9-.22,1.18m-14.28-.74c-.34-.19-.42-1-.82-1.07-.57,0-.46,1.11-.46,1.77a2.08,2.08,0,0,1-.17-2c-.33-.16-.48.18-.66.3.23-1.7,2.49-.78,2.11,1m15,1.43a3.15,3.15,0,0,1-2.7,2,3.9,3.9,0,0,1,0-1,7.75,7.75,0,0,0,2.7-1.07m-7.08.62a9.37,9.37,0,0,0,4,.51,4.26,4.26,0,0,1,.07,1c-1.64.08-3.59-.32-4-1.48m-.18.92c.65,1.64,2.89,1.45,4.78,1.41a1,1,0,0,1-.49.55,4.73,4.73,0,0,1-3.11,0,4.43,4.43,0,0,1-1.17-1.3c-.13-.18-.84-.65,0-.65" fill="#231f20" fill-rule="evenodd"/><path d="M197.69,161.82l-2.4,3.81a18.52,18.52,0,0,0,.6-4.42,1.39,1.39,0,0,1,1.8.61" fill="#81b0c4" fill-rule="evenodd"/><path d="M201.81,166.52c-.86.18-1.46,1-2.3.95a2.83,2.83,0,0,1,2.3-.95m.37,1.35A13.65,13.65,0,0,1,200,168c.33-.52,1.63-.34,2.22-.13m.25,1.15c-.79,0-1.76,0-2.51-.06.44-.47,2-.18,2.51.06" fill="#231f20" fill-rule="evenodd"/><path d="M196.21,172.18a17.73,17.73,0,0,1,.46,3.07,3.4,3.4,0,0,1-1.27.27l-.12-3.2c.28,0,.7-.2.93-.12" fill="#dcd9d8" fill-rule="evenodd"/><path d="M195,157.66c-.39.26-.73.58-1.11.86a2.44,2.44,0,0,1-1.91-.54s.07,0,.07-.07c.9.4,2-.17,2.95-.25" fill="#f0d6b7" fill-rule="evenodd"/><path d="M190.23,163.78c.25-1.07,1.22-1.62,2.1-2.21a18,18,0,0,1,2.06,4.06,21.94,21.94,0,0,1-4.16-1.85" fill="#81b0c4" fill-rule="evenodd"/><path d="M195.28,172.33c0,.87.08,2.27.12,3.19a3.32,3.32,0,0,0,1.27-.27,18.47,18.47,0,0,0-.45-3.06c-.23-.07-.65.16-.94.12Zm-9.05-5a46.14,46.14,0,0,0,2,9.6,12.72,12.72,0,0,0,7,.13c-.37-1.76-.21-3.91-.42-5.79l-.3-4.27a23.88,23.88,0,0,0-8.22.32Zm8.8-.31c0,1.52.07,3,.18,4.52l1.52-.26a34.56,34.56,0,0,0-.51-4.39,3.43,3.43,0,0,0-1.19.13Zm2.95-.24a3.53,3.53,0,0,0-.86,0l.51,3.89a3.52,3.52,0,0,0,1-.25,7.77,7.77,0,0,0-.65-3.64Zm4.46,4.08a1.92,1.92,0,0,0,1.16-2.36,10.86,10.86,0,0,0-.76-2.57c-.22-.35-.84-.8-1.34-.48-.8.51-2.22.66-2.81,1.28a20.16,20.16,0,0,1,.51,3.57c1,.06,2.24-.28,3.08.08a11.64,11.64,0,0,0-1.85.47,3.79,3.79,0,0,0,2,0Zm-8-5.26a17.21,17.21,0,0,0-2.06-4.06c-.88.59-1.85,1.15-2.09,2.22a20.94,20.94,0,0,0,4.15,1.84Zm1.5-4.42a18.52,18.52,0,0,1-.6,4.42,32.71,32.71,0,0,0,2.4-3.81,1.38,1.38,0,0,0-1.8-.61Zm-1.68-.6c-.35,0-.64.39-1.09.2l-.3.35c1,1.19,1.43,2.88,2.2,4.28a18.78,18.78,0,0,0,.46-4.28c-.56,0-.88-.51-1.27-.55Zm-1.09-1.44a2.89,2.89,0,0,0,.14,1C194.61,160.6,194.37,158.34,193.13,159.17Zm-1.49-.49a8.23,8.23,0,0,0-2.19-.8c-.92-.18-.84,1.26-.8,2.12a6.89,6.89,0,0,0,.54,1.85c.07.21.09.43.27.47a4.15,4.15,0,0,0,1.66-.51,17.56,17.56,0,0,0,1.66-1.26l0-.53a2.73,2.73,0,0,0-1.18-.3,10.71,10.71,0,0,0,1.09-.35v-.22a2.23,2.23,0,0,1-1.09-.47Zm-5.51-1c-.48.48,1.34,1.15,1.92,1.18,0-.3.18-.59.14-.82a6.18,6.18,0,0,1-2.06-.36Zm5.9.23s-.07,0-.08.06a2.4,2.4,0,0,0,1.92.54l1.11-.85C194.07,157.74,192.93,158.3,192,157.91Zm5.42,1.64c0-.54-.17-1.65-.51-1.85-.7-.41-1.94.83-2.47,1a1.53,1.53,0,0,1,.16.51,1.5,1.5,0,0,1,1,.1,2.1,2.1,0,0,0-.87.19c-.07.22,0,.51,0,.82a10.66,10.66,0,0,0,2.53.35A1.92,1.92,0,0,0,197.45,159.55Zm-12.13-1.4c-.15-.11-1.17-1.43-1.3-1.38a22,22,0,0,0-5.1,3.17,27.89,27.89,0,0,1,2.17,10.73c1.68.78,3.15,1.92,5.43,2l-.65-5.29c-.58-.24-1.4,0-1.93-.07,0-.65.82-.29.88-.72s-.45-.35-.28-.87c.41.15.63.49,1.08.61.41-.89,0-2.47,0-3.23,0-.14.07-.78.39-.67s0,1.7,0,2.4-.08,1.3.19,1.69a61.54,61.54,0,0,1,6.82-.55,17.72,17.72,0,0,1-1.83-.83c-.37-.2-1.53-.64-1.64-1-.17-.56.45-.86.55-1.34-1.11.6-1.33-.59-1.59-1.43a9.94,9.94,0,0,1-.43-1.77,17.92,17.92,0,0,1-2.81-1.51Zm11.15-1.22c1.54-.74,1.81,2.79,1.21,3.92.1.34.42.47.55.77l-2.68,4.48c.65-.4,1.58-.07,2.33-.38.28-.11.48-.75.69-1.27a28,28,0,0,0,1.47-4.53,6.23,6.23,0,0,0,.19-1.24c-.07-.49-.73-.85-1.07-1.17l-1.66-1.57c-.26.39-.82.65-1,1Zm-14.69-13.61c-.73.81-.57,2.31-.49,3.39a2,2,0,0,1,3.06,1.48c.64,0,.24-.79.13-1.29-.38-1.62.63-3.39,0-4.87a4.06,4.06,0,0,0-2.74,1.29Zm5.24-4.67c-1.66.47-3.78,1.67-4.46,3.16.53-.08.89-.34,1.41-.39a3.74,3.74,0,0,0,.68,0c.45-.11.83-1.12,1.17-1.5s.73-.52,1-.85c.17-.09.43-.08.44-.35a.34.34,0,0,0-.26-.12Zm8.61.44c-1.72-1-4.62-1.69-6.45-.78-1.48.73-3.47,1.95-4.15,3.49.63,1.49-.19,2.85-.24,4.36,0,.81.38,1.51.41,2.38-.22.36-.88.41-1.34.38-.16-.77-.43-1.64-1.22-1.73a1.86,1.86,0,0,0-2,1.79c-.06,1.14.88,3.05,2.22,2.91.51,0,.64-.57,1.2-.56.31.61-.47.8-.55,1.23a3.65,3.65,0,0,0,.12.76,10.29,10.29,0,0,0,1.31,3.06c.68,1,2,1.11,3.43,1.21.26-.55,1.2-.51,1.81-.36a6,6,0,0,1-2-1.62,4,4,0,0,1-1.34-2.42c1.22,1.7,2.24,3.19,4.47,3.94,1.68.56,3.65-.26,5-1.17a5.63,5.63,0,0,0,1.24-1.53,13,13,0,0,0,2-7.84,8.58,8.58,0,0,0-.45-3.14c-.41-.82-1.8-1.56-2.62-.81-.15-.81.68-1.3,1.65-1a9,9,0,0,0-2.41-2.53Zm3.2,26.49c1.35-.66,3.85-1.79,4.7,0a15.15,15.15,0,0,1,.83,2.46c.23,1-.26,3-1.24,3.32a5.85,5.85,0,0,1-3,.06,1.5,1.5,0,0,1-.36-.47,4.08,4.08,0,0,0-2.06.35c.06.56-.32.65-.67.76-.26,1,.52,2.4.34,3.35-.14.67-1,.78-1.58.9a5.28,5.28,0,0,0,.07,1,1.53,1.53,0,0,1-1.36.88,17.11,17.11,0,0,1-6.8-.34c-.52-1.28-.93-2.84-1.37-4.31-1.83.19-3.31-.79-4.71-1.44-.48-.22-1.16-.35-1.33-.73a7.09,7.09,0,0,1-.15-1.76,27.89,27.89,0,0,0-.64-5.15c-.21-.79-.56-1.49-.81-2.25a16.93,16.93,0,0,1-.74-2.29c-.15-1,.83-1.1,1.46-1.56,1-.69,1.73-1.08,2.79-1.71a6.15,6.15,0,0,0,1.36-.88c.21-.44-.37-1-.52-1.39a4.31,4.31,0,0,1-.41-1.52,2.92,2.92,0,0,1-2-1.25,4.83,4.83,0,0,1-.56-4.18,4.18,4.18,0,0,0,.31-.49,6.35,6.35,0,0,0-.14-1.12c-.06-1.79.31-3.34,1.51-3.88.5-1.94,2.25-2.6,3.9-3.58a12.51,12.51,0,0,1,2-.85c2.52-.93,6.4-.75,8.49.83a11.36,11.36,0,0,1,2.82,3.12c1.34,2.71,1.25,7.25.31,10.55a10.58,10.58,0,0,1-.57,1.62c-.18.37-.73,1.11-.66,1.44s1.26,1.25,1.52,1.5c.46.44,1.33,1,1.4,1.59a5.6,5.6,0,0,1-.43,2l-1.79,5.41" fill="#231f20" fill-rule="evenodd"/><path d="M189.88,152.28c.07-.1.47-.24,1,0,0,0-.66.11-.61,1.21l-.27-.05s-.29-1-.15-1.19" fill="#f7e4cd" fill-rule="evenodd"/><path d="M194.73,161.8a.31.31,0,0,1-.61,0,.31.31,0,1,1,.61,0m.3,1.42a.3.3,0,0,1-.3.31.31.31,0,0,1-.31-.31.3.3,0,0,1,.31-.3.29.29,0,0,1,.3.3" fill="#1d1919" fill-rule="evenodd"/><path d="M28.78,93.13a1.57,1.57,0,0,1-.72-.13v-.71a2.46,2.46,0,0,0,.72.1.91.91,0,0,0,.73-.29,1.27,1.27,0,0,0,.25-.85V84.11h.83v7.07a2.06,2.06,0,0,1-.46,1.44A1.76,1.76,0,0,1,28.78,93.13Z" fill="#d65d5d"/><path d="M37,88.57a2.94,2.94,0,0,1-.66,2,2.33,2.33,0,0,1-1.82.74A2.38,2.38,0,0,1,33.23,91a2.2,2.2,0,0,1-.86-1,3.38,3.38,0,0,1-.3-1.47,3,3,0,0,1,.65-2,2.32,2.32,0,0,1,1.82-.73,2.25,2.25,0,0,1,1.78.75A2.9,2.9,0,0,1,37,88.57Zm-4.08,0a2.57,2.57,0,0,0,.41,1.56,1.62,1.62,0,0,0,2.41,0,2.51,2.51,0,0,0,.42-1.57A2.45,2.45,0,0,0,35.73,87a1.66,1.66,0,0,0-2.42,0A2.53,2.53,0,0,0,32.91,88.57Z" fill="#d65d5d"/><path d="M40.9,85.81a2,2,0,0,1,1.64.72,3.87,3.87,0,0,1,0,4.09,2,2,0,0,1-1.63.73,2.49,2.49,0,0,1-1-.19,1.8,1.8,0,0,1-.72-.6h-.06l-.17.69h-.58v-7.6h.81V85.5c0,.41,0,.78,0,1.11h0A1.94,1.94,0,0,1,40.9,85.81Zm-.12.68a1.43,1.43,0,0,0-1.2.48,3.71,3.71,0,0,0,0,3.21,1.43,1.43,0,0,0,1.21.49,1.24,1.24,0,0,0,1.11-.54,2.78,2.78,0,0,0,.37-1.57A2.64,2.64,0,0,0,41.91,87,1.29,1.29,0,0,0,40.78,86.49Z" fill="#d65d5d"/><path d="M51.23,91.25h-4V84.11h4v.74H48.08v2.3h3v.73h-3v2.63h3.15Z" fill="#d65d5d"/><path d="M54,88.51,52.12,85.9h.93l1.41,2,1.4-2h.92l-1.86,2.61,1.95,2.74H56l-1.5-2.17-1.52,2.17H52Z" fill="#d65d5d"/><path d="M60.19,91.35a2.46,2.46,0,0,1-1.87-.72,2.8,2.8,0,0,1-.68-2,3.15,3.15,0,0,1,.63-2.06A2.15,2.15,0,0,1,60,85.8a2,2,0,0,1,1.6.66,2.55,2.55,0,0,1,.58,1.75v.51H58.48A2.08,2.08,0,0,0,59,90.15a1.64,1.64,0,0,0,1.27.49,4.3,4.3,0,0,0,1.71-.36V91a4.05,4.05,0,0,1-.81.27A4.88,4.88,0,0,1,60.19,91.35ZM60,86.48a1.3,1.3,0,0,0-1,.42,1.88,1.88,0,0,0-.45,1.16h2.79A1.76,1.76,0,0,0,61,86.89,1.21,1.21,0,0,0,60,86.48Z" fill="#d65d5d"/><path d="M65.68,91.35a2.29,2.29,0,0,1-1.8-.72,3,3,0,0,1-.63-2,3,3,0,0,1,.64-2.08,2.37,2.37,0,0,1,1.85-.73,4.11,4.11,0,0,1,.77.08,2.46,2.46,0,0,1,.6.2l-.25.69a4,4,0,0,0-.58-.18,2.44,2.44,0,0,0-.56-.07c-1.09,0-1.63.69-1.63,2.08a2.49,2.49,0,0,0,.39,1.51,1.4,1.4,0,0,0,1.18.53A3.68,3.68,0,0,0,67,90.35v.72A2.89,2.89,0,0,1,65.68,91.35Z" fill="#d65d5d"/><path d="M69.07,85.9v3.47a1.45,1.45,0,0,0,.29,1,1.24,1.24,0,0,0,.94.32,1.52,1.52,0,0,0,1.23-.46,2.35,2.35,0,0,0,.38-1.5V85.9h.81v5.35h-.67l-.11-.72h0a1.52,1.52,0,0,1-.69.61,2.31,2.31,0,0,1-1,.21,2,2,0,0,1-1.46-.47,2,2,0,0,1-.48-1.48V85.9Z" fill="#d65d5d"/><path d="M76.17,90.68a3,3,0,0,0,.42,0l.31-.07v.62a1.45,1.45,0,0,1-.39.11,4.09,4.09,0,0,1-.46,0c-1,0-1.55-.55-1.55-1.64V86.53h-.77v-.39l.77-.34.34-1.14h.47V85.9h1.55v.63H75.31v3.15a1.09,1.09,0,0,0,.23.74A.8.8,0,0,0,76.17,90.68Z" fill="#d65d5d"/><path d="M77.9,84.45A.55.55,0,0,1,78,84a.51.51,0,0,1,.34-.13.53.53,0,0,1,.34.13.67.67,0,0,1,0,.82.48.48,0,0,1-.34.13.47.47,0,0,1-.34-.13A.56.56,0,0,1,77.9,84.45Zm.88,6.8H78V85.9h.81Z" fill="#d65d5d"/><path d="M85.12,88.57a2.94,2.94,0,0,1-.66,2,2.32,2.32,0,0,1-1.82.74A2.34,2.34,0,0,1,81.37,91a2.2,2.2,0,0,1-.86-1,3.25,3.25,0,0,1-.31-1.47,2.94,2.94,0,0,1,.66-2,2.56,2.56,0,0,1,3.6,0A2.94,2.94,0,0,1,85.12,88.57Zm-4.08,0a2.57,2.57,0,0,0,.41,1.56,1.44,1.44,0,0,0,1.21.54,1.46,1.46,0,0,0,1.21-.53,2.58,2.58,0,0,0,.41-1.57A2.51,2.51,0,0,0,83.87,87a1.46,1.46,0,0,0-1.22-.53,1.42,1.42,0,0,0-1.2.52A2.53,2.53,0,0,0,81,88.57Z" fill="#d65d5d"/><path d="M90.2,91.25V87.79a1.45,1.45,0,0,0-.29-1,1.24,1.24,0,0,0-.94-.32,1.54,1.54,0,0,0-1.23.45,2.32,2.32,0,0,0-.39,1.5v2.81h-.81V85.9h.66l.13.73h0a1.67,1.67,0,0,1,.7-.61,2.19,2.19,0,0,1,1-.22,2,2,0,0,1,1.46.47A2,2,0,0,1,91,87.76v3.49Z" fill="#d65d5d"/></svg>
